G75*
%MOIN*%
%OFA0B0*%
%FSLAX25Y25*%
%IPPOS*%
%LPD*%
%AMOC8*
5,1,8,0,0,1.08239X$1,22.5*
%
%ADD10C,0.00000*%
%ADD11OC8,0.05200*%
%ADD12C,0.05200*%
%ADD13C,0.05150*%
%ADD14C,0.11220*%
%ADD15C,0.05200*%
%ADD16C,0.05937*%
%ADD17C,0.07400*%
%ADD18C,0.01600*%
%ADD19OC8,0.03562*%
%ADD20R,0.03562X0.03562*%
D10*
X0001800Y0001800D02*
X0001800Y0198650D01*
X0198650Y0198650D01*
X0198650Y0001800D01*
X0001800Y0001800D01*
D11*
X0036800Y0096800D03*
X0036800Y0136800D03*
X0046800Y0156800D03*
X0063050Y0155550D03*
X0063050Y0165550D03*
X0041800Y0181800D03*
X0041800Y0191800D03*
X0026800Y0191800D03*
X0026800Y0181800D03*
X0011800Y0181800D03*
X0011800Y0191800D03*
X0006800Y0156800D03*
X0111800Y0184300D03*
X0116800Y0191800D03*
X0121800Y0184300D03*
X0126800Y0164300D03*
X0126800Y0151800D03*
X0159300Y0184300D03*
X0166800Y0164300D03*
X0166800Y0151800D03*
X0181800Y0146800D03*
X0181800Y0156800D03*
X0181800Y0181800D03*
X0181800Y0191800D03*
X0151800Y0086800D03*
D12*
X0151800Y0106800D03*
X0139300Y0184300D03*
D13*
X0075924Y0183050D03*
X0068050Y0183050D03*
X0060176Y0183050D03*
X0159221Y0030599D03*
X0163946Y0027450D03*
X0159221Y0024300D03*
X0163946Y0021150D03*
X0159221Y0018001D03*
D14*
X0179300Y0009930D03*
X0179300Y0038670D03*
D15*
X0114400Y0036800D02*
X0109200Y0036800D01*
X0109200Y0046800D02*
X0114400Y0046800D01*
X0114400Y0056800D02*
X0109200Y0056800D01*
X0109200Y0066800D02*
X0114400Y0066800D01*
X0114400Y0076800D02*
X0109200Y0076800D01*
X0109200Y0086800D02*
X0114400Y0086800D01*
X0114400Y0096800D02*
X0109200Y0096800D01*
X0109200Y0106800D02*
X0114400Y0106800D01*
X0114400Y0116800D02*
X0109200Y0116800D01*
X0109200Y0126800D02*
X0114400Y0126800D01*
X0114400Y0136800D02*
X0109200Y0136800D01*
X0109200Y0146800D02*
X0114400Y0146800D01*
X0114400Y0156800D02*
X0109200Y0156800D01*
X0109200Y0166800D02*
X0114400Y0166800D01*
X0084400Y0166800D02*
X0079200Y0166800D01*
X0079200Y0156800D02*
X0084400Y0156800D01*
X0084400Y0146800D02*
X0079200Y0146800D01*
X0079200Y0136800D02*
X0084400Y0136800D01*
X0084400Y0126800D02*
X0079200Y0126800D01*
X0079200Y0116800D02*
X0084400Y0116800D01*
X0084400Y0106800D02*
X0079200Y0106800D01*
X0079200Y0096800D02*
X0084400Y0096800D01*
X0084400Y0086800D02*
X0079200Y0086800D01*
X0079200Y0076800D02*
X0084400Y0076800D01*
X0084400Y0066800D02*
X0079200Y0066800D01*
X0079200Y0056800D02*
X0084400Y0056800D01*
X0084400Y0046800D02*
X0079200Y0046800D01*
X0079200Y0036800D02*
X0084400Y0036800D01*
D16*
X0083798Y0183050D03*
X0052302Y0183050D03*
D17*
X0006800Y0136800D03*
X0006800Y0126800D03*
X0006800Y0116800D03*
X0006800Y0106800D03*
X0006800Y0096800D03*
X0006800Y0086800D03*
X0006800Y0076800D03*
X0006800Y0066800D03*
X0006800Y0056800D03*
X0006800Y0046800D03*
X0006800Y0036800D03*
X0006800Y0026800D03*
X0006800Y0016800D03*
X0034300Y0014300D03*
X0034300Y0034300D03*
X0061800Y0034300D03*
X0061800Y0014300D03*
X0061800Y0071800D03*
X0061800Y0081800D03*
X0061800Y0091800D03*
X0193800Y0086800D03*
X0193800Y0076800D03*
X0193800Y0066800D03*
X0193800Y0096800D03*
X0193800Y0106800D03*
X0193800Y0116800D03*
X0193800Y0126800D03*
X0193800Y0136800D03*
D18*
X0121800Y0136800D01*
X0111800Y0146800D01*
X0112440Y0142200D02*
X0108285Y0142200D01*
X0106594Y0142900D01*
X0105300Y0144194D01*
X0104600Y0145885D01*
X0104600Y0147715D01*
X0105300Y0149406D01*
X0106594Y0150700D01*
X0108285Y0151400D01*
X0115315Y0151400D01*
X0117006Y0150700D01*
X0118300Y0149406D01*
X0119000Y0147715D01*
X0119000Y0145885D01*
X0118319Y0144241D01*
X0122960Y0139600D01*
X0188790Y0139600D01*
X0188968Y0140029D01*
X0190571Y0141632D01*
X0192666Y0142500D01*
X0194934Y0142500D01*
X0196650Y0141789D01*
X0196650Y0196650D01*
X0003800Y0196650D01*
X0003800Y0160305D01*
X0004895Y0161400D01*
X0008705Y0161400D01*
X0011400Y0158705D01*
X0011400Y0154895D01*
X0008705Y0152200D01*
X0004895Y0152200D01*
X0003800Y0153295D01*
X0003800Y0141727D01*
X0005666Y0142500D01*
X0007934Y0142500D01*
X0008363Y0142322D01*
X0018976Y0152936D01*
X0019764Y0153724D01*
X0020793Y0154150D01*
X0042945Y0154150D01*
X0042200Y0154895D01*
X0042200Y0158705D01*
X0044895Y0161400D01*
X0048705Y0161400D01*
X0051400Y0158705D01*
X0051400Y0158350D01*
X0059345Y0158350D01*
X0061145Y0160150D01*
X0063690Y0160150D01*
X0064690Y0161150D01*
X0063050Y0161150D01*
X0063050Y0165550D01*
X0063050Y0165550D01*
X0063050Y0169950D01*
X0064873Y0169950D01*
X0067450Y0167373D01*
X0067450Y0165550D01*
X0063050Y0165550D01*
X0063050Y0165550D01*
X0063050Y0165550D01*
X0063050Y0165550D01*
X0058650Y0165550D01*
X0058650Y0167373D01*
X0061227Y0169950D01*
X0063050Y0169950D01*
X0063050Y0165550D01*
X0067450Y0165550D01*
X0067450Y0163910D01*
X0067726Y0164186D01*
X0068514Y0164974D01*
X0069543Y0165400D01*
X0074801Y0165400D01*
X0074600Y0165885D01*
X0074600Y0167715D01*
X0075281Y0169359D01*
X0073360Y0171280D01*
X0059347Y0171280D01*
X0058366Y0170299D01*
X0055234Y0170299D01*
X0053019Y0172514D01*
X0053019Y0175646D01*
X0053054Y0175681D01*
X0049853Y0175681D01*
X0048824Y0176108D01*
X0048036Y0176895D01*
X0045931Y0179000D01*
X0045505Y0179000D01*
X0043705Y0177200D01*
X0039895Y0177200D01*
X0037200Y0179895D01*
X0037200Y0183705D01*
X0039895Y0186400D01*
X0043705Y0186400D01*
X0045505Y0184600D01*
X0047566Y0184600D01*
X0048090Y0185864D01*
X0049488Y0187262D01*
X0051314Y0188018D01*
X0053290Y0188018D01*
X0055116Y0187262D01*
X0056514Y0185864D01*
X0056516Y0185860D01*
X0057585Y0186928D01*
X0059266Y0187625D01*
X0061086Y0187625D01*
X0062767Y0186928D01*
X0064054Y0185641D01*
X0064113Y0185500D01*
X0064172Y0185641D01*
X0065459Y0186928D01*
X0067140Y0187625D01*
X0068960Y0187625D01*
X0070641Y0186928D01*
X0071928Y0185641D01*
X0071987Y0185500D01*
X0072046Y0185641D01*
X0073333Y0186928D01*
X0075014Y0187625D01*
X0076539Y0187625D01*
X0082300Y0193386D01*
X0083088Y0194174D01*
X0084117Y0194600D01*
X0113095Y0194600D01*
X0114895Y0196400D01*
X0118705Y0196400D01*
X0121400Y0193705D01*
X0121400Y0189895D01*
X0120405Y0188900D01*
X0123705Y0188900D01*
X0125505Y0187100D01*
X0135595Y0187100D01*
X0136694Y0188200D01*
X0138385Y0188900D01*
X0139940Y0188900D01*
X0144426Y0193386D01*
X0145214Y0194174D01*
X0146243Y0194600D01*
X0178095Y0194600D01*
X0179895Y0196400D01*
X0183705Y0196400D01*
X0186400Y0193705D01*
X0186400Y0189895D01*
X0183705Y0187200D01*
X0179895Y0187200D01*
X0178095Y0189000D01*
X0147960Y0189000D01*
X0143900Y0184940D01*
X0143900Y0183385D01*
X0143200Y0181694D01*
X0141906Y0180400D01*
X0140215Y0179700D01*
X0138385Y0179700D01*
X0136694Y0180400D01*
X0135595Y0181500D01*
X0125505Y0181500D01*
X0123705Y0179700D01*
X0119895Y0179700D01*
X0117200Y0182395D01*
X0117200Y0186205D01*
X0118195Y0187200D01*
X0115123Y0187200D01*
X0116200Y0186123D01*
X0116200Y0184300D01*
X0111800Y0184300D01*
X0111800Y0184300D01*
X0111800Y0184300D01*
X0111800Y0188700D01*
X0113395Y0188700D01*
X0113095Y0189000D01*
X0085834Y0189000D01*
X0084833Y0187999D01*
X0086612Y0187262D01*
X0088010Y0185864D01*
X0088767Y0184038D01*
X0088767Y0182062D01*
X0088010Y0180236D01*
X0086612Y0178838D01*
X0084786Y0178081D01*
X0082810Y0178081D01*
X0081582Y0178590D01*
X0081733Y0178440D01*
X0081733Y0177052D01*
X0084985Y0173800D01*
X0116697Y0173800D01*
X0117726Y0173374D01*
X0118513Y0172586D01*
X0120186Y0170913D01*
X0120974Y0170126D01*
X0121400Y0169097D01*
X0121400Y0166160D01*
X0122400Y0165160D01*
X0122400Y0166123D01*
X0124977Y0168700D01*
X0126800Y0168700D01*
X0126800Y0164300D01*
X0126800Y0164300D01*
X0131200Y0164300D01*
X0131200Y0166123D01*
X0128623Y0168700D01*
X0126800Y0168700D01*
X0126800Y0164300D01*
X0126800Y0164300D01*
X0131200Y0164300D01*
X0131200Y0162477D01*
X0128623Y0159900D01*
X0126800Y0159900D01*
X0126800Y0164300D01*
X0126800Y0164300D01*
X0126800Y0159900D01*
X0124977Y0159900D01*
X0124946Y0159932D01*
X0124946Y0158555D01*
X0123774Y0157384D01*
X0118762Y0157384D01*
X0118800Y0157146D01*
X0118800Y0156800D01*
X0111800Y0156800D01*
X0111800Y0156800D01*
X0111800Y0156800D01*
X0111800Y0161200D01*
X0114746Y0161200D01*
X0115430Y0161092D01*
X0116089Y0160878D01*
X0116706Y0160563D01*
X0117266Y0160156D01*
X0117384Y0160039D01*
X0117384Y0162257D01*
X0116818Y0162822D01*
X0115315Y0162200D01*
X0108285Y0162200D01*
X0106594Y0162900D01*
X0105495Y0164000D01*
X0091500Y0164000D01*
X0088513Y0161014D01*
X0087726Y0160226D01*
X0087551Y0160154D01*
X0088300Y0159406D01*
X0089000Y0157715D01*
X0089000Y0155885D01*
X0088300Y0154194D01*
X0087006Y0152900D01*
X0085315Y0152200D01*
X0078285Y0152200D01*
X0076594Y0152900D01*
X0075495Y0154000D01*
X0071400Y0154000D01*
X0067163Y0149764D01*
X0066999Y0149600D01*
X0075495Y0149600D01*
X0076594Y0150700D01*
X0078285Y0151400D01*
X0085315Y0151400D01*
X0087006Y0150700D01*
X0088300Y0149406D01*
X0089000Y0147715D01*
X0089000Y0145885D01*
X0088300Y0144194D01*
X0087006Y0142900D01*
X0085315Y0142200D01*
X0078285Y0142200D01*
X0076594Y0142900D01*
X0075495Y0144000D01*
X0027960Y0144000D01*
X0012322Y0128363D01*
X0012500Y0127934D01*
X0012500Y0125666D01*
X0011632Y0123571D01*
X0010029Y0121968D01*
X0009624Y0121800D01*
X0010029Y0121632D01*
X0011632Y0120029D01*
X0011810Y0119600D01*
X0075495Y0119600D01*
X0076594Y0120700D01*
X0078285Y0121400D01*
X0085315Y0121400D01*
X0087006Y0120700D01*
X0088300Y0119406D01*
X0089000Y0117715D01*
X0089000Y0115885D01*
X0088300Y0114194D01*
X0087006Y0112900D01*
X0085315Y0112200D01*
X0078285Y0112200D01*
X0076594Y0112900D01*
X0075495Y0114000D01*
X0011810Y0114000D01*
X0011632Y0113571D01*
X0010029Y0111968D01*
X0009624Y0111800D01*
X0010029Y0111632D01*
X0011632Y0110029D01*
X0011810Y0109600D01*
X0075495Y0109600D01*
X0076594Y0110700D01*
X0078285Y0111400D01*
X0085315Y0111400D01*
X0087006Y0110700D01*
X0088300Y0109406D01*
X0089000Y0107715D01*
X0089000Y0105885D01*
X0088300Y0104194D01*
X0087006Y0102900D01*
X0085315Y0102200D01*
X0078285Y0102200D01*
X0076594Y0102900D01*
X0075495Y0104000D01*
X0054947Y0104000D01*
X0055581Y0103366D01*
X0055581Y0100234D01*
X0053366Y0098019D01*
X0050234Y0098019D01*
X0049253Y0099000D01*
X0042960Y0099000D01*
X0041400Y0097440D01*
X0041400Y0094895D01*
X0038705Y0092200D01*
X0034895Y0092200D01*
X0032200Y0094895D01*
X0032200Y0098705D01*
X0034895Y0101400D01*
X0037440Y0101400D01*
X0039426Y0103386D01*
X0040040Y0104000D01*
X0011810Y0104000D01*
X0011632Y0103571D01*
X0010029Y0101968D01*
X0009624Y0101800D01*
X0010029Y0101632D01*
X0011632Y0100029D01*
X0012500Y0097934D01*
X0012500Y0095666D01*
X0011632Y0093571D01*
X0010029Y0091968D01*
X0009624Y0091800D01*
X0010029Y0091632D01*
X0011632Y0090029D01*
X0012500Y0087934D01*
X0012500Y0085666D01*
X0012322Y0085237D01*
X0037960Y0059600D01*
X0075495Y0059600D01*
X0076594Y0060700D01*
X0078285Y0061400D01*
X0082440Y0061400D01*
X0083240Y0062200D01*
X0078285Y0062200D01*
X0076594Y0062900D01*
X0075300Y0064194D01*
X0074600Y0065885D01*
X0074600Y0067715D01*
X0075300Y0069406D01*
X0076594Y0070700D01*
X0078285Y0071400D01*
X0085315Y0071400D01*
X0087006Y0070700D01*
X0088300Y0069406D01*
X0089000Y0067715D01*
X0089000Y0065885D01*
X0088468Y0064600D01*
X0105132Y0064600D01*
X0104600Y0065885D01*
X0104600Y0067715D01*
X0105300Y0069406D01*
X0106594Y0070700D01*
X0108285Y0071400D01*
X0115315Y0071400D01*
X0117006Y0070700D01*
X0118105Y0069600D01*
X0174253Y0069600D01*
X0175234Y0070581D01*
X0178366Y0070581D01*
X0180581Y0068366D01*
X0180581Y0065234D01*
X0178366Y0063019D01*
X0175234Y0063019D01*
X0174253Y0064000D01*
X0169947Y0064000D01*
X0170581Y0063366D01*
X0170581Y0060234D01*
X0169947Y0059600D01*
X0178028Y0059600D01*
X0179621Y0061194D01*
X0182754Y0061194D01*
X0184969Y0058979D01*
X0184969Y0055846D01*
X0184035Y0054912D01*
X0185581Y0053366D01*
X0185581Y0050581D01*
X0188366Y0050581D01*
X0190581Y0048366D01*
X0190581Y0045234D01*
X0188366Y0043019D01*
X0185714Y0043019D01*
X0185752Y0042981D01*
X0186910Y0040184D01*
X0186910Y0037156D01*
X0185752Y0034359D01*
X0183611Y0032218D01*
X0180814Y0031060D01*
X0177786Y0031060D01*
X0174989Y0032218D01*
X0172848Y0034359D01*
X0171690Y0037156D01*
X0171690Y0040184D01*
X0172848Y0042981D01*
X0173867Y0044000D01*
X0122960Y0044000D01*
X0118319Y0039359D01*
X0119000Y0037715D01*
X0119000Y0035885D01*
X0118300Y0034194D01*
X0117006Y0032900D01*
X0115315Y0032200D01*
X0108285Y0032200D01*
X0106594Y0032900D01*
X0105300Y0034194D01*
X0104600Y0035885D01*
X0104600Y0037715D01*
X0105300Y0039406D01*
X0106594Y0040700D01*
X0108285Y0041400D01*
X0112440Y0041400D01*
X0113240Y0042200D01*
X0108285Y0042200D01*
X0106594Y0042900D01*
X0105300Y0044194D01*
X0104600Y0045885D01*
X0104600Y0047715D01*
X0105300Y0049406D01*
X0106594Y0050700D01*
X0108285Y0051400D01*
X0112440Y0051400D01*
X0113240Y0052200D01*
X0108285Y0052200D01*
X0106594Y0052900D01*
X0105300Y0054194D01*
X0104600Y0055885D01*
X0104600Y0057715D01*
X0105132Y0059000D01*
X0088468Y0059000D01*
X0089000Y0057715D01*
X0089000Y0055885D01*
X0088300Y0054194D01*
X0087006Y0052900D01*
X0085315Y0052200D01*
X0078285Y0052200D01*
X0076594Y0052900D01*
X0075495Y0054000D01*
X0039947Y0054000D01*
X0040581Y0053366D01*
X0040581Y0050234D01*
X0039947Y0049600D01*
X0075495Y0049600D01*
X0076594Y0050700D01*
X0078285Y0051400D01*
X0085315Y0051400D01*
X0087006Y0050700D01*
X0088300Y0049406D01*
X0089000Y0047715D01*
X0089000Y0045885D01*
X0088300Y0044194D01*
X0087006Y0042900D01*
X0085315Y0042200D01*
X0078285Y0042200D01*
X0076594Y0042900D01*
X0075495Y0044000D01*
X0011810Y0044000D01*
X0011632Y0043571D01*
X0010029Y0041968D01*
X0009336Y0041681D01*
X0009683Y0041504D01*
X0010383Y0040995D01*
X0010995Y0040383D01*
X0011504Y0039683D01*
X0011897Y0038911D01*
X0012165Y0038088D01*
X0012300Y0037233D01*
X0012300Y0037000D01*
X0007000Y0037000D01*
X0007000Y0036600D01*
X0012300Y0036600D01*
X0012300Y0036367D01*
X0012165Y0035512D01*
X0011897Y0034689D01*
X0011504Y0033917D01*
X0010995Y0033217D01*
X0010383Y0032605D01*
X0009683Y0032096D01*
X0009336Y0031919D01*
X0010029Y0031632D01*
X0011632Y0030029D01*
X0012500Y0027934D01*
X0012500Y0025666D01*
X0012322Y0025237D01*
X0012960Y0024600D01*
X0089253Y0024600D01*
X0089680Y0025028D01*
X0089564Y0025076D01*
X0088777Y0025864D01*
X0088777Y0025864D01*
X0082440Y0032200D01*
X0078285Y0032200D01*
X0076594Y0032900D01*
X0075300Y0034194D01*
X0074600Y0035885D01*
X0074600Y0037715D01*
X0075300Y0039406D01*
X0076594Y0040700D01*
X0078285Y0041400D01*
X0085315Y0041400D01*
X0087006Y0040700D01*
X0088300Y0039406D01*
X0089000Y0037715D01*
X0089000Y0035885D01*
X0088319Y0034241D01*
X0092310Y0030250D01*
X0149008Y0030250D01*
X0155906Y0037148D01*
X0156935Y0037574D01*
X0161507Y0037574D01*
X0162537Y0037148D01*
X0164982Y0034702D01*
X0164982Y0034702D01*
X0165770Y0033915D01*
X0166196Y0032885D01*
X0166196Y0031469D01*
X0166537Y0031328D01*
X0167824Y0030041D01*
X0168520Y0028360D01*
X0168520Y0026540D01*
X0167824Y0024858D01*
X0167266Y0024300D01*
X0167824Y0023742D01*
X0168520Y0022060D01*
X0168520Y0020240D01*
X0167824Y0018559D01*
X0166537Y0017272D01*
X0164856Y0016576D01*
X0163583Y0016576D01*
X0163100Y0015409D01*
X0161813Y0014122D01*
X0160131Y0013426D01*
X0158311Y0013426D01*
X0156630Y0014122D01*
X0155552Y0015201D01*
X0126290Y0015201D01*
X0125261Y0015627D01*
X0124473Y0016415D01*
X0121621Y0019267D01*
X0120234Y0019267D01*
X0118019Y0021482D01*
X0118019Y0024614D01*
X0118054Y0024650D01*
X0094298Y0024650D01*
X0095581Y0023366D01*
X0095581Y0020234D01*
X0093366Y0018019D01*
X0090234Y0018019D01*
X0089253Y0019000D01*
X0064688Y0019000D01*
X0065383Y0018495D01*
X0065995Y0017883D01*
X0066504Y0017183D01*
X0066897Y0016411D01*
X0067165Y0015588D01*
X0067300Y0014733D01*
X0067300Y0014600D01*
X0095640Y0014600D01*
X0098019Y0016979D01*
X0098019Y0018366D01*
X0100234Y0020581D01*
X0103366Y0020581D01*
X0105581Y0018366D01*
X0105581Y0015234D01*
X0103366Y0013019D01*
X0101979Y0013019D01*
X0098386Y0009426D01*
X0097357Y0009000D01*
X0067955Y0009000D01*
X0066369Y0007414D01*
X0065581Y0006626D01*
X0064552Y0006200D01*
X0014043Y0006200D01*
X0013014Y0006626D01*
X0012226Y0007414D01*
X0008363Y0011278D01*
X0007934Y0011100D01*
X0005666Y0011100D01*
X0003800Y0011873D01*
X0003800Y0003800D01*
X0174667Y0003800D01*
X0172848Y0005619D01*
X0171690Y0008416D01*
X0171690Y0011444D01*
X0172848Y0014241D01*
X0174989Y0016382D01*
X0177786Y0017540D01*
X0180814Y0017540D01*
X0183611Y0016382D01*
X0185752Y0014241D01*
X0186910Y0011444D01*
X0186910Y0008416D01*
X0185752Y0005619D01*
X0183933Y0003800D01*
X0196650Y0003800D01*
X0196650Y0062080D01*
X0195911Y0061703D01*
X0195088Y0061435D01*
X0194233Y0061300D01*
X0194000Y0061300D01*
X0194000Y0066600D01*
X0193600Y0066600D01*
X0193600Y0061300D01*
X0193367Y0061300D01*
X0192512Y0061435D01*
X0191689Y0061703D01*
X0190917Y0062096D01*
X0190217Y0062605D01*
X0189605Y0063217D01*
X0189096Y0063917D01*
X0188703Y0064689D01*
X0188435Y0065512D01*
X0188300Y0066367D01*
X0188300Y0066600D01*
X0193600Y0066600D01*
X0193600Y0067000D01*
X0188300Y0067000D01*
X0188300Y0067233D01*
X0188435Y0068088D01*
X0188703Y0068911D01*
X0189096Y0069683D01*
X0189605Y0070383D01*
X0190217Y0070995D01*
X0190917Y0071504D01*
X0191264Y0071681D01*
X0190571Y0071968D01*
X0188968Y0073571D01*
X0188790Y0074000D01*
X0179347Y0074000D01*
X0178366Y0073019D01*
X0175234Y0073019D01*
X0173019Y0075234D01*
X0173019Y0078366D01*
X0175234Y0080581D01*
X0178366Y0080581D01*
X0179347Y0079600D01*
X0188790Y0079600D01*
X0188968Y0080029D01*
X0190571Y0081632D01*
X0190976Y0081800D01*
X0190571Y0081968D01*
X0188968Y0083571D01*
X0188100Y0085666D01*
X0188100Y0087934D01*
X0188968Y0090029D01*
X0190571Y0091632D01*
X0190976Y0091800D01*
X0190571Y0091968D01*
X0188968Y0093571D01*
X0188100Y0095666D01*
X0188100Y0097934D01*
X0188968Y0100029D01*
X0190571Y0101632D01*
X0190976Y0101800D01*
X0190571Y0101968D01*
X0188968Y0103571D01*
X0188100Y0105666D01*
X0188100Y0107934D01*
X0188968Y0110029D01*
X0190571Y0111632D01*
X0190976Y0111800D01*
X0190571Y0111968D01*
X0188968Y0113571D01*
X0188790Y0114000D01*
X0121243Y0114000D01*
X0120214Y0114426D01*
X0119426Y0115214D01*
X0118928Y0115712D01*
X0118300Y0114194D01*
X0117006Y0112900D01*
X0115315Y0112200D01*
X0108285Y0112200D01*
X0106594Y0112900D01*
X0105300Y0114194D01*
X0104600Y0115885D01*
X0104600Y0117715D01*
X0104950Y0118559D01*
X0104410Y0118019D01*
X0099190Y0118019D01*
X0098019Y0119190D01*
X0098019Y0121621D01*
X0095640Y0124000D01*
X0088105Y0124000D01*
X0087006Y0122900D01*
X0085315Y0122200D01*
X0078285Y0122200D01*
X0076594Y0122900D01*
X0075300Y0124194D01*
X0074600Y0125885D01*
X0074600Y0127715D01*
X0075300Y0129406D01*
X0076594Y0130700D01*
X0078285Y0131400D01*
X0085315Y0131400D01*
X0087006Y0130700D01*
X0088105Y0129600D01*
X0093019Y0129600D01*
X0093019Y0131621D01*
X0090640Y0134000D01*
X0088105Y0134000D01*
X0087006Y0132900D01*
X0085315Y0132200D01*
X0078285Y0132200D01*
X0076594Y0132900D01*
X0075300Y0134194D01*
X0074600Y0135885D01*
X0074600Y0137715D01*
X0075300Y0139406D01*
X0076594Y0140700D01*
X0078285Y0141400D01*
X0085315Y0141400D01*
X0087006Y0140700D01*
X0088105Y0139600D01*
X0092357Y0139600D01*
X0093386Y0139174D01*
X0094174Y0138386D01*
X0096979Y0135581D01*
X0099410Y0135581D01*
X0100581Y0134410D01*
X0100581Y0129190D01*
X0099475Y0128085D01*
X0101979Y0125581D01*
X0104410Y0125581D01*
X0104950Y0125041D01*
X0104600Y0125885D01*
X0104600Y0127715D01*
X0105300Y0129406D01*
X0106594Y0130700D01*
X0108285Y0131400D01*
X0113240Y0131400D01*
X0112440Y0132200D01*
X0108285Y0132200D01*
X0106594Y0132900D01*
X0105300Y0134194D01*
X0104600Y0135885D01*
X0104600Y0137715D01*
X0105300Y0139406D01*
X0106594Y0140700D01*
X0108285Y0141400D01*
X0113240Y0141400D01*
X0112440Y0142200D01*
X0107636Y0142469D02*
X0085964Y0142469D01*
X0086593Y0140870D02*
X0107007Y0140870D01*
X0105245Y0139272D02*
X0093149Y0139272D01*
X0094886Y0137673D02*
X0104600Y0137673D01*
X0104600Y0136075D02*
X0096485Y0136075D01*
X0096800Y0131800D02*
X0091800Y0136800D01*
X0081800Y0136800D01*
X0077007Y0140870D02*
X0039235Y0140870D01*
X0038705Y0141400D02*
X0034895Y0141400D01*
X0032200Y0138705D01*
X0032200Y0134895D01*
X0034895Y0132200D01*
X0038705Y0132200D01*
X0041400Y0134895D01*
X0041400Y0138705D01*
X0038705Y0141400D01*
X0040833Y0139272D02*
X0075245Y0139272D01*
X0074600Y0137673D02*
X0041400Y0137673D01*
X0041400Y0136075D02*
X0074600Y0136075D01*
X0075183Y0134476D02*
X0040982Y0134476D01*
X0039383Y0132878D02*
X0076648Y0132878D01*
X0077994Y0131279D02*
X0015239Y0131279D01*
X0013641Y0129681D02*
X0019334Y0129681D01*
X0020234Y0130581D02*
X0018019Y0128366D01*
X0018019Y0125234D01*
X0020234Y0123019D01*
X0023366Y0123019D01*
X0024347Y0124000D01*
X0059253Y0124000D01*
X0060234Y0123019D01*
X0063366Y0123019D01*
X0065581Y0125234D01*
X0065581Y0128366D01*
X0063366Y0130581D01*
X0060234Y0130581D01*
X0059253Y0129600D01*
X0024347Y0129600D01*
X0023366Y0130581D01*
X0020234Y0130581D01*
X0021800Y0126800D02*
X0061800Y0126800D01*
X0059334Y0129681D02*
X0024266Y0129681D01*
X0023634Y0123287D02*
X0059966Y0123287D01*
X0063634Y0123287D02*
X0076208Y0123287D01*
X0075014Y0124885D02*
X0065233Y0124885D01*
X0065581Y0126484D02*
X0074600Y0126484D01*
X0074752Y0128082D02*
X0065581Y0128082D01*
X0064266Y0129681D02*
X0075576Y0129681D01*
X0081800Y0126800D02*
X0096800Y0126800D01*
X0101800Y0121800D01*
X0097952Y0121688D02*
X0009893Y0121688D01*
X0011348Y0123287D02*
X0019966Y0123287D01*
X0018367Y0124885D02*
X0012177Y0124885D01*
X0012500Y0126484D02*
X0018019Y0126484D01*
X0018019Y0128082D02*
X0012438Y0128082D01*
X0006800Y0126800D02*
X0026800Y0146800D01*
X0081800Y0146800D01*
X0077636Y0142469D02*
X0026429Y0142469D01*
X0024830Y0140870D02*
X0034365Y0140870D01*
X0032767Y0139272D02*
X0023232Y0139272D01*
X0021633Y0137673D02*
X0032200Y0137673D01*
X0032200Y0136075D02*
X0020035Y0136075D01*
X0018436Y0134476D02*
X0032618Y0134476D01*
X0034217Y0132878D02*
X0016838Y0132878D01*
X0008509Y0142469D02*
X0008009Y0142469D01*
X0005591Y0142469D02*
X0003800Y0142469D01*
X0003800Y0144068D02*
X0010108Y0144068D01*
X0011706Y0145666D02*
X0003800Y0145666D01*
X0003800Y0147265D02*
X0013305Y0147265D01*
X0014903Y0148863D02*
X0003800Y0148863D01*
X0003800Y0150462D02*
X0016502Y0150462D01*
X0018100Y0152060D02*
X0003800Y0152060D01*
X0010164Y0153659D02*
X0019699Y0153659D01*
X0021350Y0151350D02*
X0064790Y0151350D01*
X0070240Y0156800D01*
X0081800Y0156800D01*
X0087653Y0160053D02*
X0106230Y0160053D01*
X0106334Y0160156D02*
X0105844Y0159666D01*
X0105437Y0159106D01*
X0105122Y0158489D01*
X0104908Y0157830D01*
X0104800Y0157146D01*
X0104800Y0156800D01*
X0111800Y0156800D01*
X0118800Y0156800D01*
X0118800Y0156454D01*
X0118692Y0155770D01*
X0118478Y0155111D01*
X0118163Y0154494D01*
X0117756Y0153934D01*
X0117266Y0153444D01*
X0116706Y0153037D01*
X0116089Y0152722D01*
X0115430Y0152508D01*
X0114746Y0152400D01*
X0111800Y0152400D01*
X0111800Y0156800D01*
X0111800Y0156800D01*
X0111800Y0156800D01*
X0111800Y0161200D01*
X0108854Y0161200D01*
X0108170Y0161092D01*
X0107511Y0160878D01*
X0106894Y0160563D01*
X0106334Y0160156D01*
X0105111Y0158454D02*
X0088694Y0158454D01*
X0089000Y0156856D02*
X0104800Y0156856D01*
X0104800Y0156800D02*
X0104800Y0156454D01*
X0104908Y0155770D01*
X0105122Y0155111D01*
X0105437Y0154494D01*
X0105844Y0153934D01*
X0106334Y0153444D01*
X0106894Y0153037D01*
X0107511Y0152722D01*
X0108170Y0152508D01*
X0108854Y0152400D01*
X0111800Y0152400D01*
X0111800Y0156800D01*
X0104800Y0156800D01*
X0105075Y0155257D02*
X0088740Y0155257D01*
X0087764Y0153659D02*
X0106119Y0153659D01*
X0106356Y0150462D02*
X0087244Y0150462D01*
X0088524Y0148863D02*
X0105076Y0148863D01*
X0104600Y0147265D02*
X0089000Y0147265D01*
X0088909Y0145666D02*
X0104691Y0145666D01*
X0105427Y0144068D02*
X0088173Y0144068D01*
X0086952Y0132878D02*
X0091762Y0132878D01*
X0093019Y0131279D02*
X0085606Y0131279D01*
X0088024Y0129681D02*
X0093019Y0129681D01*
X0099477Y0128082D02*
X0104752Y0128082D01*
X0104600Y0126484D02*
X0101076Y0126484D01*
X0100581Y0129681D02*
X0105576Y0129681D01*
X0107994Y0131279D02*
X0100581Y0131279D01*
X0100581Y0132878D02*
X0106648Y0132878D01*
X0105183Y0134476D02*
X0100514Y0134476D01*
X0096353Y0123287D02*
X0087392Y0123287D01*
X0087616Y0120090D02*
X0098019Y0120090D01*
X0098718Y0118491D02*
X0088678Y0118491D01*
X0089000Y0116893D02*
X0104600Y0116893D01*
X0104845Y0115294D02*
X0088755Y0115294D01*
X0087801Y0113696D02*
X0105799Y0113696D01*
X0106594Y0110700D02*
X0105300Y0109406D01*
X0104600Y0107715D01*
X0104600Y0105885D01*
X0105300Y0104194D01*
X0106594Y0102900D01*
X0108285Y0102200D01*
X0115315Y0102200D01*
X0117006Y0102900D01*
X0118105Y0104000D01*
X0145040Y0104000D01*
X0139969Y0098928D01*
X0139969Y0098979D01*
X0137754Y0101194D01*
X0134621Y0101194D01*
X0133028Y0099600D01*
X0118105Y0099600D01*
X0117006Y0100700D01*
X0115315Y0101400D01*
X0108285Y0101400D01*
X0106594Y0100700D01*
X0105300Y0099406D01*
X0104600Y0097715D01*
X0104600Y0095885D01*
X0105300Y0094194D01*
X0106594Y0092900D01*
X0108285Y0092200D01*
X0115315Y0092200D01*
X0117006Y0092900D01*
X0118105Y0094000D01*
X0134253Y0094000D01*
X0134621Y0093631D01*
X0134672Y0093631D01*
X0130640Y0089600D01*
X0118105Y0089600D01*
X0117006Y0090700D01*
X0115315Y0091400D01*
X0108285Y0091400D01*
X0106594Y0090700D01*
X0105300Y0089406D01*
X0104600Y0087715D01*
X0104600Y0085885D01*
X0105300Y0084194D01*
X0106594Y0082900D01*
X0108285Y0082200D01*
X0115315Y0082200D01*
X0117006Y0082900D01*
X0118105Y0084000D01*
X0132357Y0084000D01*
X0133386Y0084426D01*
X0134174Y0085214D01*
X0151160Y0102200D01*
X0152715Y0102200D01*
X0154406Y0102900D01*
X0155700Y0104194D01*
X0155901Y0104679D01*
X0161154Y0099426D01*
X0162183Y0099000D01*
X0164253Y0099000D01*
X0165234Y0098019D01*
X0168366Y0098019D01*
X0170581Y0100234D01*
X0170581Y0103366D01*
X0168366Y0105581D01*
X0165234Y0105581D01*
X0164253Y0104600D01*
X0163900Y0104600D01*
X0155126Y0113374D01*
X0154097Y0113800D01*
X0149503Y0113800D01*
X0148474Y0113374D01*
X0144700Y0109600D01*
X0118105Y0109600D01*
X0117006Y0110700D01*
X0115315Y0111400D01*
X0108285Y0111400D01*
X0106594Y0110700D01*
X0106393Y0110499D02*
X0087207Y0110499D01*
X0088509Y0108900D02*
X0105091Y0108900D01*
X0104600Y0107302D02*
X0089000Y0107302D01*
X0088925Y0105703D02*
X0104675Y0105703D01*
X0105390Y0104105D02*
X0088210Y0104105D01*
X0086054Y0102506D02*
X0107546Y0102506D01*
X0107097Y0100908D02*
X0085996Y0100908D01*
X0086089Y0100878D02*
X0085430Y0101092D01*
X0084746Y0101200D01*
X0081800Y0101200D01*
X0081800Y0096800D01*
X0081800Y0096800D01*
X0088800Y0096800D01*
X0088800Y0097146D01*
X0088692Y0097830D01*
X0088478Y0098489D01*
X0088163Y0099106D01*
X0087756Y0099666D01*
X0087266Y0100156D01*
X0086706Y0100563D01*
X0086089Y0100878D01*
X0088016Y0099309D02*
X0105260Y0099309D01*
X0104600Y0097711D02*
X0088711Y0097711D01*
X0088800Y0096800D02*
X0081800Y0096800D01*
X0081800Y0096800D01*
X0081800Y0092400D01*
X0084746Y0092400D01*
X0085430Y0092508D01*
X0086089Y0092722D01*
X0086706Y0093037D01*
X0087266Y0093444D01*
X0087756Y0093934D01*
X0088163Y0094494D01*
X0088478Y0095111D01*
X0088692Y0095770D01*
X0088800Y0096454D01*
X0088800Y0096800D01*
X0088746Y0096112D02*
X0104600Y0096112D01*
X0105168Y0094514D02*
X0088173Y0094514D01*
X0086467Y0092915D02*
X0106579Y0092915D01*
X0108084Y0091317D02*
X0085516Y0091317D01*
X0085315Y0091400D02*
X0087006Y0090700D01*
X0088300Y0089406D01*
X0089000Y0087715D01*
X0089000Y0085885D01*
X0088300Y0084194D01*
X0087006Y0082900D01*
X0085315Y0082200D01*
X0078285Y0082200D01*
X0076594Y0082900D01*
X0075495Y0084000D01*
X0066852Y0084000D01*
X0066897Y0083911D01*
X0067165Y0083088D01*
X0067300Y0082233D01*
X0067300Y0082000D01*
X0062000Y0082000D01*
X0062000Y0081600D01*
X0067300Y0081600D01*
X0067300Y0081367D01*
X0067165Y0080512D01*
X0066897Y0079689D01*
X0066852Y0079600D01*
X0075495Y0079600D01*
X0076594Y0080700D01*
X0078285Y0081400D01*
X0085315Y0081400D01*
X0087006Y0080700D01*
X0088300Y0079406D01*
X0089000Y0077715D01*
X0089000Y0075885D01*
X0088300Y0074194D01*
X0087006Y0072900D01*
X0085315Y0072200D01*
X0078285Y0072200D01*
X0076594Y0072900D01*
X0075495Y0074000D01*
X0067960Y0074000D01*
X0067322Y0073363D01*
X0067500Y0072934D01*
X0067500Y0070666D01*
X0066632Y0068571D01*
X0065029Y0066968D01*
X0062934Y0066100D01*
X0060666Y0066100D01*
X0058571Y0066968D01*
X0056968Y0068571D01*
X0056100Y0070666D01*
X0056100Y0072934D01*
X0056968Y0075029D01*
X0058571Y0076632D01*
X0059264Y0076919D01*
X0058917Y0077096D01*
X0058217Y0077605D01*
X0057605Y0078217D01*
X0057096Y0078917D01*
X0056703Y0079689D01*
X0056435Y0080512D01*
X0056300Y0081367D01*
X0056300Y0081600D01*
X0061600Y0081600D01*
X0061600Y0082000D01*
X0056300Y0082000D01*
X0056300Y0082233D01*
X0056435Y0083088D01*
X0056703Y0083911D01*
X0057096Y0084683D01*
X0057605Y0085383D01*
X0058217Y0085995D01*
X0058917Y0086504D01*
X0059264Y0086681D01*
X0058571Y0086968D01*
X0056968Y0088571D01*
X0056100Y0090666D01*
X0056100Y0092934D01*
X0056968Y0095029D01*
X0058571Y0096632D01*
X0060666Y0097500D01*
X0062934Y0097500D01*
X0065029Y0096632D01*
X0066632Y0095029D01*
X0067500Y0092934D01*
X0067500Y0090666D01*
X0067322Y0090237D01*
X0067960Y0089600D01*
X0075495Y0089600D01*
X0076594Y0090700D01*
X0078285Y0091400D01*
X0085315Y0091400D01*
X0087987Y0089718D02*
X0105613Y0089718D01*
X0104768Y0088120D02*
X0088832Y0088120D01*
X0089000Y0086521D02*
X0104600Y0086521D01*
X0104999Y0084923D02*
X0088601Y0084923D01*
X0087429Y0083324D02*
X0106171Y0083324D01*
X0107511Y0080878D02*
X0106894Y0080563D01*
X0106334Y0080156D01*
X0105844Y0079666D01*
X0105437Y0079106D01*
X0105122Y0078489D01*
X0104908Y0077830D01*
X0104800Y0077146D01*
X0104800Y0076800D01*
X0111800Y0076800D01*
X0111800Y0076800D01*
X0111800Y0081200D01*
X0114746Y0081200D01*
X0115430Y0081092D01*
X0116089Y0080878D01*
X0116706Y0080563D01*
X0117266Y0080156D01*
X0117756Y0079666D01*
X0118163Y0079106D01*
X0118478Y0078489D01*
X0118692Y0077830D01*
X0118800Y0077146D01*
X0118800Y0076800D01*
X0111800Y0076800D01*
X0111800Y0076800D01*
X0111800Y0072400D01*
X0114746Y0072400D01*
X0115430Y0072508D01*
X0116089Y0072722D01*
X0116706Y0073037D01*
X0117266Y0073444D01*
X0117756Y0073934D01*
X0118163Y0074494D01*
X0118478Y0075111D01*
X0118692Y0075770D01*
X0118800Y0076454D01*
X0118800Y0076800D01*
X0111800Y0076800D01*
X0111800Y0076800D01*
X0111800Y0076800D01*
X0111800Y0081200D01*
X0108854Y0081200D01*
X0108170Y0081092D01*
X0107511Y0080878D01*
X0106305Y0080127D02*
X0087578Y0080127D01*
X0088663Y0078529D02*
X0105143Y0078529D01*
X0104800Y0076930D02*
X0089000Y0076930D01*
X0088771Y0075332D02*
X0105051Y0075332D01*
X0105122Y0075111D02*
X0105437Y0074494D01*
X0105844Y0073934D01*
X0106334Y0073444D01*
X0106894Y0073037D01*
X0107511Y0072722D01*
X0108170Y0072508D01*
X0108854Y0072400D01*
X0111800Y0072400D01*
X0111800Y0076800D01*
X0104800Y0076800D01*
X0104800Y0076454D01*
X0104908Y0075770D01*
X0105122Y0075111D01*
X0106044Y0073733D02*
X0087838Y0073733D01*
X0087169Y0070536D02*
X0106431Y0070536D01*
X0105106Y0068937D02*
X0088494Y0068937D01*
X0089000Y0067339D02*
X0104600Y0067339D01*
X0104660Y0065740D02*
X0088940Y0065740D01*
X0086800Y0061800D02*
X0166800Y0061800D01*
X0170581Y0062543D02*
X0190302Y0062543D01*
X0188982Y0064142D02*
X0179489Y0064142D01*
X0180581Y0065740D02*
X0188399Y0065740D01*
X0188317Y0067339D02*
X0180581Y0067339D01*
X0180010Y0068937D02*
X0188716Y0068937D01*
X0189758Y0070536D02*
X0178411Y0070536D01*
X0175189Y0070536D02*
X0117169Y0070536D01*
X0117556Y0073733D02*
X0174520Y0073733D01*
X0173019Y0075332D02*
X0118549Y0075332D01*
X0118800Y0076930D02*
X0173019Y0076930D01*
X0173181Y0078529D02*
X0118457Y0078529D01*
X0117295Y0080127D02*
X0174780Y0080127D01*
X0176800Y0076800D02*
X0193800Y0076800D01*
X0190797Y0081726D02*
X0062000Y0081726D01*
X0061600Y0081726D02*
X0015834Y0081726D01*
X0014236Y0083324D02*
X0056512Y0083324D01*
X0057270Y0084923D02*
X0012637Y0084923D01*
X0012500Y0086521D02*
X0058951Y0086521D01*
X0057419Y0088120D02*
X0012423Y0088120D01*
X0011761Y0089718D02*
X0056493Y0089718D01*
X0056100Y0091317D02*
X0010344Y0091317D01*
X0010976Y0092915D02*
X0034179Y0092915D01*
X0032581Y0094514D02*
X0012023Y0094514D01*
X0012500Y0096112D02*
X0032200Y0096112D01*
X0032200Y0097711D02*
X0012500Y0097711D01*
X0011930Y0099309D02*
X0032804Y0099309D01*
X0034402Y0100908D02*
X0010753Y0100908D01*
X0010567Y0102506D02*
X0038546Y0102506D01*
X0041800Y0101800D02*
X0051800Y0101800D01*
X0054656Y0099309D02*
X0075584Y0099309D01*
X0075437Y0099106D02*
X0075122Y0098489D01*
X0074908Y0097830D01*
X0074800Y0097146D01*
X0074800Y0096800D01*
X0081800Y0096800D01*
X0081800Y0096800D01*
X0081800Y0096800D01*
X0081800Y0101200D01*
X0078854Y0101200D01*
X0078170Y0101092D01*
X0077511Y0100878D01*
X0076894Y0100563D01*
X0076334Y0100156D01*
X0075844Y0099666D01*
X0075437Y0099106D01*
X0074889Y0097711D02*
X0041670Y0097711D01*
X0041400Y0096112D02*
X0058051Y0096112D01*
X0056754Y0094514D02*
X0041019Y0094514D01*
X0039421Y0092915D02*
X0056100Y0092915D01*
X0061800Y0091800D02*
X0066800Y0086800D01*
X0081800Y0086800D01*
X0081800Y0092400D02*
X0078854Y0092400D01*
X0078170Y0092508D01*
X0077511Y0092722D01*
X0076894Y0093037D01*
X0076334Y0093444D01*
X0075844Y0093934D01*
X0075437Y0094494D01*
X0075122Y0095111D01*
X0074908Y0095770D01*
X0074800Y0096454D01*
X0074800Y0096800D01*
X0081800Y0096800D01*
X0081800Y0092400D01*
X0081800Y0092915D02*
X0081800Y0092915D01*
X0081800Y0094514D02*
X0081800Y0094514D01*
X0081800Y0096112D02*
X0081800Y0096112D01*
X0081800Y0097711D02*
X0081800Y0097711D01*
X0081800Y0099309D02*
X0081800Y0099309D01*
X0081800Y0100908D02*
X0081800Y0100908D01*
X0077604Y0100908D02*
X0055581Y0100908D01*
X0055581Y0102506D02*
X0077546Y0102506D01*
X0081800Y0106800D02*
X0006800Y0106800D01*
X0011162Y0110499D02*
X0076393Y0110499D01*
X0075799Y0113696D02*
X0011684Y0113696D01*
X0010158Y0112097D02*
X0147198Y0112097D01*
X0145599Y0110499D02*
X0117207Y0110499D01*
X0117801Y0113696D02*
X0149252Y0113696D01*
X0150060Y0111000D02*
X0145860Y0106800D01*
X0111800Y0106800D01*
X0116054Y0102506D02*
X0143546Y0102506D01*
X0141948Y0100908D02*
X0138040Y0100908D01*
X0139638Y0099309D02*
X0140349Y0099309D01*
X0136800Y0096800D02*
X0136188Y0097412D01*
X0136800Y0096800D02*
X0111800Y0096800D01*
X0116503Y0100908D02*
X0134335Y0100908D01*
X0133955Y0092915D02*
X0117021Y0092915D01*
X0115516Y0091317D02*
X0132357Y0091317D01*
X0130758Y0089718D02*
X0117987Y0089718D01*
X0117429Y0083324D02*
X0149053Y0083324D01*
X0149977Y0082400D02*
X0147400Y0084977D01*
X0147400Y0086800D01*
X0151800Y0086800D01*
X0151800Y0086800D01*
X0151800Y0091200D01*
X0153623Y0091200D01*
X0156200Y0088623D01*
X0156200Y0086800D01*
X0151800Y0086800D01*
X0151800Y0086800D01*
X0151800Y0086800D01*
X0151800Y0091200D01*
X0149977Y0091200D01*
X0147400Y0088623D01*
X0147400Y0086800D01*
X0151800Y0086800D01*
X0156200Y0086800D01*
X0156200Y0084977D01*
X0153623Y0082400D01*
X0151800Y0082400D01*
X0151800Y0086800D01*
X0151800Y0086800D01*
X0151800Y0082400D01*
X0149977Y0082400D01*
X0151800Y0083324D02*
X0151800Y0083324D01*
X0151800Y0084923D02*
X0151800Y0084923D01*
X0151800Y0086521D02*
X0151800Y0086521D01*
X0151800Y0088120D02*
X0151800Y0088120D01*
X0151800Y0089718D02*
X0151800Y0089718D01*
X0155104Y0089718D02*
X0188839Y0089718D01*
X0188177Y0088120D02*
X0156200Y0088120D01*
X0156200Y0086521D02*
X0188100Y0086521D01*
X0188408Y0084923D02*
X0156145Y0084923D01*
X0154547Y0083324D02*
X0189215Y0083324D01*
X0189066Y0080127D02*
X0178820Y0080127D01*
X0179080Y0073733D02*
X0188901Y0073733D01*
X0190404Y0072134D02*
X0067500Y0072134D01*
X0067446Y0070536D02*
X0076431Y0070536D01*
X0075106Y0068937D02*
X0066784Y0068937D01*
X0065400Y0067339D02*
X0074600Y0067339D01*
X0074660Y0065740D02*
X0031819Y0065740D01*
X0033418Y0064142D02*
X0075353Y0064142D01*
X0077456Y0062543D02*
X0035016Y0062543D01*
X0036615Y0060945D02*
X0077186Y0060945D01*
X0081800Y0056800D02*
X0036800Y0056800D01*
X0006800Y0086800D01*
X0012500Y0077140D02*
X0034426Y0055214D01*
X0034646Y0054994D01*
X0034253Y0054600D01*
X0012960Y0054600D01*
X0012322Y0055237D01*
X0012500Y0055666D01*
X0012500Y0057934D01*
X0011632Y0060029D01*
X0010029Y0061632D01*
X0009336Y0061919D01*
X0009683Y0062096D01*
X0010383Y0062605D01*
X0010995Y0063217D01*
X0011504Y0063917D01*
X0011897Y0064689D01*
X0012165Y0065512D01*
X0012300Y0066367D01*
X0012300Y0066600D01*
X0007000Y0066600D01*
X0007000Y0067000D01*
X0012300Y0067000D01*
X0012300Y0067233D01*
X0012165Y0068088D01*
X0011897Y0068911D01*
X0011504Y0069683D01*
X0010995Y0070383D01*
X0010383Y0070995D01*
X0009683Y0071504D01*
X0009336Y0071681D01*
X0010029Y0071968D01*
X0011632Y0073571D01*
X0012500Y0075666D01*
X0012500Y0077140D01*
X0012500Y0076930D02*
X0012710Y0076930D01*
X0012361Y0075332D02*
X0014309Y0075332D01*
X0015907Y0073733D02*
X0011699Y0073733D01*
X0010196Y0072134D02*
X0017506Y0072134D01*
X0019104Y0070536D02*
X0010842Y0070536D01*
X0011884Y0068937D02*
X0020703Y0068937D01*
X0022301Y0067339D02*
X0012283Y0067339D01*
X0012201Y0065740D02*
X0023900Y0065740D01*
X0025498Y0064142D02*
X0011618Y0064142D01*
X0010298Y0062543D02*
X0027097Y0062543D01*
X0028695Y0060945D02*
X0010716Y0060945D01*
X0011915Y0059346D02*
X0030294Y0059346D01*
X0031892Y0057748D02*
X0012500Y0057748D01*
X0012500Y0056149D02*
X0033491Y0056149D01*
X0036800Y0051800D02*
X0011800Y0051800D01*
X0006800Y0056800D01*
X0006800Y0046800D02*
X0081800Y0046800D01*
X0078174Y0051354D02*
X0040581Y0051354D01*
X0040581Y0052952D02*
X0076542Y0052952D01*
X0075650Y0049755D02*
X0040103Y0049755D01*
X0035434Y0040000D02*
X0033166Y0040000D01*
X0031071Y0039132D01*
X0029468Y0037529D01*
X0028600Y0035434D01*
X0028600Y0033166D01*
X0029468Y0031071D01*
X0031071Y0029468D01*
X0033166Y0028600D01*
X0035434Y0028600D01*
X0037529Y0029468D01*
X0039132Y0031071D01*
X0040000Y0033166D01*
X0040000Y0035434D01*
X0039132Y0037529D01*
X0037529Y0039132D01*
X0035434Y0040000D01*
X0038095Y0038566D02*
X0058005Y0038566D01*
X0058571Y0039132D02*
X0056968Y0037529D01*
X0056100Y0035434D01*
X0056100Y0033166D01*
X0056968Y0031071D01*
X0058571Y0029468D01*
X0060666Y0028600D01*
X0062934Y0028600D01*
X0065029Y0029468D01*
X0066632Y0031071D01*
X0067500Y0033166D01*
X0067500Y0035434D01*
X0066632Y0037529D01*
X0065029Y0039132D01*
X0062934Y0040000D01*
X0060666Y0040000D01*
X0058571Y0039132D01*
X0056735Y0036967D02*
X0039365Y0036967D01*
X0040000Y0035369D02*
X0056100Y0035369D01*
X0056100Y0033770D02*
X0040000Y0033770D01*
X0039588Y0032172D02*
X0056512Y0032172D01*
X0057466Y0030573D02*
X0038634Y0030573D01*
X0036338Y0028975D02*
X0059762Y0028975D01*
X0063838Y0028975D02*
X0085666Y0028975D01*
X0087264Y0027376D02*
X0012500Y0027376D01*
X0012500Y0025778D02*
X0088863Y0025778D01*
X0091150Y0027450D02*
X0150168Y0027450D01*
X0157492Y0034774D01*
X0160951Y0034774D01*
X0163396Y0032328D01*
X0163396Y0027999D01*
X0163946Y0027450D01*
X0168520Y0027376D02*
X0196650Y0027376D01*
X0196650Y0025778D02*
X0168205Y0025778D01*
X0167387Y0024179D02*
X0196650Y0024179D01*
X0196650Y0022581D02*
X0168305Y0022581D01*
X0168520Y0020982D02*
X0196650Y0020982D01*
X0196650Y0019384D02*
X0168166Y0019384D01*
X0167050Y0017785D02*
X0196650Y0017785D01*
X0196650Y0016187D02*
X0183806Y0016187D01*
X0185404Y0014588D02*
X0196650Y0014588D01*
X0196650Y0012990D02*
X0186270Y0012990D01*
X0186910Y0011391D02*
X0196650Y0011391D01*
X0196650Y0009793D02*
X0186910Y0009793D01*
X0186818Y0008194D02*
X0196650Y0008194D01*
X0196650Y0006596D02*
X0186156Y0006596D01*
X0185130Y0004997D02*
X0196650Y0004997D01*
X0173470Y0004997D02*
X0003800Y0004997D01*
X0003800Y0006596D02*
X0013088Y0006596D01*
X0011446Y0008194D02*
X0003800Y0008194D01*
X0003800Y0009793D02*
X0009848Y0009793D01*
X0004963Y0011391D02*
X0003800Y0011391D01*
X0006800Y0016800D02*
X0014600Y0009000D01*
X0063995Y0009000D01*
X0066795Y0011800D01*
X0096800Y0011800D01*
X0101800Y0016800D01*
X0099036Y0019384D02*
X0094731Y0019384D01*
X0095581Y0020982D02*
X0118518Y0020982D01*
X0118019Y0022581D02*
X0095581Y0022581D01*
X0094768Y0024179D02*
X0118019Y0024179D01*
X0121800Y0023048D02*
X0126847Y0018001D01*
X0159221Y0018001D01*
X0162278Y0014588D02*
X0173196Y0014588D01*
X0172330Y0012990D02*
X0101949Y0012990D01*
X0100351Y0011391D02*
X0171690Y0011391D01*
X0171690Y0009793D02*
X0098752Y0009793D01*
X0104935Y0014588D02*
X0156164Y0014588D01*
X0163422Y0016187D02*
X0174794Y0016187D01*
X0171782Y0008194D02*
X0067149Y0008194D01*
X0065507Y0006596D02*
X0172444Y0006596D01*
X0168266Y0028975D02*
X0196650Y0028975D01*
X0196650Y0030573D02*
X0167292Y0030573D01*
X0166196Y0032172D02*
X0175102Y0032172D01*
X0173437Y0033770D02*
X0165830Y0033770D01*
X0164316Y0035369D02*
X0172430Y0035369D01*
X0171768Y0036967D02*
X0162717Y0036967D01*
X0155725Y0036967D02*
X0119000Y0036967D01*
X0118786Y0035369D02*
X0154127Y0035369D01*
X0152528Y0033770D02*
X0117876Y0033770D01*
X0118648Y0038566D02*
X0171690Y0038566D01*
X0171690Y0040164D02*
X0119124Y0040164D01*
X0120723Y0041763D02*
X0172344Y0041763D01*
X0173229Y0043361D02*
X0122321Y0043361D01*
X0121800Y0046800D02*
X0186800Y0046800D01*
X0190581Y0046558D02*
X0196650Y0046558D01*
X0196650Y0044960D02*
X0190307Y0044960D01*
X0188709Y0043361D02*
X0196650Y0043361D01*
X0196650Y0041763D02*
X0186256Y0041763D01*
X0186910Y0040164D02*
X0196650Y0040164D01*
X0196650Y0038566D02*
X0186910Y0038566D01*
X0186832Y0036967D02*
X0196650Y0036967D01*
X0196650Y0035369D02*
X0186170Y0035369D01*
X0185163Y0033770D02*
X0196650Y0033770D01*
X0196650Y0032172D02*
X0183498Y0032172D01*
X0190581Y0048157D02*
X0196650Y0048157D01*
X0196650Y0049755D02*
X0189192Y0049755D01*
X0185581Y0051354D02*
X0196650Y0051354D01*
X0196650Y0052952D02*
X0185581Y0052952D01*
X0184396Y0054551D02*
X0196650Y0054551D01*
X0196650Y0056149D02*
X0184969Y0056149D01*
X0184969Y0057748D02*
X0196650Y0057748D01*
X0196650Y0059346D02*
X0184601Y0059346D01*
X0183002Y0060945D02*
X0196650Y0060945D01*
X0194000Y0062543D02*
X0193600Y0062543D01*
X0193600Y0064142D02*
X0194000Y0064142D01*
X0194000Y0065740D02*
X0193600Y0065740D01*
X0181800Y0056800D02*
X0181188Y0057412D01*
X0181800Y0056800D02*
X0111800Y0056800D01*
X0106542Y0052952D02*
X0087058Y0052952D01*
X0088447Y0054551D02*
X0105153Y0054551D01*
X0104600Y0056149D02*
X0089000Y0056149D01*
X0088986Y0057748D02*
X0104614Y0057748D01*
X0108174Y0051354D02*
X0085426Y0051354D01*
X0087950Y0049755D02*
X0105650Y0049755D01*
X0104783Y0048157D02*
X0088817Y0048157D01*
X0089000Y0046558D02*
X0104600Y0046558D01*
X0104983Y0044960D02*
X0088617Y0044960D01*
X0087467Y0043361D02*
X0106133Y0043361D01*
X0106059Y0040164D02*
X0087541Y0040164D01*
X0088648Y0038566D02*
X0104952Y0038566D01*
X0104600Y0036967D02*
X0089000Y0036967D01*
X0088786Y0035369D02*
X0104814Y0035369D01*
X0105724Y0033770D02*
X0088790Y0033770D01*
X0090388Y0032172D02*
X0150930Y0032172D01*
X0149331Y0030573D02*
X0091987Y0030573D01*
X0091150Y0027450D02*
X0081800Y0036800D01*
X0082468Y0032172D02*
X0067088Y0032172D01*
X0067500Y0033770D02*
X0075724Y0033770D01*
X0074814Y0035369D02*
X0067500Y0035369D01*
X0066865Y0036967D02*
X0074600Y0036967D01*
X0074952Y0038566D02*
X0065595Y0038566D01*
X0066134Y0030573D02*
X0084067Y0030573D01*
X0076059Y0040164D02*
X0011154Y0040164D01*
X0012009Y0038566D02*
X0030505Y0038566D01*
X0029235Y0036967D02*
X0007000Y0036967D01*
X0009534Y0041763D02*
X0112803Y0041763D01*
X0111800Y0036800D02*
X0121800Y0046800D01*
X0116800Y0051800D02*
X0181800Y0051800D01*
X0179373Y0060945D02*
X0170581Y0060945D01*
X0176800Y0066800D02*
X0111800Y0066800D01*
X0111800Y0073733D02*
X0111800Y0073733D01*
X0111800Y0075332D02*
X0111800Y0075332D01*
X0111800Y0076930D02*
X0111800Y0076930D01*
X0111800Y0078529D02*
X0111800Y0078529D01*
X0111800Y0080127D02*
X0111800Y0080127D01*
X0111800Y0086800D02*
X0131800Y0086800D01*
X0151800Y0106800D01*
X0150060Y0111000D02*
X0153540Y0111000D01*
X0162740Y0101800D01*
X0166800Y0101800D01*
X0169656Y0099309D02*
X0188670Y0099309D01*
X0188100Y0097711D02*
X0146670Y0097711D01*
X0145072Y0096112D02*
X0188100Y0096112D01*
X0188577Y0094514D02*
X0143473Y0094514D01*
X0141875Y0092915D02*
X0189624Y0092915D01*
X0190256Y0091317D02*
X0140276Y0091317D01*
X0138678Y0089718D02*
X0148496Y0089718D01*
X0147400Y0088120D02*
X0137079Y0088120D01*
X0135481Y0086521D02*
X0147400Y0086521D01*
X0147455Y0084923D02*
X0133882Y0084923D01*
X0134174Y0085214D02*
X0134174Y0085214D01*
X0148269Y0099309D02*
X0161436Y0099309D01*
X0159672Y0100908D02*
X0149867Y0100908D01*
X0153454Y0102506D02*
X0158074Y0102506D01*
X0156475Y0104105D02*
X0155610Y0104105D01*
X0159599Y0108900D02*
X0188500Y0108900D01*
X0188100Y0107302D02*
X0161198Y0107302D01*
X0162796Y0105703D02*
X0188100Y0105703D01*
X0188747Y0104105D02*
X0169843Y0104105D01*
X0170581Y0102506D02*
X0190033Y0102506D01*
X0189847Y0100908D02*
X0170581Y0100908D01*
X0158001Y0110499D02*
X0189438Y0110499D01*
X0190442Y0112097D02*
X0156402Y0112097D01*
X0154348Y0113696D02*
X0188916Y0113696D01*
X0193800Y0116800D02*
X0121800Y0116800D01*
X0111800Y0126800D01*
X0111800Y0136800D02*
X0121800Y0126800D01*
X0193800Y0126800D01*
X0189809Y0140870D02*
X0121689Y0140870D01*
X0120091Y0142469D02*
X0179626Y0142469D01*
X0179895Y0142200D02*
X0183705Y0142200D01*
X0186400Y0144895D01*
X0186400Y0148705D01*
X0183705Y0151400D01*
X0179895Y0151400D01*
X0178095Y0149600D01*
X0172960Y0149600D01*
X0171400Y0151160D01*
X0171400Y0151191D01*
X0173964Y0151191D01*
X0176179Y0153406D01*
X0176179Y0154000D01*
X0178095Y0154000D01*
X0179895Y0152200D01*
X0183705Y0152200D01*
X0186400Y0154895D01*
X0186400Y0158705D01*
X0183705Y0161400D01*
X0179895Y0161400D01*
X0178095Y0159600D01*
X0173669Y0159600D01*
X0172640Y0159174D01*
X0172220Y0158753D01*
X0170832Y0158753D01*
X0168617Y0156538D01*
X0168617Y0156400D01*
X0164895Y0156400D01*
X0162200Y0153705D01*
X0162200Y0149895D01*
X0164895Y0147200D01*
X0167440Y0147200D01*
X0169426Y0145214D01*
X0170214Y0144426D01*
X0171243Y0144000D01*
X0178095Y0144000D01*
X0179895Y0142200D01*
X0183974Y0142469D02*
X0192591Y0142469D01*
X0195009Y0142469D02*
X0196650Y0142469D01*
X0196650Y0144068D02*
X0185573Y0144068D01*
X0186400Y0145666D02*
X0196650Y0145666D01*
X0196650Y0147265D02*
X0186400Y0147265D01*
X0186242Y0148863D02*
X0196650Y0148863D01*
X0196650Y0150462D02*
X0184644Y0150462D01*
X0185164Y0153659D02*
X0196650Y0153659D01*
X0196650Y0155257D02*
X0186400Y0155257D01*
X0186400Y0156856D02*
X0196650Y0156856D01*
X0196650Y0158454D02*
X0186400Y0158454D01*
X0185053Y0160053D02*
X0196650Y0160053D01*
X0196650Y0161651D02*
X0170657Y0161651D01*
X0171400Y0162395D02*
X0168705Y0159700D01*
X0164895Y0159700D01*
X0162200Y0162395D01*
X0162200Y0166205D01*
X0164895Y0168900D01*
X0168705Y0168900D01*
X0171400Y0166205D01*
X0171400Y0162395D01*
X0171400Y0163250D02*
X0175003Y0163250D01*
X0175234Y0163019D02*
X0178366Y0163019D01*
X0180581Y0165234D01*
X0180581Y0168366D01*
X0178366Y0170581D01*
X0176979Y0170581D01*
X0169174Y0178386D01*
X0168386Y0179174D01*
X0167357Y0179600D01*
X0129347Y0179600D01*
X0128366Y0180581D01*
X0125234Y0180581D01*
X0123019Y0178366D01*
X0123019Y0175234D01*
X0125234Y0173019D01*
X0128366Y0173019D01*
X0129347Y0174000D01*
X0165640Y0174000D01*
X0173019Y0166621D01*
X0173019Y0165234D01*
X0175234Y0163019D01*
X0173405Y0164848D02*
X0171400Y0164848D01*
X0171159Y0166447D02*
X0173019Y0166447D01*
X0171595Y0168045D02*
X0169560Y0168045D01*
X0169997Y0169644D02*
X0121173Y0169644D01*
X0121400Y0168045D02*
X0124323Y0168045D01*
X0122724Y0166447D02*
X0121400Y0166447D01*
X0118600Y0165000D02*
X0121800Y0161800D01*
X0121165Y0161165D01*
X0117384Y0161651D02*
X0089151Y0161651D01*
X0090749Y0163250D02*
X0106245Y0163250D01*
X0111800Y0160053D02*
X0111800Y0160053D01*
X0111800Y0158454D02*
X0111800Y0158454D01*
X0111800Y0156856D02*
X0111800Y0156856D01*
X0111800Y0155257D02*
X0111800Y0155257D01*
X0111800Y0153659D02*
X0111800Y0153659D01*
X0117481Y0153659D02*
X0122436Y0153659D01*
X0122400Y0153623D02*
X0122400Y0151800D01*
X0126800Y0151800D01*
X0131200Y0151800D01*
X0131200Y0153623D01*
X0128623Y0156200D01*
X0126800Y0156200D01*
X0126800Y0151800D01*
X0126800Y0151800D01*
X0126800Y0151800D01*
X0131200Y0151800D01*
X0131200Y0149977D01*
X0128623Y0147400D01*
X0126800Y0147400D01*
X0126800Y0151800D01*
X0126800Y0151800D01*
X0126800Y0151800D01*
X0126800Y0156200D01*
X0124977Y0156200D01*
X0122400Y0153623D01*
X0122400Y0152060D02*
X0069460Y0152060D01*
X0071058Y0153659D02*
X0075836Y0153659D01*
X0076356Y0150462D02*
X0067861Y0150462D01*
X0063050Y0155550D02*
X0070100Y0162600D01*
X0086140Y0162600D01*
X0090340Y0166800D01*
X0111800Y0166800D01*
X0116140Y0171000D02*
X0083825Y0171000D01*
X0077951Y0176873D01*
X0074520Y0174080D02*
X0056800Y0174080D01*
X0059310Y0171242D02*
X0073398Y0171242D01*
X0074997Y0169644D02*
X0065179Y0169644D01*
X0063050Y0169644D02*
X0063050Y0169644D01*
X0063050Y0168045D02*
X0063050Y0168045D01*
X0063050Y0166447D02*
X0063050Y0166447D01*
X0063050Y0165550D02*
X0058650Y0165550D01*
X0058650Y0163727D01*
X0061227Y0161150D01*
X0063050Y0161150D01*
X0063050Y0165550D01*
X0063050Y0164848D02*
X0063050Y0164848D01*
X0063050Y0163250D02*
X0063050Y0163250D01*
X0063050Y0161651D02*
X0063050Y0161651D01*
X0060726Y0161651D02*
X0003800Y0161651D01*
X0003800Y0163250D02*
X0059128Y0163250D01*
X0058650Y0164848D02*
X0003800Y0164848D01*
X0003800Y0166447D02*
X0058650Y0166447D01*
X0059323Y0168045D02*
X0003800Y0168045D01*
X0003800Y0169644D02*
X0060921Y0169644D01*
X0066777Y0168045D02*
X0074737Y0168045D01*
X0074600Y0166447D02*
X0067450Y0166447D01*
X0067450Y0164848D02*
X0068388Y0164848D01*
X0061047Y0160053D02*
X0050053Y0160053D01*
X0051400Y0158454D02*
X0059449Y0158454D01*
X0063050Y0155550D02*
X0048050Y0155550D01*
X0046800Y0156800D01*
X0043547Y0160053D02*
X0010053Y0160053D01*
X0011400Y0158454D02*
X0042200Y0158454D01*
X0042200Y0156856D02*
X0011400Y0156856D01*
X0011400Y0155257D02*
X0042200Y0155257D01*
X0054290Y0171242D02*
X0003800Y0171242D01*
X0003800Y0172841D02*
X0053019Y0172841D01*
X0053019Y0174439D02*
X0003800Y0174439D01*
X0003800Y0176038D02*
X0048993Y0176038D01*
X0047295Y0177636D02*
X0044142Y0177636D01*
X0039458Y0177636D02*
X0029142Y0177636D01*
X0028705Y0177200D02*
X0031400Y0179895D01*
X0031400Y0183705D01*
X0028705Y0186400D01*
X0024895Y0186400D01*
X0023095Y0184600D01*
X0015505Y0184600D01*
X0013705Y0186400D01*
X0009895Y0186400D01*
X0007200Y0183705D01*
X0007200Y0179895D01*
X0009895Y0177200D01*
X0013705Y0177200D01*
X0015505Y0179000D01*
X0023095Y0179000D01*
X0024895Y0177200D01*
X0028705Y0177200D01*
X0030740Y0179235D02*
X0037860Y0179235D01*
X0037200Y0180833D02*
X0031400Y0180833D01*
X0031400Y0182432D02*
X0037200Y0182432D01*
X0037525Y0184030D02*
X0031075Y0184030D01*
X0029477Y0185629D02*
X0039123Y0185629D01*
X0039977Y0187400D02*
X0037400Y0189977D01*
X0037400Y0191800D01*
X0041800Y0191800D01*
X0041800Y0191800D01*
X0041800Y0196200D01*
X0043623Y0196200D01*
X0046200Y0193623D01*
X0046200Y0191800D01*
X0041800Y0191800D01*
X0041800Y0191800D01*
X0041800Y0191800D01*
X0041800Y0196200D01*
X0039977Y0196200D01*
X0037400Y0193623D01*
X0037400Y0191800D01*
X0041800Y0191800D01*
X0046200Y0191800D01*
X0046200Y0189977D01*
X0043623Y0187400D01*
X0041800Y0187400D01*
X0041800Y0191800D01*
X0041800Y0191800D01*
X0041800Y0187400D01*
X0039977Y0187400D01*
X0038552Y0188826D02*
X0030048Y0188826D01*
X0031200Y0189977D02*
X0028623Y0187400D01*
X0026800Y0187400D01*
X0026800Y0191800D01*
X0026800Y0191800D01*
X0026800Y0196200D01*
X0028623Y0196200D01*
X0031200Y0193623D01*
X0031200Y0191800D01*
X0026800Y0191800D01*
X0026800Y0191800D01*
X0026800Y0191800D01*
X0022400Y0191800D01*
X0022400Y0193623D01*
X0024977Y0196200D01*
X0026800Y0196200D01*
X0026800Y0191800D01*
X0031200Y0191800D01*
X0031200Y0189977D01*
X0031200Y0190424D02*
X0037400Y0190424D01*
X0037400Y0192023D02*
X0031200Y0192023D01*
X0031200Y0193621D02*
X0037400Y0193621D01*
X0038997Y0195220D02*
X0029603Y0195220D01*
X0026800Y0195220D02*
X0026800Y0195220D01*
X0026800Y0193621D02*
X0026800Y0193621D01*
X0026800Y0192023D02*
X0026800Y0192023D01*
X0026800Y0191800D02*
X0022400Y0191800D01*
X0022400Y0189977D01*
X0024977Y0187400D01*
X0026800Y0187400D01*
X0026800Y0191800D01*
X0026800Y0191800D01*
X0026800Y0190424D02*
X0026800Y0190424D01*
X0026800Y0188826D02*
X0026800Y0188826D01*
X0023552Y0188826D02*
X0015048Y0188826D01*
X0016200Y0189977D02*
X0016200Y0191800D01*
X0016200Y0193623D01*
X0013623Y0196200D01*
X0011800Y0196200D01*
X0011800Y0191800D01*
X0011800Y0191800D01*
X0016200Y0191800D01*
X0011800Y0191800D01*
X0011800Y0191800D01*
X0011800Y0191800D01*
X0007400Y0191800D01*
X0007400Y0193623D01*
X0009977Y0196200D01*
X0011800Y0196200D01*
X0011800Y0191800D01*
X0011800Y0187400D01*
X0013623Y0187400D01*
X0016200Y0189977D01*
X0016200Y0190424D02*
X0022400Y0190424D01*
X0022400Y0192023D02*
X0016200Y0192023D01*
X0016200Y0193621D02*
X0022400Y0193621D01*
X0023997Y0195220D02*
X0014603Y0195220D01*
X0011800Y0195220D02*
X0011800Y0195220D01*
X0011800Y0193621D02*
X0011800Y0193621D01*
X0011800Y0192023D02*
X0011800Y0192023D01*
X0011800Y0191800D02*
X0007400Y0191800D01*
X0007400Y0189977D01*
X0009977Y0187400D01*
X0011800Y0187400D01*
X0011800Y0191800D01*
X0011800Y0191800D01*
X0011800Y0190424D02*
X0011800Y0190424D01*
X0011800Y0188826D02*
X0011800Y0188826D01*
X0008552Y0188826D02*
X0003800Y0188826D01*
X0003800Y0190424D02*
X0007400Y0190424D01*
X0007400Y0192023D02*
X0003800Y0192023D01*
X0003800Y0193621D02*
X0007400Y0193621D01*
X0008997Y0195220D02*
X0003800Y0195220D01*
X0003800Y0187227D02*
X0049453Y0187227D01*
X0047992Y0185629D02*
X0044477Y0185629D01*
X0045048Y0188826D02*
X0077740Y0188826D01*
X0079339Y0190424D02*
X0046200Y0190424D01*
X0046200Y0192023D02*
X0080937Y0192023D01*
X0082536Y0193621D02*
X0046200Y0193621D01*
X0044603Y0195220D02*
X0113715Y0195220D01*
X0116800Y0191800D02*
X0084674Y0191800D01*
X0075924Y0183050D01*
X0073954Y0183050D01*
X0069386Y0178481D01*
X0050410Y0178481D01*
X0047091Y0181800D01*
X0041800Y0181800D01*
X0041800Y0188826D02*
X0041800Y0188826D01*
X0041800Y0190424D02*
X0041800Y0190424D01*
X0041800Y0192023D02*
X0041800Y0192023D01*
X0041800Y0193621D02*
X0041800Y0193621D01*
X0041800Y0195220D02*
X0041800Y0195220D01*
X0055151Y0187227D02*
X0058306Y0187227D01*
X0062046Y0187227D02*
X0066180Y0187227D01*
X0064166Y0185629D02*
X0064060Y0185629D01*
X0069920Y0187227D02*
X0074054Y0187227D01*
X0072040Y0185629D02*
X0071934Y0185629D01*
X0081733Y0177636D02*
X0123019Y0177636D01*
X0123019Y0176038D02*
X0082747Y0176038D01*
X0084346Y0174439D02*
X0123813Y0174439D01*
X0126800Y0176800D02*
X0166800Y0176800D01*
X0176800Y0166800D01*
X0178597Y0163250D02*
X0196650Y0163250D01*
X0196650Y0164848D02*
X0180195Y0164848D01*
X0180581Y0166447D02*
X0196650Y0166447D01*
X0196650Y0168045D02*
X0180581Y0168045D01*
X0179304Y0169644D02*
X0196650Y0169644D01*
X0196650Y0171242D02*
X0176318Y0171242D01*
X0174719Y0172841D02*
X0196650Y0172841D01*
X0196650Y0174439D02*
X0173121Y0174439D01*
X0171522Y0176038D02*
X0196650Y0176038D01*
X0196650Y0177636D02*
X0184142Y0177636D01*
X0183705Y0177200D02*
X0186400Y0179895D01*
X0186400Y0183705D01*
X0183705Y0186400D01*
X0179895Y0186400D01*
X0177200Y0183705D01*
X0177200Y0179895D01*
X0179895Y0177200D01*
X0183705Y0177200D01*
X0185740Y0179235D02*
X0196650Y0179235D01*
X0196650Y0180833D02*
X0186400Y0180833D01*
X0186400Y0182432D02*
X0196650Y0182432D01*
X0196650Y0184030D02*
X0186075Y0184030D01*
X0184477Y0185629D02*
X0196650Y0185629D01*
X0196650Y0187227D02*
X0183733Y0187227D01*
X0185331Y0188826D02*
X0196650Y0188826D01*
X0196650Y0190424D02*
X0186400Y0190424D01*
X0186400Y0192023D02*
X0196650Y0192023D01*
X0196650Y0193621D02*
X0186400Y0193621D01*
X0184885Y0195220D02*
X0196650Y0195220D01*
X0181800Y0191800D02*
X0146800Y0191800D01*
X0139300Y0184300D01*
X0121800Y0184300D01*
X0117200Y0184030D02*
X0116200Y0184030D01*
X0116200Y0184300D02*
X0111800Y0184300D01*
X0111800Y0179900D01*
X0113623Y0179900D01*
X0116200Y0182477D01*
X0116200Y0184300D01*
X0116200Y0185629D02*
X0117200Y0185629D01*
X0117200Y0182432D02*
X0116154Y0182432D01*
X0114556Y0180833D02*
X0118761Y0180833D01*
X0123887Y0179235D02*
X0087009Y0179235D01*
X0088258Y0180833D02*
X0109044Y0180833D01*
X0109977Y0179900D02*
X0111800Y0179900D01*
X0111800Y0184300D01*
X0111800Y0184300D01*
X0111800Y0184300D01*
X0107400Y0184300D01*
X0107400Y0186123D01*
X0109977Y0188700D01*
X0111800Y0188700D01*
X0111800Y0184300D01*
X0107400Y0184300D01*
X0107400Y0182477D01*
X0109977Y0179900D01*
X0111800Y0180833D02*
X0111800Y0180833D01*
X0111800Y0182432D02*
X0111800Y0182432D01*
X0111800Y0184030D02*
X0111800Y0184030D01*
X0111800Y0185629D02*
X0111800Y0185629D01*
X0111800Y0187227D02*
X0111800Y0187227D01*
X0113269Y0188826D02*
X0085660Y0188826D01*
X0086647Y0187227D02*
X0108505Y0187227D01*
X0107400Y0185629D02*
X0088108Y0185629D01*
X0088767Y0184030D02*
X0107400Y0184030D01*
X0107446Y0182432D02*
X0088767Y0182432D01*
X0074520Y0174080D02*
X0081800Y0166800D01*
X0116140Y0171000D02*
X0118600Y0168540D01*
X0118600Y0165000D01*
X0117384Y0160053D02*
X0117370Y0160053D01*
X0118800Y0156856D02*
X0168934Y0156856D01*
X0170533Y0158454D02*
X0124845Y0158454D01*
X0126800Y0160053D02*
X0126800Y0160053D01*
X0126800Y0161651D02*
X0126800Y0161651D01*
X0126800Y0163250D02*
X0126800Y0163250D01*
X0126800Y0164848D02*
X0126800Y0164848D01*
X0126800Y0166447D02*
X0126800Y0166447D01*
X0126800Y0168045D02*
X0126800Y0168045D01*
X0129277Y0168045D02*
X0164040Y0168045D01*
X0162441Y0166447D02*
X0130876Y0166447D01*
X0131200Y0164848D02*
X0162200Y0164848D01*
X0162200Y0163250D02*
X0131200Y0163250D01*
X0130374Y0161651D02*
X0162943Y0161651D01*
X0164542Y0160053D02*
X0128775Y0160053D01*
X0129565Y0155257D02*
X0163752Y0155257D01*
X0162200Y0153659D02*
X0131164Y0153659D01*
X0131200Y0152060D02*
X0162200Y0152060D01*
X0162200Y0150462D02*
X0131200Y0150462D01*
X0130086Y0148863D02*
X0163232Y0148863D01*
X0164830Y0147265D02*
X0119000Y0147265D01*
X0118909Y0145666D02*
X0168974Y0145666D01*
X0169426Y0145214D02*
X0169426Y0145214D01*
X0171080Y0144068D02*
X0118492Y0144068D01*
X0118524Y0148863D02*
X0123514Y0148863D01*
X0122400Y0149977D02*
X0122400Y0151800D01*
X0126800Y0151800D01*
X0126800Y0147400D01*
X0124977Y0147400D01*
X0122400Y0149977D01*
X0122400Y0150462D02*
X0117244Y0150462D01*
X0118525Y0155257D02*
X0124035Y0155257D01*
X0126800Y0155257D02*
X0126800Y0155257D01*
X0126800Y0153659D02*
X0126800Y0153659D01*
X0126800Y0152060D02*
X0126800Y0152060D01*
X0126800Y0150462D02*
X0126800Y0150462D01*
X0126800Y0148863D02*
X0126800Y0148863D01*
X0119857Y0171242D02*
X0168398Y0171242D01*
X0166799Y0172841D02*
X0118259Y0172841D01*
X0124839Y0180833D02*
X0136261Y0180833D01*
X0142339Y0180833D02*
X0156544Y0180833D01*
X0157477Y0179900D02*
X0154900Y0182477D01*
X0154900Y0184300D01*
X0159300Y0184300D01*
X0163700Y0184300D01*
X0163700Y0186123D01*
X0161123Y0188700D01*
X0159300Y0188700D01*
X0159300Y0184300D01*
X0159300Y0184300D01*
X0159300Y0184300D01*
X0163700Y0184300D01*
X0163700Y0182477D01*
X0161123Y0179900D01*
X0159300Y0179900D01*
X0159300Y0184300D01*
X0159300Y0184300D01*
X0159300Y0184300D01*
X0159300Y0188700D01*
X0157477Y0188700D01*
X0154900Y0186123D01*
X0154900Y0184300D01*
X0159300Y0184300D01*
X0159300Y0179900D01*
X0157477Y0179900D01*
X0159300Y0180833D02*
X0159300Y0180833D01*
X0159300Y0182432D02*
X0159300Y0182432D01*
X0159300Y0184030D02*
X0159300Y0184030D01*
X0159300Y0185629D02*
X0159300Y0185629D01*
X0159300Y0187227D02*
X0159300Y0187227D01*
X0162595Y0187227D02*
X0179867Y0187227D01*
X0179123Y0185629D02*
X0163700Y0185629D01*
X0163700Y0184030D02*
X0177525Y0184030D01*
X0177200Y0182432D02*
X0163654Y0182432D01*
X0162056Y0180833D02*
X0177200Y0180833D01*
X0177860Y0179235D02*
X0168239Y0179235D01*
X0169924Y0177636D02*
X0179458Y0177636D01*
X0178269Y0188826D02*
X0147786Y0188826D01*
X0146187Y0187227D02*
X0156005Y0187227D01*
X0154900Y0185629D02*
X0144589Y0185629D01*
X0143900Y0184030D02*
X0154900Y0184030D01*
X0154946Y0182432D02*
X0143505Y0182432D01*
X0138206Y0188826D02*
X0123780Y0188826D01*
X0125378Y0187227D02*
X0135722Y0187227D01*
X0141465Y0190424D02*
X0121400Y0190424D01*
X0121400Y0192023D02*
X0143063Y0192023D01*
X0144662Y0193621D02*
X0121400Y0193621D01*
X0119885Y0195220D02*
X0178715Y0195220D01*
X0178547Y0160053D02*
X0169058Y0160053D01*
X0172398Y0154972D02*
X0174226Y0156800D01*
X0181800Y0156800D01*
X0178436Y0153659D02*
X0176179Y0153659D01*
X0174833Y0152060D02*
X0196650Y0152060D01*
X0181800Y0146800D02*
X0171800Y0146800D01*
X0166800Y0151800D01*
X0172098Y0150462D02*
X0178956Y0150462D01*
X0119346Y0115294D02*
X0118755Y0115294D01*
X0104922Y0118491D02*
X0104882Y0118491D01*
X0081800Y0116800D02*
X0006800Y0116800D01*
X0011571Y0120090D02*
X0075984Y0120090D01*
X0074854Y0096112D02*
X0065549Y0096112D01*
X0066846Y0094514D02*
X0075427Y0094514D01*
X0077133Y0092915D02*
X0067500Y0092915D01*
X0067500Y0091317D02*
X0078084Y0091317D01*
X0075613Y0089718D02*
X0067842Y0089718D01*
X0067088Y0083324D02*
X0076171Y0083324D01*
X0076022Y0080127D02*
X0067039Y0080127D01*
X0066800Y0076800D02*
X0081800Y0076800D01*
X0075762Y0073733D02*
X0067693Y0073733D01*
X0066800Y0076800D02*
X0061800Y0071800D01*
X0056431Y0073733D02*
X0023827Y0073733D01*
X0025425Y0072134D02*
X0056100Y0072134D01*
X0056154Y0070536D02*
X0027024Y0070536D01*
X0028622Y0068937D02*
X0056816Y0068937D01*
X0058200Y0067339D02*
X0030221Y0067339D01*
X0022228Y0075332D02*
X0057270Y0075332D01*
X0059243Y0076930D02*
X0020630Y0076930D01*
X0019031Y0078529D02*
X0057378Y0078529D01*
X0056561Y0080127D02*
X0017433Y0080127D01*
X0036800Y0096800D02*
X0041800Y0101800D01*
X0006800Y0136800D02*
X0021350Y0151350D01*
X0024458Y0177636D02*
X0014142Y0177636D01*
X0011800Y0181800D02*
X0026800Y0181800D01*
X0024123Y0185629D02*
X0014477Y0185629D01*
X0009123Y0185629D02*
X0003800Y0185629D01*
X0003800Y0184030D02*
X0007525Y0184030D01*
X0007200Y0182432D02*
X0003800Y0182432D01*
X0003800Y0180833D02*
X0007200Y0180833D01*
X0007860Y0179235D02*
X0003800Y0179235D01*
X0003800Y0177636D02*
X0009458Y0177636D01*
X0086800Y0061800D02*
X0081800Y0056800D01*
X0076133Y0043361D02*
X0011422Y0043361D01*
X0012118Y0035369D02*
X0028600Y0035369D01*
X0028600Y0033770D02*
X0011397Y0033770D01*
X0009787Y0032172D02*
X0029012Y0032172D01*
X0029966Y0030573D02*
X0011088Y0030573D01*
X0012069Y0028975D02*
X0032262Y0028975D01*
X0031412Y0019000D02*
X0030717Y0018495D01*
X0030105Y0017883D01*
X0029596Y0017183D01*
X0029203Y0016411D01*
X0028935Y0015588D01*
X0028800Y0014733D01*
X0028800Y0014500D01*
X0034100Y0014500D01*
X0034100Y0014100D01*
X0028800Y0014100D01*
X0028800Y0013867D01*
X0028935Y0013012D01*
X0029203Y0012189D01*
X0029401Y0011800D01*
X0015760Y0011800D01*
X0012322Y0015237D01*
X0012500Y0015666D01*
X0012500Y0017934D01*
X0012058Y0019000D01*
X0031412Y0019000D01*
X0030034Y0017785D02*
X0012500Y0017785D01*
X0012500Y0016187D02*
X0029130Y0016187D01*
X0028800Y0014588D02*
X0012972Y0014588D01*
X0014570Y0012990D02*
X0028943Y0012990D01*
X0034500Y0014100D02*
X0034500Y0014500D01*
X0039800Y0014500D01*
X0039800Y0014733D01*
X0039665Y0015588D01*
X0039397Y0016411D01*
X0039004Y0017183D01*
X0038495Y0017883D01*
X0037883Y0018495D01*
X0037188Y0019000D01*
X0058912Y0019000D01*
X0058217Y0018495D01*
X0057605Y0017883D01*
X0057096Y0017183D01*
X0056703Y0016411D01*
X0056435Y0015588D01*
X0056300Y0014733D01*
X0056300Y0014500D01*
X0061600Y0014500D01*
X0061600Y0014100D01*
X0056300Y0014100D01*
X0056300Y0013867D01*
X0056435Y0013012D01*
X0056703Y0012189D01*
X0056901Y0011800D01*
X0039199Y0011800D01*
X0039397Y0012189D01*
X0039665Y0013012D01*
X0039800Y0013867D01*
X0039800Y0014100D01*
X0034500Y0014100D01*
X0039657Y0012990D02*
X0056443Y0012990D01*
X0056300Y0014588D02*
X0039800Y0014588D01*
X0039470Y0016187D02*
X0056630Y0016187D01*
X0057534Y0017785D02*
X0038566Y0017785D01*
X0066066Y0017785D02*
X0098019Y0017785D01*
X0097227Y0016187D02*
X0066970Y0016187D01*
X0091800Y0021800D02*
X0011800Y0021800D01*
X0006800Y0026800D01*
X0104564Y0019384D02*
X0120117Y0019384D01*
X0123103Y0017785D02*
X0105581Y0017785D01*
X0105581Y0016187D02*
X0124702Y0016187D01*
X0111800Y0046800D02*
X0116800Y0051800D01*
D19*
X0121800Y0023048D03*
X0101800Y0016800D03*
X0091800Y0021800D03*
X0036800Y0051800D03*
X0051800Y0101800D03*
X0061800Y0126800D03*
X0021800Y0126800D03*
X0056800Y0174080D03*
X0077951Y0176873D03*
X0126800Y0176800D03*
X0172398Y0154972D03*
X0176800Y0166800D03*
X0166800Y0101800D03*
X0176800Y0076800D03*
X0176800Y0066800D03*
X0181188Y0057412D03*
X0181800Y0051800D03*
X0186800Y0046800D03*
X0166800Y0061800D03*
X0136188Y0097412D03*
D20*
X0101800Y0121800D03*
X0096800Y0131800D03*
X0121165Y0161165D03*
M02*
