G75*
%MOIN*%
%OFA0B0*%
%FSLAX25Y25*%
%IPPOS*%
%LPD*%
%AMOC8*
5,1,8,0,0,1.08239X$1,22.5*
%
%ADD10C,0.00000*%
%ADD11C,0.00400*%
%ADD12R,1.54800X0.00300*%
%ADD13R,0.00300X0.00300*%
%ADD14R,0.00900X0.00300*%
%ADD15R,0.00600X0.00300*%
%ADD16R,0.01500X0.00300*%
%ADD17R,0.01800X0.00300*%
%ADD18R,0.02700X0.00300*%
%ADD19R,0.01200X0.00300*%
%ADD20R,0.03900X0.00300*%
%ADD21R,0.15900X0.00300*%
%ADD22R,0.02100X0.00300*%
%ADD23R,0.14700X0.00300*%
%ADD24R,0.03300X0.00300*%
%ADD25R,0.02400X0.00300*%
%ADD26R,0.04200X0.00300*%
%ADD27R,0.03600X0.00300*%
%ADD28R,0.05700X0.00300*%
%ADD29R,0.03000X0.00300*%
%ADD30R,0.05100X0.00300*%
%ADD31R,0.19500X0.00300*%
%ADD32R,0.05400X0.00300*%
%ADD33R,0.06000X0.00300*%
%ADD34R,0.09300X0.00300*%
%ADD35R,0.08100X0.00300*%
%ADD36R,0.04500X0.00300*%
%ADD37R,1.55700X0.00300*%
%ADD38R,0.16200X0.00300*%
%ADD39R,0.16500X0.00300*%
%ADD40R,0.07200X0.00300*%
%ADD41R,0.07800X0.00300*%
%ADD42R,0.08400X0.00300*%
%ADD43R,0.07500X0.00300*%
%ADD44R,0.06600X0.00300*%
%ADD45R,0.04800X0.00300*%
%ADD46R,0.06900X0.00300*%
%ADD47R,0.10800X0.00300*%
%ADD48R,0.10500X0.00300*%
%ADD49R,0.10200X0.00300*%
%ADD50R,0.09900X0.00300*%
%ADD51R,0.09600X0.00300*%
%ADD52R,0.06300X0.00300*%
%ADD53C,0.00300*%
%ADD54C,0.00500*%
D10*
X0001800Y0001800D02*
X0001800Y0198650D01*
X0198650Y0198650D01*
X0198650Y0001800D01*
X0001800Y0001800D01*
D11*
X0009518Y0008437D02*
X0012587Y0005367D01*
X0012587Y0004600D01*
X0014122Y0004600D02*
X0017191Y0004600D01*
X0015656Y0004600D02*
X0015656Y0009204D01*
X0017191Y0007669D01*
X0018725Y0008437D02*
X0018725Y0005367D01*
X0019493Y0004600D01*
X0021027Y0004600D01*
X0021795Y0005367D01*
X0018725Y0008437D01*
X0019493Y0009204D01*
X0021027Y0009204D01*
X0021795Y0008437D01*
X0021795Y0005367D01*
X0023329Y0004600D02*
X0026399Y0004600D01*
X0023329Y0007669D01*
X0023329Y0008437D01*
X0024097Y0009204D01*
X0025631Y0009204D01*
X0026399Y0008437D01*
X0032537Y0009204D02*
X0034072Y0008437D01*
X0035607Y0006902D01*
X0033305Y0006902D01*
X0032537Y0006135D01*
X0032537Y0005367D01*
X0033305Y0004600D01*
X0034839Y0004600D01*
X0035607Y0005367D01*
X0035607Y0006902D01*
X0037141Y0005367D02*
X0037908Y0005367D01*
X0037908Y0004600D01*
X0037141Y0004600D01*
X0037141Y0005367D01*
X0037141Y0004600D02*
X0038676Y0003065D01*
X0042512Y0004600D02*
X0042512Y0007669D01*
X0042512Y0006135D02*
X0040978Y0007669D01*
X0040210Y0007669D01*
X0044047Y0006902D02*
X0044047Y0005367D01*
X0044814Y0004600D01*
X0047116Y0004600D01*
X0047116Y0003065D02*
X0047116Y0007669D01*
X0044814Y0007669D01*
X0044047Y0006902D01*
X0048651Y0006902D02*
X0051720Y0006902D01*
X0051720Y0007669D02*
X0050186Y0009204D01*
X0048651Y0007669D01*
X0048651Y0004600D01*
X0051720Y0004600D02*
X0051720Y0007669D01*
X0057859Y0005367D02*
X0057859Y0004600D01*
X0058626Y0004600D01*
X0058626Y0005367D01*
X0057859Y0005367D01*
X0061695Y0004600D02*
X0061695Y0009204D01*
X0060161Y0009204D02*
X0063230Y0009204D01*
X0069369Y0006902D02*
X0069369Y0006135D01*
X0072438Y0006135D01*
X0072438Y0006902D02*
X0071671Y0007669D01*
X0070136Y0007669D01*
X0069369Y0006902D01*
X0070136Y0004600D02*
X0071671Y0004600D01*
X0072438Y0005367D01*
X0072438Y0006902D01*
X0073973Y0006902D02*
X0073973Y0006135D01*
X0077042Y0006135D01*
X0077042Y0006902D02*
X0076275Y0007669D01*
X0074740Y0007669D01*
X0073973Y0006902D01*
X0074740Y0004600D02*
X0076275Y0004600D01*
X0077042Y0005367D01*
X0077042Y0006902D01*
X0078576Y0007669D02*
X0080111Y0007669D01*
X0079344Y0008437D02*
X0079344Y0005367D01*
X0078576Y0004600D01*
X0081646Y0004600D02*
X0081646Y0006902D01*
X0082413Y0007669D01*
X0083948Y0007669D01*
X0083948Y0006135D02*
X0081646Y0006135D01*
X0081646Y0004600D02*
X0083948Y0004600D01*
X0084715Y0005367D01*
X0083948Y0006135D01*
X0086250Y0006902D02*
X0086250Y0004600D01*
X0086250Y0006902D02*
X0087017Y0007669D01*
X0089319Y0007669D01*
X0089319Y0004600D01*
X0090854Y0004600D02*
X0092388Y0004600D01*
X0091621Y0004600D02*
X0091621Y0007669D01*
X0092388Y0007669D01*
X0093923Y0006902D02*
X0093923Y0004600D01*
X0096225Y0004600D01*
X0096992Y0005367D01*
X0096225Y0006135D01*
X0093923Y0006135D01*
X0093923Y0006902D02*
X0094690Y0007669D01*
X0096225Y0007669D01*
X0098527Y0006902D02*
X0098527Y0004600D01*
X0098527Y0006902D02*
X0099294Y0007669D01*
X0100829Y0007669D01*
X0101596Y0006902D01*
X0103131Y0008437D02*
X0103898Y0009204D01*
X0105433Y0009204D01*
X0106200Y0008437D01*
X0106200Y0005367D01*
X0105433Y0004600D01*
X0103898Y0004600D01*
X0103131Y0005367D01*
X0101596Y0004600D02*
X0101596Y0009204D01*
X0091621Y0009204D02*
X0091621Y0009971D01*
X0012587Y0009204D02*
X0009518Y0009204D01*
X0009518Y0008437D01*
D12*
X0097050Y0070800D03*
D13*
X0087000Y0081300D03*
X0087000Y0083100D03*
X0081000Y0081000D03*
X0081000Y0079800D03*
X0081000Y0078900D03*
X0081000Y0078300D03*
X0079800Y0078300D03*
X0079800Y0076500D03*
X0079800Y0080100D03*
X0079800Y0074100D03*
X0064500Y0078300D03*
X0064500Y0078900D03*
X0064500Y0080100D03*
X0063000Y0078000D03*
X0062400Y0078000D03*
X0062400Y0077400D03*
X0063000Y0077400D03*
X0063900Y0077400D03*
X0061800Y0077400D03*
X0061800Y0078000D03*
X0061200Y0078000D03*
X0060600Y0078000D03*
X0060600Y0077400D03*
X0061200Y0077400D03*
X0060000Y0077400D03*
X0058200Y0077400D03*
X0058200Y0078300D03*
X0056700Y0078000D03*
X0054000Y0077400D03*
X0053400Y0077400D03*
X0053100Y0078000D03*
X0052200Y0078000D03*
X0051600Y0077400D03*
X0047100Y0079800D03*
X0047100Y0080100D03*
X0045300Y0080700D03*
X0044700Y0080700D03*
X0044100Y0080700D03*
X0045000Y0081300D03*
X0043200Y0078600D03*
X0043800Y0077700D03*
X0044100Y0077100D03*
X0042600Y0077100D03*
X0037500Y0080400D03*
X0037200Y0081600D03*
X0037200Y0082200D03*
X0037500Y0082800D03*
X0042000Y0088800D03*
X0042000Y0089400D03*
X0042000Y0089700D03*
X0041700Y0090900D03*
X0041400Y0091500D03*
X0040800Y0092400D03*
X0043800Y0093000D03*
X0043800Y0091800D03*
X0043800Y0095700D03*
X0043800Y0096900D03*
X0042900Y0098100D03*
X0043800Y0099900D03*
X0042900Y0103200D03*
X0041400Y0103200D03*
X0040200Y0103200D03*
X0039300Y0103200D03*
X0038100Y0103200D03*
X0036600Y0103200D03*
X0035400Y0103200D03*
X0034500Y0103200D03*
X0033300Y0103200D03*
X0031800Y0103200D03*
X0030900Y0103200D03*
X0029400Y0103200D03*
X0027900Y0103200D03*
X0027000Y0103200D03*
X0030300Y0098100D03*
X0031800Y0095700D03*
X0031800Y0095100D03*
X0031800Y0094200D03*
X0031800Y0093600D03*
X0031800Y0093300D03*
X0031800Y0092700D03*
X0031500Y0091800D03*
X0030900Y0091800D03*
X0029400Y0092400D03*
X0028800Y0092400D03*
X0026100Y0092400D03*
X0033300Y0098100D03*
X0035100Y0098100D03*
X0034500Y0095700D03*
X0034500Y0095400D03*
X0034500Y0095100D03*
X0034500Y0094800D03*
X0034500Y0094500D03*
X0034500Y0094200D03*
X0034500Y0093600D03*
X0034500Y0093300D03*
X0035400Y0092400D03*
X0036900Y0091800D03*
X0036900Y0093600D03*
X0036900Y0093900D03*
X0036900Y0094800D03*
X0036900Y0096000D03*
X0039900Y0098100D03*
X0051900Y0089400D03*
X0052800Y0090000D03*
X0051600Y0088200D03*
X0051600Y0087300D03*
X0051300Y0084600D03*
X0051300Y0083700D03*
X0051000Y0082500D03*
X0053700Y0083100D03*
X0058200Y0081900D03*
X0058200Y0081600D03*
X0058200Y0081000D03*
X0058200Y0084300D03*
X0058200Y0087600D03*
X0061800Y0089100D03*
X0065700Y0091500D03*
X0065400Y0092400D03*
X0064800Y0094500D03*
X0064500Y0095400D03*
X0064500Y0095700D03*
X0058800Y0097200D03*
X0057600Y0098400D03*
X0058200Y0100200D03*
X0058200Y0100500D03*
X0058200Y0101100D03*
X0058200Y0101700D03*
X0056700Y0103500D03*
X0055500Y0105600D03*
X0057000Y0107100D03*
X0052500Y0105900D03*
X0057300Y0113400D03*
X0058500Y0114300D03*
X0060900Y0110700D03*
X0061800Y0109500D03*
X0063000Y0108900D03*
X0062700Y0104400D03*
X0061500Y0121500D03*
X0054300Y0121500D03*
X0050400Y0121500D03*
X0044700Y0121500D03*
X0045300Y0128100D03*
X0046200Y0128100D03*
X0045900Y0129000D03*
X0045300Y0129000D03*
X0044700Y0129000D03*
X0043500Y0128100D03*
X0043200Y0129000D03*
X0042000Y0128100D03*
X0046500Y0129000D03*
X0047100Y0129000D03*
X0047700Y0129000D03*
X0048300Y0129000D03*
X0048900Y0129000D03*
X0048600Y0128100D03*
X0047700Y0128100D03*
X0050100Y0128100D03*
X0051000Y0128100D03*
X0051300Y0129000D03*
X0051900Y0129000D03*
X0052500Y0129000D03*
X0053100Y0129000D03*
X0053700Y0129000D03*
X0054300Y0129000D03*
X0054900Y0128100D03*
X0055800Y0128100D03*
X0056400Y0128100D03*
X0053400Y0128100D03*
X0052500Y0128100D03*
X0056100Y0140100D03*
X0057300Y0145500D03*
X0056400Y0146400D03*
X0055800Y0146400D03*
X0055500Y0148200D03*
X0055200Y0149100D03*
X0048900Y0145800D03*
X0048300Y0144600D03*
X0047700Y0144600D03*
X0047100Y0144600D03*
X0048600Y0143700D03*
X0048600Y0142500D03*
X0045000Y0142500D03*
X0044400Y0143700D03*
X0044700Y0149100D03*
X0049500Y0156600D03*
X0048300Y0165000D03*
X0048000Y0165900D03*
X0084900Y0150000D03*
X0111900Y0150000D03*
X0112200Y0152700D03*
X0124200Y0152700D03*
X0151200Y0150000D03*
X0151800Y0150000D03*
X0152400Y0150000D03*
X0153000Y0150000D03*
X0152400Y0152700D03*
X0151800Y0152700D03*
X0162900Y0152400D03*
X0163800Y0152400D03*
X0169800Y0152700D03*
X0172200Y0152100D03*
X0171300Y0156000D03*
X0172800Y0159600D03*
X0171900Y0121500D03*
X0176700Y0120300D03*
X0177000Y0120000D03*
X0177300Y0119700D03*
X0177600Y0119100D03*
X0177900Y0118800D03*
X0177900Y0118500D03*
X0177900Y0118200D03*
X0178200Y0117600D03*
X0178200Y0117300D03*
X0178200Y0117000D03*
X0178200Y0116700D03*
X0178200Y0116400D03*
X0178200Y0116100D03*
X0178200Y0115800D03*
X0178200Y0115500D03*
X0178200Y0115200D03*
X0178200Y0114900D03*
X0178200Y0114600D03*
X0178200Y0114300D03*
X0178200Y0114000D03*
X0178200Y0113700D03*
X0178200Y0113400D03*
X0178200Y0113100D03*
X0178200Y0112800D03*
X0178200Y0112500D03*
X0178200Y0112200D03*
X0178200Y0111900D03*
X0178200Y0111600D03*
X0178200Y0111300D03*
X0178200Y0111000D03*
X0178200Y0110700D03*
X0178200Y0110400D03*
X0178200Y0110100D03*
X0178200Y0109800D03*
X0178200Y0109500D03*
X0178200Y0109200D03*
X0178200Y0108900D03*
X0178200Y0108600D03*
X0178200Y0108300D03*
X0178200Y0108000D03*
X0178200Y0107700D03*
X0178200Y0107400D03*
X0178200Y0107100D03*
X0178200Y0106800D03*
X0178200Y0106500D03*
X0178200Y0106200D03*
X0178200Y0105900D03*
X0178200Y0105600D03*
X0178200Y0105300D03*
X0178200Y0105000D03*
X0178200Y0104700D03*
X0178200Y0104400D03*
X0178200Y0104100D03*
X0178200Y0103800D03*
X0178200Y0103500D03*
X0178200Y0103200D03*
X0178200Y0102900D03*
X0178200Y0102600D03*
X0178200Y0102300D03*
X0178200Y0102000D03*
X0178200Y0101700D03*
X0178200Y0101400D03*
X0178200Y0101100D03*
X0178200Y0100800D03*
X0178200Y0100500D03*
X0178200Y0100200D03*
X0178200Y0099900D03*
X0178200Y0099600D03*
X0178200Y0099300D03*
X0178200Y0099000D03*
X0178200Y0098700D03*
X0178200Y0098400D03*
X0178200Y0098100D03*
X0178200Y0097800D03*
X0178200Y0097500D03*
X0178200Y0097200D03*
X0178200Y0096900D03*
X0178200Y0096600D03*
X0178200Y0096300D03*
X0178200Y0096000D03*
X0178200Y0095700D03*
X0178200Y0095400D03*
X0178200Y0095100D03*
X0178200Y0094800D03*
X0178200Y0094500D03*
X0178200Y0094200D03*
X0178200Y0093900D03*
X0178200Y0093600D03*
X0178200Y0093300D03*
X0178200Y0093000D03*
X0178200Y0092700D03*
X0178200Y0092400D03*
X0178200Y0092100D03*
X0178200Y0091800D03*
X0178200Y0091500D03*
X0178200Y0091200D03*
X0178200Y0090900D03*
X0178200Y0090600D03*
X0178200Y0090300D03*
X0178200Y0090000D03*
X0178200Y0089700D03*
X0178200Y0089400D03*
X0178200Y0089100D03*
X0178200Y0088800D03*
X0178200Y0088500D03*
X0178200Y0088200D03*
X0178200Y0087900D03*
X0178200Y0087600D03*
X0178200Y0087300D03*
X0178200Y0087000D03*
X0178200Y0086700D03*
X0178200Y0086400D03*
X0178200Y0086100D03*
X0178200Y0085800D03*
X0178200Y0085500D03*
X0178200Y0085200D03*
X0178200Y0084900D03*
X0178200Y0084600D03*
X0178200Y0084300D03*
X0178200Y0084000D03*
X0178200Y0083700D03*
X0178200Y0083400D03*
X0178200Y0083100D03*
X0178200Y0082800D03*
X0178200Y0082500D03*
X0178200Y0082200D03*
X0178200Y0081900D03*
X0178200Y0081600D03*
X0178200Y0081300D03*
X0178200Y0081000D03*
X0178200Y0080700D03*
X0178200Y0080400D03*
X0178200Y0080100D03*
X0178200Y0079800D03*
X0178200Y0079500D03*
X0178200Y0079200D03*
X0178200Y0078900D03*
X0178200Y0078600D03*
X0178200Y0078300D03*
X0178200Y0078000D03*
X0178200Y0077700D03*
X0178200Y0077400D03*
X0178200Y0077100D03*
X0178200Y0076800D03*
X0178200Y0076500D03*
X0178200Y0076200D03*
X0178200Y0075900D03*
X0178200Y0075600D03*
X0178200Y0075000D03*
X0178200Y0074400D03*
X0178200Y0074100D03*
X0177900Y0073500D03*
X0177600Y0073200D03*
X0177600Y0072900D03*
X0177300Y0072600D03*
X0177000Y0072300D03*
X0177000Y0072000D03*
X0174900Y0070800D03*
X0157200Y0078000D03*
X0155400Y0078000D03*
X0154200Y0078000D03*
X0152400Y0078000D03*
X0151500Y0078000D03*
X0148800Y0078000D03*
X0148200Y0078000D03*
X0147000Y0078000D03*
X0145200Y0078000D03*
X0144600Y0078000D03*
X0136800Y0083100D03*
X0144600Y0085500D03*
X0144300Y0086700D03*
X0147300Y0089400D03*
X0147300Y0090900D03*
X0147300Y0091500D03*
X0147300Y0093000D03*
X0147300Y0094500D03*
X0151800Y0097500D03*
X0156000Y0095100D03*
X0157200Y0096000D03*
X0151500Y0090900D03*
X0151200Y0088500D03*
X0160500Y0087600D03*
X0149700Y0106500D03*
X0150900Y0107700D03*
X0152100Y0110100D03*
X0152100Y0115500D03*
X0150300Y0121500D03*
X0146400Y0121500D03*
X0144000Y0121500D03*
X0139200Y0121500D03*
X0134400Y0121500D03*
X0129600Y0121500D03*
X0126900Y0121500D03*
X0123900Y0121500D03*
X0116700Y0121500D03*
X0109500Y0121500D03*
X0107700Y0121500D03*
X0104700Y0121500D03*
X0097500Y0121500D03*
X0090300Y0121500D03*
X0083100Y0121500D03*
X0075900Y0121500D03*
X0068700Y0121500D03*
X0082200Y0094200D03*
X0064500Y0085200D03*
X0064500Y0083700D03*
X0099300Y0087300D03*
X0117000Y0087300D03*
X0117000Y0083700D03*
X0122400Y0084900D03*
X0122400Y0089700D03*
X0129300Y0080400D03*
X0129300Y0079500D03*
X0129300Y0079200D03*
X0129300Y0078000D03*
X0129300Y0076800D03*
X0129300Y0075900D03*
X0136200Y0096000D03*
X0130200Y0099600D03*
X0128700Y0099600D03*
X0129000Y0103200D03*
X0122400Y0107100D03*
X0157500Y0121500D03*
X0164700Y0121500D03*
X0037500Y0121500D03*
X0030300Y0121500D03*
X0023100Y0121500D03*
X0018600Y0120600D03*
X0018000Y0120600D03*
X0017700Y0120000D03*
X0017100Y0119700D03*
X0017100Y0119400D03*
X0016800Y0119100D03*
X0016800Y0118800D03*
X0016500Y0118500D03*
X0016500Y0118200D03*
X0016200Y0117900D03*
X0016200Y0117600D03*
X0016200Y0117300D03*
X0016200Y0117000D03*
X0016200Y0116400D03*
X0016200Y0116100D03*
X0016200Y0115800D03*
X0016200Y0115200D03*
X0016200Y0114900D03*
X0016200Y0114300D03*
X0016200Y0114000D03*
X0016200Y0113700D03*
X0016200Y0113400D03*
X0016200Y0112800D03*
X0016200Y0112500D03*
X0016200Y0112200D03*
X0016200Y0111600D03*
X0016200Y0111300D03*
X0016200Y0110700D03*
X0016200Y0110400D03*
X0016200Y0110100D03*
X0016200Y0109500D03*
X0016200Y0109200D03*
X0016200Y0108900D03*
X0016200Y0108300D03*
X0016200Y0108000D03*
X0016200Y0107700D03*
X0016200Y0107100D03*
X0016200Y0106800D03*
X0016200Y0106500D03*
X0016200Y0105900D03*
X0016200Y0105600D03*
X0016200Y0105300D03*
X0016200Y0105000D03*
X0016200Y0104400D03*
X0016200Y0104100D03*
X0016200Y0103500D03*
X0016200Y0103200D03*
X0016200Y0102900D03*
X0016200Y0102600D03*
X0016200Y0102000D03*
X0016200Y0101700D03*
X0016200Y0101400D03*
X0016200Y0100800D03*
X0016200Y0100500D03*
X0016200Y0099900D03*
X0016200Y0099600D03*
X0016200Y0099300D03*
X0016200Y0099000D03*
X0016200Y0098400D03*
X0016200Y0098100D03*
X0016200Y0097800D03*
X0016200Y0097200D03*
X0016200Y0096900D03*
X0016200Y0096300D03*
X0016200Y0096000D03*
X0016200Y0095700D03*
X0016200Y0095100D03*
X0016200Y0094800D03*
X0016200Y0094500D03*
X0016200Y0093900D03*
X0016200Y0093600D03*
X0016200Y0093300D03*
X0016200Y0092700D03*
X0016200Y0092400D03*
X0016200Y0092100D03*
X0016200Y0091500D03*
X0016200Y0091200D03*
X0016200Y0090900D03*
X0016200Y0090600D03*
X0016200Y0090000D03*
X0016200Y0089700D03*
X0016200Y0089100D03*
X0016200Y0088800D03*
X0016200Y0088500D03*
X0016200Y0088200D03*
X0016200Y0087600D03*
X0016200Y0087300D03*
X0016200Y0087000D03*
X0016200Y0086400D03*
X0016200Y0086100D03*
X0016200Y0085500D03*
X0016200Y0085200D03*
X0016200Y0084900D03*
X0016200Y0084600D03*
X0016200Y0084000D03*
X0016200Y0083700D03*
X0016200Y0083400D03*
X0016200Y0082800D03*
X0016200Y0082500D03*
X0016200Y0081900D03*
X0016200Y0081600D03*
X0016200Y0081300D03*
X0016200Y0080700D03*
X0016200Y0080400D03*
X0016200Y0080100D03*
X0016200Y0079500D03*
X0016200Y0079200D03*
X0016200Y0078900D03*
X0016200Y0078300D03*
X0016200Y0078000D03*
X0016200Y0077700D03*
X0016200Y0077100D03*
X0016200Y0076800D03*
X0016200Y0076500D03*
X0016200Y0076200D03*
X0016200Y0075600D03*
X0016200Y0075300D03*
X0016200Y0075000D03*
X0016500Y0074700D03*
X0016200Y0074100D03*
X0016500Y0073800D03*
X0016500Y0073500D03*
X0016800Y0073200D03*
X0016800Y0072900D03*
X0017100Y0072600D03*
X0017400Y0072300D03*
X0017700Y0072000D03*
D14*
X0018000Y0071700D03*
X0019500Y0071100D03*
X0038100Y0084000D03*
X0038700Y0084600D03*
X0039300Y0085200D03*
X0039600Y0085500D03*
X0040500Y0086400D03*
X0040800Y0086700D03*
X0038700Y0091800D03*
X0036900Y0094200D03*
X0034500Y0092400D03*
X0033300Y0092400D03*
X0033300Y0091800D03*
X0031800Y0093000D03*
X0032100Y0096300D03*
X0033300Y0096300D03*
X0032400Y0098100D03*
X0031200Y0098100D03*
X0034200Y0098100D03*
X0036000Y0098100D03*
X0037200Y0098100D03*
X0040800Y0098100D03*
X0042000Y0098100D03*
X0043800Y0098400D03*
X0043800Y0099000D03*
X0043800Y0100200D03*
X0045600Y0101400D03*
X0045900Y0100800D03*
X0046200Y0099900D03*
X0046500Y0099600D03*
X0046800Y0099300D03*
X0045600Y0102300D03*
X0045900Y0102900D03*
X0045900Y0103200D03*
X0046500Y0104100D03*
X0046800Y0104400D03*
X0047100Y0104700D03*
X0049200Y0106500D03*
X0051300Y0102900D03*
X0051300Y0102600D03*
X0051000Y0102300D03*
X0051000Y0101700D03*
X0054000Y0105600D03*
X0053700Y0105900D03*
X0052800Y0107700D03*
X0052800Y0109200D03*
X0052800Y0110400D03*
X0053100Y0110700D03*
X0054300Y0111600D03*
X0054600Y0112200D03*
X0054900Y0112500D03*
X0054900Y0110700D03*
X0055200Y0110400D03*
X0055500Y0109800D03*
X0055500Y0109500D03*
X0055500Y0109200D03*
X0055500Y0108900D03*
X0055200Y0108300D03*
X0054900Y0108000D03*
X0054900Y0107700D03*
X0057000Y0108900D03*
X0057300Y0108600D03*
X0057600Y0108300D03*
X0057900Y0106200D03*
X0058200Y0105900D03*
X0058500Y0105600D03*
X0058800Y0105000D03*
X0058500Y0104400D03*
X0061500Y0105900D03*
X0061500Y0106500D03*
X0060900Y0110100D03*
X0060900Y0110400D03*
X0059400Y0109500D03*
X0062100Y0111900D03*
X0062400Y0111600D03*
X0062700Y0111300D03*
X0063000Y0111000D03*
X0063000Y0110700D03*
X0063300Y0110400D03*
X0063300Y0110100D03*
X0061200Y0112800D03*
X0069000Y0102000D03*
X0070200Y0101100D03*
X0070500Y0100800D03*
X0071100Y0099900D03*
X0071100Y0099600D03*
X0071100Y0098100D03*
X0070800Y0097500D03*
X0070500Y0097200D03*
X0070500Y0096900D03*
X0070200Y0096600D03*
X0069600Y0096000D03*
X0069300Y0095400D03*
X0069000Y0093900D03*
X0069300Y0092700D03*
X0069000Y0092400D03*
X0068700Y0092100D03*
X0067200Y0090900D03*
X0064500Y0089100D03*
X0064500Y0087300D03*
X0064500Y0085800D03*
X0064500Y0084900D03*
X0064500Y0084000D03*
X0064500Y0083100D03*
X0064500Y0081900D03*
X0064500Y0080400D03*
X0064500Y0079500D03*
X0064500Y0079200D03*
X0064500Y0078600D03*
X0059700Y0078000D03*
X0058200Y0078900D03*
X0058200Y0080700D03*
X0058200Y0081300D03*
X0058200Y0082500D03*
X0058200Y0084900D03*
X0058200Y0087000D03*
X0061200Y0090000D03*
X0061200Y0090300D03*
X0060600Y0091800D03*
X0060600Y0092100D03*
X0060300Y0092700D03*
X0059700Y0094200D03*
X0059400Y0095100D03*
X0059100Y0096000D03*
X0059100Y0096600D03*
X0056100Y0095700D03*
X0055500Y0095100D03*
X0055200Y0094800D03*
X0054300Y0093600D03*
X0052500Y0093600D03*
X0052500Y0093000D03*
X0052500Y0090900D03*
X0052500Y0090600D03*
X0052800Y0088200D03*
X0053100Y0086700D03*
X0053100Y0086400D03*
X0053400Y0084900D03*
X0053700Y0083400D03*
X0054000Y0081000D03*
X0054000Y0080700D03*
X0053700Y0080400D03*
X0052500Y0079500D03*
X0052200Y0079200D03*
X0051900Y0078900D03*
X0051000Y0078300D03*
X0049500Y0080100D03*
X0049200Y0079800D03*
X0050100Y0080700D03*
X0046800Y0080400D03*
X0042300Y0080400D03*
X0039600Y0078300D03*
X0039000Y0078600D03*
X0038700Y0078900D03*
X0042900Y0091800D03*
X0043800Y0092700D03*
X0043800Y0093600D03*
X0043800Y0094500D03*
X0043800Y0095400D03*
X0043800Y0096600D03*
X0043800Y0097200D03*
X0041700Y0092400D03*
X0052200Y0095400D03*
X0052200Y0096000D03*
X0052200Y0096900D03*
X0043800Y0102600D03*
X0027600Y0098100D03*
X0026400Y0098100D03*
X0024600Y0097200D03*
X0024600Y0095400D03*
X0024600Y0094200D03*
X0024600Y0092700D03*
X0024900Y0099600D03*
X0024900Y0100200D03*
X0024900Y0101700D03*
X0024900Y0102600D03*
X0024900Y0103200D03*
X0042300Y0129000D03*
X0042300Y0130200D03*
X0042300Y0130500D03*
X0042300Y0130800D03*
X0042300Y0131100D03*
X0042300Y0131700D03*
X0042600Y0132300D03*
X0042600Y0133200D03*
X0042600Y0133800D03*
X0042600Y0134100D03*
X0042900Y0134700D03*
X0042600Y0135000D03*
X0042600Y0135600D03*
X0042900Y0136500D03*
X0042900Y0137100D03*
X0042900Y0137400D03*
X0042900Y0138000D03*
X0042900Y0138300D03*
X0043200Y0138600D03*
X0043200Y0139200D03*
X0043200Y0139500D03*
X0043200Y0139800D03*
X0043200Y0140400D03*
X0043200Y0140700D03*
X0043200Y0141000D03*
X0043200Y0141600D03*
X0043500Y0141900D03*
X0043200Y0142200D03*
X0041100Y0144900D03*
X0040800Y0145500D03*
X0040500Y0145800D03*
X0040500Y0146100D03*
X0040200Y0146400D03*
X0040200Y0146700D03*
X0040200Y0147000D03*
X0040200Y0147300D03*
X0040200Y0147900D03*
X0040200Y0148200D03*
X0040200Y0148500D03*
X0040500Y0149100D03*
X0040500Y0149400D03*
X0041100Y0150300D03*
X0041100Y0150600D03*
X0041400Y0150900D03*
X0042000Y0151500D03*
X0042300Y0152100D03*
X0042600Y0152400D03*
X0043500Y0153300D03*
X0045600Y0155100D03*
X0045600Y0156000D03*
X0045600Y0156300D03*
X0045300Y0157200D03*
X0045300Y0157500D03*
X0045000Y0157800D03*
X0045000Y0158100D03*
X0045000Y0158400D03*
X0045000Y0158700D03*
X0044700Y0159300D03*
X0044700Y0159600D03*
X0044700Y0159900D03*
X0044400Y0160200D03*
X0044400Y0160800D03*
X0044400Y0161400D03*
X0044400Y0161700D03*
X0044400Y0162000D03*
X0044700Y0162600D03*
X0044700Y0162900D03*
X0044700Y0163200D03*
X0045000Y0163500D03*
X0045000Y0163800D03*
X0045300Y0164100D03*
X0047700Y0156900D03*
X0049500Y0156900D03*
X0051900Y0156600D03*
X0052200Y0158400D03*
X0052200Y0158700D03*
X0052200Y0159000D03*
X0052200Y0159300D03*
X0052200Y0159900D03*
X0052500Y0160200D03*
X0053700Y0161700D03*
X0054000Y0161400D03*
X0053400Y0162300D03*
X0053100Y0162600D03*
X0056700Y0152700D03*
X0057600Y0151800D03*
X0058200Y0150900D03*
X0058500Y0150600D03*
X0058800Y0150300D03*
X0059100Y0149700D03*
X0059400Y0149400D03*
X0059700Y0148800D03*
X0060000Y0148500D03*
X0060000Y0148200D03*
X0060000Y0147900D03*
X0060300Y0147600D03*
X0060300Y0147300D03*
X0060300Y0147000D03*
X0060300Y0146400D03*
X0060300Y0146100D03*
X0060300Y0145800D03*
X0060000Y0145500D03*
X0060000Y0145200D03*
X0060000Y0144900D03*
X0059700Y0144600D03*
X0056700Y0147600D03*
X0056700Y0147900D03*
X0053400Y0147900D03*
X0053400Y0147600D03*
X0053400Y0145500D03*
X0053400Y0145200D03*
X0053400Y0144600D03*
X0053400Y0144000D03*
X0053400Y0143400D03*
X0053400Y0142500D03*
X0050700Y0142500D03*
X0050700Y0142200D03*
X0050700Y0141900D03*
X0050700Y0141300D03*
X0050700Y0143100D03*
X0050700Y0143700D03*
X0051000Y0144300D03*
X0050700Y0144600D03*
X0051000Y0144900D03*
X0051000Y0145500D03*
X0051000Y0146100D03*
X0051000Y0146400D03*
X0051000Y0146700D03*
X0051000Y0147000D03*
X0051000Y0147300D03*
X0048000Y0147900D03*
X0044700Y0147900D03*
X0044700Y0148200D03*
X0046800Y0141600D03*
X0046800Y0141300D03*
X0050100Y0138600D03*
X0050100Y0138300D03*
X0050100Y0137700D03*
X0050100Y0136800D03*
X0050100Y0136200D03*
X0050100Y0135600D03*
X0050100Y0135300D03*
X0050100Y0135000D03*
X0050100Y0134400D03*
X0050100Y0133800D03*
X0050100Y0133500D03*
X0050100Y0133200D03*
X0050100Y0132600D03*
X0050100Y0132300D03*
X0050100Y0131700D03*
X0050100Y0131400D03*
X0050100Y0130800D03*
X0050100Y0130500D03*
X0050100Y0130200D03*
X0050100Y0129600D03*
X0050100Y0129300D03*
X0054300Y0132300D03*
X0054300Y0132600D03*
X0054300Y0133200D03*
X0054300Y0133500D03*
X0054600Y0133800D03*
X0054600Y0134400D03*
X0054600Y0134700D03*
X0054600Y0135000D03*
X0054600Y0135300D03*
X0054600Y0135900D03*
X0054900Y0136200D03*
X0054900Y0136800D03*
X0054900Y0137100D03*
X0054900Y0137700D03*
X0054900Y0138000D03*
X0054900Y0138300D03*
X0054900Y0138600D03*
X0054900Y0138900D03*
X0054900Y0139200D03*
X0054900Y0139800D03*
X0054900Y0140100D03*
X0056100Y0141600D03*
X0054600Y0132000D03*
X0056100Y0130200D03*
X0056400Y0129900D03*
X0056700Y0129600D03*
X0057000Y0129300D03*
X0066300Y0099300D03*
X0065700Y0098700D03*
X0065100Y0098100D03*
X0064500Y0097800D03*
X0064500Y0097500D03*
X0066900Y0098100D03*
X0067500Y0098400D03*
X0067800Y0098700D03*
X0068400Y0097200D03*
X0067800Y0096600D03*
X0069600Y0086700D03*
X0072000Y0085500D03*
X0072600Y0085200D03*
X0075300Y0083700D03*
X0076500Y0083100D03*
X0081000Y0080700D03*
X0081000Y0079500D03*
X0081000Y0079200D03*
X0081000Y0078600D03*
X0081000Y0078000D03*
X0081000Y0075300D03*
X0076800Y0076200D03*
X0086400Y0083700D03*
X0082200Y0084900D03*
X0087300Y0094200D03*
X0094800Y0090900D03*
X0097200Y0087600D03*
X0117000Y0087000D03*
X0117000Y0086100D03*
X0117000Y0084600D03*
X0117000Y0084000D03*
X0117000Y0083400D03*
X0117000Y0082800D03*
X0120600Y0086100D03*
X0119100Y0087000D03*
X0118500Y0087300D03*
X0123300Y0084900D03*
X0124200Y0084300D03*
X0125400Y0083700D03*
X0126000Y0083400D03*
X0128700Y0081900D03*
X0129300Y0081300D03*
X0130800Y0079500D03*
X0130800Y0078300D03*
X0130800Y0076200D03*
X0132600Y0084600D03*
X0132300Y0084900D03*
X0133500Y0085200D03*
X0134100Y0084900D03*
X0137400Y0090300D03*
X0137400Y0090600D03*
X0137100Y0090900D03*
X0137400Y0091200D03*
X0137400Y0091500D03*
X0137100Y0091800D03*
X0137400Y0092100D03*
X0137100Y0092400D03*
X0137400Y0092700D03*
X0137100Y0093000D03*
X0137400Y0093300D03*
X0137100Y0093600D03*
X0137400Y0093900D03*
X0137100Y0094200D03*
X0140700Y0095400D03*
X0140700Y0096000D03*
X0141000Y0096900D03*
X0141000Y0097200D03*
X0141600Y0098400D03*
X0141900Y0098700D03*
X0141900Y0099000D03*
X0142500Y0099900D03*
X0142800Y0100200D03*
X0143100Y0100500D03*
X0143400Y0100800D03*
X0143700Y0101100D03*
X0144300Y0101700D03*
X0143100Y0097800D03*
X0142800Y0096300D03*
X0142800Y0095700D03*
X0143400Y0095100D03*
X0142800Y0093900D03*
X0141600Y0093000D03*
X0141300Y0093300D03*
X0141000Y0093900D03*
X0141900Y0092700D03*
X0143100Y0091800D03*
X0143100Y0091500D03*
X0143100Y0091200D03*
X0143400Y0090000D03*
X0141900Y0090000D03*
X0144000Y0086400D03*
X0145500Y0087000D03*
X0145500Y0087300D03*
X0145500Y0087900D03*
X0147300Y0087900D03*
X0145800Y0085200D03*
X0145800Y0084000D03*
X0145800Y0080400D03*
X0145500Y0080100D03*
X0144000Y0078900D03*
X0143400Y0078000D03*
X0150900Y0078600D03*
X0150900Y0079800D03*
X0150900Y0080700D03*
X0150900Y0082500D03*
X0150900Y0083700D03*
X0150900Y0084900D03*
X0150900Y0086100D03*
X0151200Y0089400D03*
X0151500Y0091200D03*
X0151500Y0091800D03*
X0151500Y0092400D03*
X0153300Y0093000D03*
X0153600Y0093900D03*
X0153900Y0094200D03*
X0154800Y0094800D03*
X0155100Y0095100D03*
X0156000Y0094200D03*
X0156600Y0094800D03*
X0156900Y0095100D03*
X0155100Y0093300D03*
X0154200Y0092400D03*
X0151800Y0094500D03*
X0151800Y0095400D03*
X0151800Y0096000D03*
X0151800Y0096300D03*
X0147300Y0090600D03*
X0156900Y0091500D03*
X0157200Y0090900D03*
X0157200Y0090600D03*
X0157500Y0089700D03*
X0157500Y0089100D03*
X0157500Y0088500D03*
X0158700Y0089400D03*
X0159300Y0088800D03*
X0159600Y0088500D03*
X0159900Y0088200D03*
X0160500Y0087900D03*
X0161100Y0088500D03*
X0160200Y0090000D03*
X0162600Y0094200D03*
X0163500Y0094800D03*
X0164400Y0095400D03*
X0165000Y0096300D03*
X0165300Y0096900D03*
X0165600Y0097800D03*
X0165600Y0098400D03*
X0165300Y0099300D03*
X0165000Y0099600D03*
X0164700Y0100200D03*
X0164400Y0100500D03*
X0163200Y0101400D03*
X0156000Y0105000D03*
X0156000Y0105600D03*
X0156300Y0106800D03*
X0156300Y0107100D03*
X0156600Y0108000D03*
X0156900Y0109200D03*
X0157200Y0110700D03*
X0157200Y0111900D03*
X0156600Y0113700D03*
X0156300Y0114000D03*
X0156000Y0114300D03*
X0152400Y0111000D03*
X0152400Y0110700D03*
X0152400Y0110400D03*
X0150300Y0111000D03*
X0150300Y0111300D03*
X0149100Y0110400D03*
X0149400Y0108900D03*
X0149700Y0106800D03*
X0149700Y0105900D03*
X0153600Y0106500D03*
X0147600Y0111300D03*
X0147600Y0111600D03*
X0147900Y0111900D03*
X0148200Y0112500D03*
X0148500Y0112800D03*
X0148800Y0113100D03*
X0149100Y0113400D03*
X0149400Y0113700D03*
X0149700Y0114000D03*
X0144000Y0113400D03*
X0139500Y0112500D03*
X0138900Y0113100D03*
X0138300Y0112500D03*
X0138000Y0112200D03*
X0138300Y0111600D03*
X0139500Y0111600D03*
X0135000Y0108900D03*
X0134400Y0109800D03*
X0134400Y0110100D03*
X0134100Y0110400D03*
X0133800Y0110700D03*
X0133200Y0111300D03*
X0130800Y0108300D03*
X0130800Y0108000D03*
X0129000Y0105600D03*
X0129000Y0105300D03*
X0129300Y0105000D03*
X0127800Y0106800D03*
X0127500Y0107400D03*
X0127500Y0107700D03*
X0127800Y0108300D03*
X0124800Y0111000D03*
X0124500Y0110700D03*
X0124200Y0110400D03*
X0123900Y0109500D03*
X0123600Y0109200D03*
X0123300Y0108300D03*
X0123300Y0104400D03*
X0123600Y0103500D03*
X0123900Y0102900D03*
X0124200Y0102300D03*
X0124500Y0102000D03*
X0124800Y0101700D03*
X0125100Y0101400D03*
X0125400Y0101100D03*
X0133800Y0101700D03*
X0134100Y0102000D03*
X0134400Y0102600D03*
X0134700Y0103200D03*
X0135000Y0103800D03*
X0135300Y0104700D03*
X0135600Y0105600D03*
X0135600Y0106200D03*
X0135600Y0106800D03*
X0135300Y0107700D03*
X0157800Y0085500D03*
X0158100Y0081600D03*
X0158100Y0080700D03*
X0158100Y0079800D03*
X0158400Y0079200D03*
X0158400Y0078600D03*
X0158400Y0078000D03*
X0175200Y0071100D03*
X0175500Y0120900D03*
X0169800Y0152400D03*
X0169800Y0155700D03*
X0067200Y0084600D03*
X0054000Y0078000D03*
D15*
X0055050Y0078000D03*
X0055050Y0077400D03*
X0055950Y0078000D03*
X0056250Y0077400D03*
X0057450Y0077400D03*
X0058050Y0078600D03*
X0058050Y0079200D03*
X0058050Y0079500D03*
X0058350Y0079800D03*
X0058050Y0080100D03*
X0058050Y0080400D03*
X0058050Y0082200D03*
X0058050Y0082800D03*
X0058050Y0083100D03*
X0058350Y0083400D03*
X0058050Y0083700D03*
X0058050Y0084000D03*
X0058050Y0084600D03*
X0058050Y0085200D03*
X0058050Y0085500D03*
X0058050Y0085800D03*
X0058350Y0086100D03*
X0058050Y0086400D03*
X0058050Y0086700D03*
X0058050Y0087300D03*
X0061050Y0090600D03*
X0061050Y0090900D03*
X0060750Y0091200D03*
X0060750Y0091500D03*
X0060450Y0092400D03*
X0060150Y0093000D03*
X0060150Y0093300D03*
X0059850Y0093600D03*
X0059850Y0093900D03*
X0059550Y0094500D03*
X0059550Y0094800D03*
X0059250Y0095400D03*
X0059250Y0095700D03*
X0058950Y0096300D03*
X0057450Y0097800D03*
X0057450Y0098100D03*
X0057150Y0097500D03*
X0056850Y0097200D03*
X0056850Y0096900D03*
X0056550Y0096600D03*
X0056550Y0096300D03*
X0056250Y0096000D03*
X0055950Y0095400D03*
X0055050Y0094500D03*
X0054750Y0094200D03*
X0054450Y0093900D03*
X0053850Y0093300D03*
X0053850Y0093000D03*
X0053550Y0092700D03*
X0053250Y0092400D03*
X0052350Y0092400D03*
X0052350Y0092700D03*
X0052350Y0093300D03*
X0052350Y0093900D03*
X0052350Y0094200D03*
X0052350Y0094500D03*
X0052350Y0094800D03*
X0052350Y0095100D03*
X0052350Y0095700D03*
X0052050Y0096300D03*
X0052350Y0096600D03*
X0051150Y0101400D03*
X0050850Y0102000D03*
X0047250Y0105000D03*
X0046350Y0103800D03*
X0046050Y0103500D03*
X0045750Y0102600D03*
X0045750Y0102000D03*
X0045750Y0101700D03*
X0045750Y0101100D03*
X0046050Y0100500D03*
X0046050Y0100200D03*
X0043650Y0100500D03*
X0043650Y0100800D03*
X0043650Y0101100D03*
X0043650Y0101400D03*
X0043950Y0101700D03*
X0043650Y0102000D03*
X0043650Y0102300D03*
X0043650Y0102900D03*
X0043650Y0103200D03*
X0043650Y0099600D03*
X0043650Y0099300D03*
X0043650Y0098700D03*
X0043650Y0098100D03*
X0043650Y0097500D03*
X0043650Y0096300D03*
X0043650Y0096000D03*
X0043650Y0095100D03*
X0043650Y0094800D03*
X0043650Y0094200D03*
X0043950Y0093900D03*
X0043650Y0093300D03*
X0041550Y0091200D03*
X0041850Y0090600D03*
X0041850Y0090300D03*
X0042150Y0090000D03*
X0041850Y0089100D03*
X0041850Y0088500D03*
X0041850Y0088200D03*
X0041550Y0087900D03*
X0041550Y0087600D03*
X0041250Y0087300D03*
X0041250Y0087000D03*
X0040050Y0086100D03*
X0040050Y0085800D03*
X0038850Y0084900D03*
X0038250Y0084300D03*
X0037950Y0083700D03*
X0037650Y0083400D03*
X0037650Y0083100D03*
X0037350Y0082500D03*
X0037350Y0081900D03*
X0037350Y0081300D03*
X0037350Y0081000D03*
X0037350Y0080700D03*
X0037650Y0080100D03*
X0037950Y0079800D03*
X0037950Y0079500D03*
X0038250Y0079200D03*
X0041850Y0079800D03*
X0042150Y0080100D03*
X0042150Y0079500D03*
X0043350Y0077100D03*
X0046350Y0078300D03*
X0049950Y0080400D03*
X0050550Y0081000D03*
X0050550Y0081300D03*
X0050850Y0081600D03*
X0050850Y0081900D03*
X0050850Y0082200D03*
X0051150Y0082800D03*
X0051150Y0083100D03*
X0051150Y0083400D03*
X0051150Y0084000D03*
X0051450Y0084300D03*
X0051450Y0084900D03*
X0051450Y0085200D03*
X0051450Y0085500D03*
X0051450Y0085800D03*
X0051450Y0086100D03*
X0051450Y0086400D03*
X0051450Y0086700D03*
X0051450Y0087000D03*
X0051450Y0087600D03*
X0051450Y0087900D03*
X0051750Y0088500D03*
X0051750Y0088800D03*
X0051750Y0089100D03*
X0051750Y0089700D03*
X0052050Y0090000D03*
X0052650Y0089700D03*
X0052650Y0089400D03*
X0052950Y0089100D03*
X0052950Y0088800D03*
X0052950Y0088500D03*
X0052950Y0087900D03*
X0052950Y0087600D03*
X0052950Y0087300D03*
X0052950Y0087000D03*
X0053250Y0086100D03*
X0053250Y0085800D03*
X0053250Y0085500D03*
X0053250Y0085200D03*
X0053550Y0084600D03*
X0053550Y0084300D03*
X0053550Y0084000D03*
X0053550Y0083700D03*
X0053850Y0082800D03*
X0053850Y0082500D03*
X0053850Y0082200D03*
X0053850Y0081900D03*
X0053850Y0081600D03*
X0054150Y0081300D03*
X0052650Y0077400D03*
X0050850Y0077400D03*
X0059250Y0077400D03*
X0064350Y0080700D03*
X0064650Y0081000D03*
X0064350Y0081300D03*
X0064650Y0081600D03*
X0064650Y0082200D03*
X0064350Y0082500D03*
X0064650Y0082800D03*
X0064650Y0083400D03*
X0064350Y0084300D03*
X0064650Y0084600D03*
X0064650Y0085500D03*
X0064350Y0086100D03*
X0064650Y0086400D03*
X0064650Y0086700D03*
X0064350Y0087000D03*
X0064650Y0087600D03*
X0064350Y0087900D03*
X0064650Y0088200D03*
X0064650Y0088500D03*
X0064350Y0088800D03*
X0064650Y0089400D03*
X0065850Y0090900D03*
X0065850Y0091200D03*
X0065550Y0091800D03*
X0065550Y0092100D03*
X0065250Y0092700D03*
X0065250Y0093000D03*
X0065250Y0093300D03*
X0064950Y0093600D03*
X0064950Y0093900D03*
X0064950Y0094200D03*
X0064650Y0094800D03*
X0064650Y0095100D03*
X0064350Y0096000D03*
X0064350Y0096300D03*
X0064050Y0096600D03*
X0067050Y0097800D03*
X0067350Y0099300D03*
X0067050Y0100200D03*
X0068550Y0097500D03*
X0067650Y0096300D03*
X0067950Y0094200D03*
X0068850Y0094200D03*
X0069150Y0093600D03*
X0069150Y0093300D03*
X0069450Y0093000D03*
X0070950Y0097800D03*
X0071250Y0098400D03*
X0071250Y0098700D03*
X0071250Y0099000D03*
X0071250Y0099300D03*
X0070950Y0100200D03*
X0061350Y0105600D03*
X0061350Y0106200D03*
X0061650Y0107400D03*
X0061650Y0107700D03*
X0061650Y0108000D03*
X0061650Y0108300D03*
X0061650Y0108600D03*
X0060750Y0109800D03*
X0059250Y0109800D03*
X0059250Y0110100D03*
X0059250Y0109200D03*
X0056850Y0109200D03*
X0056850Y0109500D03*
X0055050Y0107400D03*
X0052950Y0107400D03*
X0052650Y0108000D03*
X0052650Y0109500D03*
X0052650Y0109800D03*
X0052650Y0110100D03*
X0054450Y0111900D03*
X0061950Y0112200D03*
X0063450Y0109800D03*
X0058650Y0105300D03*
X0058650Y0104700D03*
X0057450Y0103500D03*
X0057750Y0103200D03*
X0057750Y0102900D03*
X0057750Y0102600D03*
X0058050Y0102300D03*
X0058050Y0102000D03*
X0058050Y0101400D03*
X0058050Y0100800D03*
X0058050Y0099900D03*
X0058050Y0099600D03*
X0058050Y0099300D03*
X0057750Y0099000D03*
X0057750Y0098700D03*
X0052650Y0091500D03*
X0052650Y0091200D03*
X0064650Y0079800D03*
X0067050Y0082500D03*
X0067050Y0082800D03*
X0067050Y0083100D03*
X0067050Y0083400D03*
X0067050Y0083700D03*
X0067050Y0084000D03*
X0067050Y0084300D03*
X0067050Y0084900D03*
X0067050Y0085200D03*
X0067050Y0085500D03*
X0067050Y0085800D03*
X0067050Y0086100D03*
X0067050Y0086400D03*
X0067050Y0086700D03*
X0067050Y0087000D03*
X0067050Y0087300D03*
X0079650Y0081000D03*
X0079650Y0080700D03*
X0079650Y0080400D03*
X0079650Y0079800D03*
X0079650Y0079500D03*
X0079650Y0079200D03*
X0079650Y0078900D03*
X0079650Y0078600D03*
X0079650Y0078000D03*
X0079650Y0077700D03*
X0079650Y0077400D03*
X0079650Y0077100D03*
X0079650Y0076800D03*
X0079650Y0076200D03*
X0079650Y0075900D03*
X0079650Y0075600D03*
X0079650Y0075300D03*
X0080850Y0075600D03*
X0080850Y0075900D03*
X0081150Y0076200D03*
X0080850Y0076500D03*
X0081150Y0076800D03*
X0080850Y0077100D03*
X0081150Y0077400D03*
X0080850Y0077700D03*
X0081150Y0080100D03*
X0080850Y0080400D03*
X0082350Y0084600D03*
X0087150Y0082800D03*
X0087450Y0089700D03*
X0087450Y0090000D03*
X0087450Y0090300D03*
X0087450Y0090600D03*
X0087450Y0090900D03*
X0087450Y0091200D03*
X0087450Y0091500D03*
X0087450Y0091800D03*
X0087450Y0092100D03*
X0087450Y0092400D03*
X0087450Y0092700D03*
X0087450Y0093000D03*
X0087450Y0093300D03*
X0087450Y0093600D03*
X0087450Y0093900D03*
X0086250Y0121500D03*
X0079050Y0121500D03*
X0071850Y0121500D03*
X0064650Y0121500D03*
X0057450Y0121500D03*
X0055050Y0129000D03*
X0054450Y0132900D03*
X0054450Y0134100D03*
X0054750Y0135600D03*
X0054750Y0136500D03*
X0054750Y0137400D03*
X0055050Y0139500D03*
X0056250Y0141300D03*
X0056250Y0141900D03*
X0053250Y0142200D03*
X0053250Y0142800D03*
X0053250Y0143100D03*
X0053250Y0143700D03*
X0053250Y0144300D03*
X0053250Y0144900D03*
X0053250Y0145800D03*
X0053250Y0146400D03*
X0053250Y0146700D03*
X0053250Y0147300D03*
X0050850Y0145800D03*
X0050850Y0145200D03*
X0050850Y0144000D03*
X0050850Y0143400D03*
X0050850Y0142800D03*
X0050550Y0141600D03*
X0049950Y0138900D03*
X0049950Y0138000D03*
X0049950Y0137400D03*
X0049950Y0137100D03*
X0049950Y0136500D03*
X0049950Y0135900D03*
X0049950Y0134700D03*
X0049950Y0134100D03*
X0049950Y0132900D03*
X0049950Y0132000D03*
X0049950Y0131100D03*
X0049950Y0129900D03*
X0042450Y0131400D03*
X0042450Y0132000D03*
X0042450Y0132600D03*
X0042450Y0132900D03*
X0042450Y0133500D03*
X0042450Y0134400D03*
X0042750Y0135300D03*
X0042750Y0135900D03*
X0042750Y0136200D03*
X0042750Y0136800D03*
X0043050Y0137700D03*
X0043050Y0138900D03*
X0043050Y0140100D03*
X0043350Y0141300D03*
X0043350Y0142500D03*
X0040050Y0147600D03*
X0040350Y0148800D03*
X0044550Y0148500D03*
X0047850Y0147600D03*
X0045750Y0155400D03*
X0045450Y0156600D03*
X0045450Y0156900D03*
X0044850Y0159000D03*
X0044550Y0160500D03*
X0044550Y0161100D03*
X0044550Y0162300D03*
X0048450Y0157800D03*
X0051750Y0156900D03*
X0052350Y0159600D03*
X0050550Y0161100D03*
X0060450Y0146700D03*
X0042150Y0129900D03*
X0042150Y0129300D03*
X0040650Y0121500D03*
X0047850Y0121500D03*
X0033450Y0121500D03*
X0026250Y0121500D03*
X0019050Y0120900D03*
X0017850Y0120300D03*
X0024750Y0102900D03*
X0024750Y0102300D03*
X0024750Y0102000D03*
X0024750Y0101400D03*
X0024750Y0101100D03*
X0024750Y0100800D03*
X0024750Y0100500D03*
X0024750Y0099900D03*
X0024750Y0099300D03*
X0024750Y0099000D03*
X0024750Y0098700D03*
X0024750Y0098400D03*
X0024750Y0097500D03*
X0024750Y0096900D03*
X0024750Y0096600D03*
X0024750Y0096300D03*
X0024750Y0096000D03*
X0024750Y0095700D03*
X0024750Y0095100D03*
X0024750Y0094800D03*
X0024750Y0094500D03*
X0024750Y0093900D03*
X0024750Y0093600D03*
X0024750Y0093300D03*
X0024750Y0093000D03*
X0026550Y0091800D03*
X0026850Y0092400D03*
X0028050Y0092400D03*
X0030450Y0092400D03*
X0032250Y0091800D03*
X0034350Y0091800D03*
X0034650Y0092700D03*
X0034350Y0093000D03*
X0034350Y0093900D03*
X0034350Y0096000D03*
X0036750Y0095700D03*
X0037050Y0095400D03*
X0036750Y0095100D03*
X0036750Y0094500D03*
X0036750Y0093300D03*
X0037050Y0093000D03*
X0036750Y0092700D03*
X0037650Y0091800D03*
X0038250Y0092400D03*
X0039150Y0092400D03*
X0039750Y0091800D03*
X0040050Y0092400D03*
X0039150Y0098100D03*
X0038250Y0098100D03*
X0031950Y0095400D03*
X0031950Y0094800D03*
X0031650Y0094500D03*
X0031950Y0093900D03*
X0031650Y0096000D03*
X0029550Y0098100D03*
X0028650Y0098100D03*
X0018750Y0071400D03*
X0093450Y0121500D03*
X0100650Y0121500D03*
X0112650Y0121500D03*
X0119850Y0121500D03*
X0124050Y0110100D03*
X0124050Y0109800D03*
X0123450Y0108900D03*
X0123450Y0108600D03*
X0123150Y0108000D03*
X0123150Y0107700D03*
X0123150Y0107400D03*
X0123150Y0107100D03*
X0122850Y0106800D03*
X0122850Y0106200D03*
X0122850Y0105900D03*
X0122850Y0105300D03*
X0123150Y0105000D03*
X0123150Y0104700D03*
X0123450Y0104100D03*
X0123450Y0103800D03*
X0123750Y0103200D03*
X0124050Y0102600D03*
X0127650Y0107100D03*
X0127650Y0108000D03*
X0129450Y0109500D03*
X0130950Y0107700D03*
X0130950Y0107400D03*
X0129150Y0104700D03*
X0129150Y0103800D03*
X0129150Y0103500D03*
X0129450Y0100200D03*
X0129450Y0099600D03*
X0134250Y0102300D03*
X0134550Y0102900D03*
X0134850Y0103500D03*
X0135150Y0104100D03*
X0135150Y0104400D03*
X0135450Y0105000D03*
X0135450Y0105300D03*
X0135450Y0105900D03*
X0135450Y0106500D03*
X0135450Y0107100D03*
X0135450Y0107400D03*
X0135450Y0108000D03*
X0135150Y0108300D03*
X0135150Y0108600D03*
X0134850Y0109200D03*
X0134550Y0109500D03*
X0138150Y0111900D03*
X0138750Y0111000D03*
X0139650Y0111900D03*
X0139650Y0112200D03*
X0148050Y0112200D03*
X0149250Y0110100D03*
X0149250Y0109800D03*
X0149250Y0109500D03*
X0149250Y0109200D03*
X0149550Y0108600D03*
X0149250Y0108300D03*
X0149550Y0108000D03*
X0149550Y0107700D03*
X0149850Y0106200D03*
X0149850Y0105600D03*
X0155850Y0105300D03*
X0156150Y0105900D03*
X0156150Y0106200D03*
X0156150Y0106500D03*
X0156450Y0107400D03*
X0156450Y0107700D03*
X0156750Y0108300D03*
X0156750Y0108600D03*
X0156750Y0108900D03*
X0157050Y0109500D03*
X0157050Y0109800D03*
X0157050Y0110100D03*
X0157050Y0110400D03*
X0157050Y0111000D03*
X0157350Y0111300D03*
X0157050Y0111600D03*
X0157050Y0112200D03*
X0157050Y0112500D03*
X0157050Y0112800D03*
X0156750Y0113100D03*
X0156750Y0113400D03*
X0150450Y0111600D03*
X0153450Y0121500D03*
X0160650Y0121500D03*
X0167850Y0121500D03*
X0176250Y0120600D03*
X0177450Y0119400D03*
X0164850Y0099900D03*
X0165450Y0099000D03*
X0165450Y0098700D03*
X0165750Y0098100D03*
X0165450Y0097500D03*
X0165450Y0097200D03*
X0165150Y0096600D03*
X0164550Y0095700D03*
X0160650Y0089700D03*
X0160950Y0089400D03*
X0161250Y0089100D03*
X0161250Y0088800D03*
X0160950Y0088200D03*
X0159150Y0089100D03*
X0158550Y0089700D03*
X0157350Y0089400D03*
X0157350Y0088800D03*
X0157650Y0088200D03*
X0157650Y0087900D03*
X0157650Y0087600D03*
X0157650Y0087300D03*
X0157650Y0087000D03*
X0157650Y0086700D03*
X0157650Y0086400D03*
X0157650Y0086100D03*
X0157650Y0085800D03*
X0157650Y0085200D03*
X0157650Y0084900D03*
X0157650Y0084600D03*
X0157950Y0084300D03*
X0157950Y0084000D03*
X0157950Y0083700D03*
X0157950Y0083400D03*
X0157950Y0083100D03*
X0157950Y0082800D03*
X0157950Y0082500D03*
X0157950Y0082200D03*
X0157950Y0081900D03*
X0157950Y0081300D03*
X0158250Y0081000D03*
X0158250Y0080400D03*
X0158250Y0080100D03*
X0158250Y0079500D03*
X0158250Y0078900D03*
X0158250Y0078300D03*
X0150750Y0078300D03*
X0150750Y0078000D03*
X0150750Y0078900D03*
X0150750Y0079200D03*
X0150750Y0079500D03*
X0150750Y0080100D03*
X0150750Y0080400D03*
X0150750Y0081000D03*
X0150750Y0081300D03*
X0150750Y0081600D03*
X0150750Y0081900D03*
X0150750Y0082200D03*
X0150750Y0082800D03*
X0150750Y0083100D03*
X0150750Y0083400D03*
X0150750Y0084000D03*
X0150750Y0084300D03*
X0150750Y0084600D03*
X0150750Y0085200D03*
X0150750Y0085500D03*
X0150750Y0085800D03*
X0150750Y0086400D03*
X0150750Y0086700D03*
X0150750Y0087000D03*
X0150750Y0087300D03*
X0151350Y0089700D03*
X0151350Y0090000D03*
X0151350Y0090300D03*
X0151350Y0090600D03*
X0151650Y0091500D03*
X0151650Y0092100D03*
X0151650Y0092700D03*
X0151650Y0093000D03*
X0151650Y0093300D03*
X0151650Y0093600D03*
X0151650Y0093900D03*
X0151650Y0094200D03*
X0151650Y0094800D03*
X0151650Y0095100D03*
X0151950Y0095700D03*
X0151950Y0096600D03*
X0154350Y0094500D03*
X0153450Y0093600D03*
X0153150Y0093300D03*
X0155250Y0093600D03*
X0155550Y0092700D03*
X0155850Y0092400D03*
X0157050Y0092400D03*
X0157050Y0091200D03*
X0156450Y0093600D03*
X0156450Y0094500D03*
X0156450Y0096000D03*
X0147150Y0095100D03*
X0147150Y0094800D03*
X0147150Y0094200D03*
X0147150Y0093900D03*
X0147150Y0093600D03*
X0147150Y0093300D03*
X0147150Y0092700D03*
X0147150Y0092400D03*
X0147150Y0092100D03*
X0147150Y0091800D03*
X0147150Y0091200D03*
X0147150Y0090300D03*
X0147150Y0090000D03*
X0147150Y0089700D03*
X0147150Y0089100D03*
X0147150Y0088800D03*
X0145350Y0088200D03*
X0145650Y0087600D03*
X0145650Y0086700D03*
X0145650Y0086400D03*
X0145650Y0086100D03*
X0145650Y0085800D03*
X0145650Y0085500D03*
X0145650Y0084900D03*
X0145650Y0084600D03*
X0145650Y0084300D03*
X0145650Y0083700D03*
X0145650Y0083400D03*
X0145950Y0083100D03*
X0145950Y0082800D03*
X0145950Y0082500D03*
X0145950Y0082200D03*
X0145950Y0081900D03*
X0145950Y0081600D03*
X0145950Y0081300D03*
X0145950Y0081000D03*
X0145950Y0080700D03*
X0143850Y0078600D03*
X0136950Y0081900D03*
X0136950Y0082800D03*
X0132450Y0085200D03*
X0130950Y0081000D03*
X0130950Y0080700D03*
X0130950Y0080400D03*
X0130950Y0080100D03*
X0130950Y0079800D03*
X0130950Y0079200D03*
X0130950Y0078900D03*
X0130950Y0078600D03*
X0130950Y0078000D03*
X0130950Y0077700D03*
X0130950Y0077400D03*
X0130950Y0077100D03*
X0130950Y0076800D03*
X0130950Y0076500D03*
X0130950Y0075900D03*
X0130950Y0075600D03*
X0129450Y0075600D03*
X0129450Y0076200D03*
X0129450Y0076500D03*
X0129450Y0077100D03*
X0129450Y0077400D03*
X0129450Y0077700D03*
X0129450Y0078300D03*
X0129450Y0078600D03*
X0129450Y0078900D03*
X0129450Y0079800D03*
X0129450Y0080100D03*
X0129450Y0080700D03*
X0129450Y0081000D03*
X0117150Y0082500D03*
X0116850Y0083100D03*
X0116850Y0084300D03*
X0117150Y0084900D03*
X0116850Y0085200D03*
X0117150Y0085500D03*
X0116850Y0085800D03*
X0117150Y0086400D03*
X0116850Y0086700D03*
X0140850Y0094200D03*
X0140850Y0094500D03*
X0140850Y0094800D03*
X0140850Y0095100D03*
X0140850Y0095700D03*
X0140850Y0096300D03*
X0140850Y0096600D03*
X0141150Y0097500D03*
X0141450Y0097800D03*
X0141450Y0098100D03*
X0142050Y0099300D03*
X0142350Y0099600D03*
X0142950Y0096900D03*
X0142950Y0096600D03*
X0142650Y0094200D03*
X0143550Y0093300D03*
X0141150Y0093600D03*
X0142950Y0090900D03*
X0142950Y0090600D03*
X0143250Y0090300D03*
X0175950Y0071400D03*
X0176550Y0071700D03*
X0178050Y0075300D03*
X0123450Y0150000D03*
X0112650Y0150000D03*
X0169650Y0155400D03*
D16*
X0155100Y0114900D03*
X0156300Y0104700D03*
X0160800Y0102900D03*
X0161100Y0102600D03*
X0161700Y0102300D03*
X0162600Y0101700D03*
X0163200Y0094500D03*
X0161700Y0093600D03*
X0160500Y0093000D03*
X0159900Y0092700D03*
X0157200Y0093300D03*
X0156600Y0092100D03*
X0151500Y0097200D03*
X0147900Y0104400D03*
X0147300Y0104100D03*
X0148500Y0104700D03*
X0144000Y0112500D03*
X0144000Y0112800D03*
X0144000Y0113100D03*
X0132300Y0111900D03*
X0131700Y0112200D03*
X0130200Y0108600D03*
X0128100Y0108600D03*
X0126300Y0111900D03*
X0128100Y0106500D03*
X0129000Y0105900D03*
X0126600Y0100500D03*
X0132000Y0093900D03*
X0132300Y0093000D03*
X0131700Y0092700D03*
X0133200Y0093300D03*
X0134700Y0093900D03*
X0134400Y0094800D03*
X0135900Y0095400D03*
X0136800Y0089400D03*
X0135300Y0087000D03*
X0133800Y0087900D03*
X0132600Y0085800D03*
X0131400Y0087000D03*
X0133500Y0084000D03*
X0134400Y0083400D03*
X0135000Y0083100D03*
X0135600Y0082800D03*
X0138300Y0084000D03*
X0139200Y0084300D03*
X0139500Y0083100D03*
X0141300Y0085200D03*
X0143100Y0084600D03*
X0143700Y0086100D03*
X0143700Y0089700D03*
X0142800Y0092100D03*
X0143100Y0093600D03*
X0143400Y0097500D03*
X0129600Y0092100D03*
X0129000Y0091800D03*
X0128100Y0091500D03*
X0127200Y0091200D03*
X0126600Y0090900D03*
X0126300Y0091800D03*
X0125100Y0090300D03*
X0123900Y0090000D03*
X0122400Y0089400D03*
X0120600Y0088500D03*
X0120000Y0087600D03*
X0120600Y0087300D03*
X0121200Y0087000D03*
X0121800Y0086700D03*
X0124800Y0085200D03*
X0125700Y0084600D03*
X0127500Y0083700D03*
X0128100Y0083400D03*
X0128700Y0083100D03*
X0129300Y0082800D03*
X0129900Y0082500D03*
X0130500Y0082200D03*
X0130500Y0081900D03*
X0130800Y0081300D03*
X0126000Y0076800D03*
X0125100Y0077400D03*
X0124500Y0077700D03*
X0123000Y0078600D03*
X0122400Y0078900D03*
X0120900Y0079800D03*
X0118500Y0081300D03*
X0117300Y0088200D03*
X0129600Y0074700D03*
X0129600Y0074400D03*
X0099000Y0087000D03*
X0096000Y0085800D03*
X0095400Y0086700D03*
X0094800Y0085200D03*
X0093300Y0085800D03*
X0092400Y0085500D03*
X0091500Y0085200D03*
X0091800Y0084000D03*
X0092700Y0084300D03*
X0089400Y0084300D03*
X0087900Y0083700D03*
X0085500Y0084000D03*
X0084900Y0083100D03*
X0085500Y0082800D03*
X0083700Y0083700D03*
X0082500Y0085500D03*
X0080400Y0082200D03*
X0078900Y0083100D03*
X0078000Y0083400D03*
X0076800Y0084000D03*
X0076200Y0084300D03*
X0074700Y0085200D03*
X0074100Y0085500D03*
X0073500Y0085800D03*
X0072300Y0086400D03*
X0072000Y0086700D03*
X0071100Y0087000D03*
X0070500Y0087300D03*
X0069900Y0087900D03*
X0070500Y0088200D03*
X0071100Y0088500D03*
X0071700Y0088800D03*
X0072900Y0089400D03*
X0073800Y0089700D03*
X0075300Y0090300D03*
X0075900Y0090600D03*
X0077100Y0090900D03*
X0081900Y0092700D03*
X0083400Y0093300D03*
X0083400Y0094200D03*
X0084300Y0093600D03*
X0085200Y0093900D03*
X0085800Y0094200D03*
X0087000Y0094500D03*
X0087900Y0087900D03*
X0076500Y0076500D03*
X0078000Y0075600D03*
X0080400Y0074700D03*
X0074400Y0077700D03*
X0070800Y0079800D03*
X0070500Y0080100D03*
X0069900Y0080400D03*
X0068400Y0081300D03*
X0070200Y0086400D03*
X0067500Y0087600D03*
X0066300Y0090300D03*
X0066600Y0090600D03*
X0068400Y0094500D03*
X0067800Y0099000D03*
X0066900Y0099600D03*
X0068100Y0102600D03*
X0067800Y0102900D03*
X0066000Y0103800D03*
X0063000Y0109500D03*
X0060300Y0113400D03*
X0056100Y0113400D03*
X0055800Y0113100D03*
X0054000Y0111300D03*
X0052200Y0108300D03*
X0051000Y0107700D03*
X0053400Y0106800D03*
X0054600Y0105000D03*
X0055200Y0104400D03*
X0048300Y0098400D03*
X0047700Y0098700D03*
X0043200Y0092400D03*
X0036900Y0092400D03*
X0035700Y0091800D03*
X0031800Y0092400D03*
X0029700Y0091800D03*
X0027900Y0091800D03*
X0024900Y0092400D03*
X0034800Y0096300D03*
X0042900Y0080700D03*
X0044400Y0078600D03*
X0051000Y0078000D03*
X0064200Y0078000D03*
X0052200Y0141000D03*
X0056100Y0142200D03*
X0056100Y0144600D03*
X0057000Y0147300D03*
X0058800Y0143700D03*
X0048300Y0146100D03*
X0045600Y0147300D03*
X0042600Y0144000D03*
X0042000Y0144300D03*
X0041700Y0144600D03*
X0045000Y0154500D03*
X0052200Y0156300D03*
X0052800Y0155700D03*
X0054000Y0154800D03*
X0053700Y0161100D03*
X0051000Y0164400D03*
X0050700Y0164700D03*
D17*
X0046650Y0165000D03*
X0048450Y0148500D03*
X0043650Y0143400D03*
X0043050Y0143700D03*
X0050250Y0139800D03*
X0053550Y0141600D03*
X0056250Y0142500D03*
X0057450Y0143100D03*
X0058050Y0143400D03*
X0056550Y0144900D03*
X0056850Y0145200D03*
X0056850Y0129000D03*
X0059250Y0107400D03*
X0053550Y0107100D03*
X0052950Y0106200D03*
X0049050Y0098100D03*
X0041250Y0091800D03*
X0047550Y0079200D03*
X0046350Y0078600D03*
X0058050Y0078000D03*
X0067650Y0088200D03*
X0068250Y0088500D03*
X0068850Y0088800D03*
X0069450Y0089100D03*
X0070050Y0087600D03*
X0071850Y0090000D03*
X0072750Y0090300D03*
X0073350Y0090600D03*
X0074250Y0090900D03*
X0075150Y0091200D03*
X0076650Y0091800D03*
X0077550Y0092100D03*
X0077850Y0091200D03*
X0078450Y0091500D03*
X0079350Y0092700D03*
X0079950Y0093000D03*
X0080850Y0093300D03*
X0081750Y0093600D03*
X0082350Y0093900D03*
X0084150Y0094500D03*
X0081150Y0092400D03*
X0083250Y0087600D03*
X0084150Y0087900D03*
X0085050Y0088200D03*
X0085650Y0088500D03*
X0086850Y0089100D03*
X0087150Y0087600D03*
X0086550Y0087300D03*
X0088650Y0088200D03*
X0089550Y0088500D03*
X0089850Y0088800D03*
X0090450Y0089100D03*
X0091050Y0089400D03*
X0092850Y0090000D03*
X0094350Y0090600D03*
X0098250Y0086700D03*
X0097650Y0086400D03*
X0095550Y0085500D03*
X0094050Y0084900D03*
X0091050Y0083700D03*
X0090450Y0083400D03*
X0089850Y0083100D03*
X0088950Y0082800D03*
X0087150Y0083400D03*
X0083850Y0086400D03*
X0083250Y0086100D03*
X0082950Y0085200D03*
X0081750Y0087000D03*
X0080850Y0086700D03*
X0080250Y0086400D03*
X0079650Y0086100D03*
X0076950Y0085200D03*
X0077550Y0083700D03*
X0077550Y0075900D03*
X0079950Y0074700D03*
X0066750Y0103500D03*
X0065250Y0104100D03*
X0025350Y0097800D03*
X0091650Y0155400D03*
X0126750Y0112200D03*
X0128550Y0106200D03*
X0131850Y0100500D03*
X0131250Y0093600D03*
X0130650Y0092400D03*
X0127050Y0092100D03*
X0125550Y0091500D03*
X0124650Y0091200D03*
X0124050Y0090900D03*
X0122250Y0090300D03*
X0121350Y0090000D03*
X0118950Y0089100D03*
X0118350Y0088800D03*
X0118050Y0088500D03*
X0122250Y0086400D03*
X0123150Y0086100D03*
X0126750Y0085200D03*
X0127350Y0085500D03*
X0128250Y0085800D03*
X0128850Y0086100D03*
X0132150Y0087300D03*
X0133050Y0086100D03*
X0133650Y0086400D03*
X0134550Y0088200D03*
X0135150Y0088500D03*
X0135750Y0088800D03*
X0136050Y0089100D03*
X0136650Y0087600D03*
X0136050Y0087300D03*
X0138450Y0088200D03*
X0139350Y0088500D03*
X0139650Y0088800D03*
X0140250Y0089100D03*
X0140850Y0089400D03*
X0145650Y0088800D03*
X0143550Y0084900D03*
X0142350Y0084300D03*
X0141450Y0084000D03*
X0140850Y0083700D03*
X0140250Y0083400D03*
X0138750Y0082800D03*
X0128850Y0075300D03*
X0146250Y0096300D03*
X0145350Y0096600D03*
X0149850Y0096600D03*
X0154050Y0092700D03*
X0159750Y0091800D03*
X0159450Y0103500D03*
X0158550Y0103800D03*
X0157050Y0104400D03*
X0152850Y0107100D03*
X0149250Y0105000D03*
X0148650Y0110700D03*
X0153450Y0115500D03*
X0138750Y0112800D03*
X0138750Y0111300D03*
X0172050Y0148500D03*
X0170250Y0152100D03*
D18*
X0127500Y0100200D03*
X0137100Y0083700D03*
X0129900Y0081600D03*
X0129600Y0075000D03*
X0147600Y0095700D03*
X0086100Y0095100D03*
X0079800Y0075000D03*
X0051000Y0097500D03*
X0057000Y0103800D03*
X0056400Y0106800D03*
X0046200Y0078900D03*
X0051600Y0140700D03*
X0047400Y0142200D03*
X0046800Y0142500D03*
X0047700Y0146400D03*
X0048900Y0148200D03*
D19*
X0048150Y0148800D03*
X0047850Y0147300D03*
X0045150Y0147600D03*
X0044550Y0148800D03*
X0040950Y0150000D03*
X0040650Y0149700D03*
X0041550Y0151200D03*
X0042150Y0151800D03*
X0043050Y0152700D03*
X0043350Y0153000D03*
X0043950Y0153600D03*
X0044250Y0153900D03*
X0044550Y0154200D03*
X0045450Y0154800D03*
X0045750Y0155700D03*
X0051750Y0157200D03*
X0052650Y0156000D03*
X0053550Y0155400D03*
X0053850Y0155100D03*
X0054450Y0154500D03*
X0055050Y0154200D03*
X0055050Y0153900D03*
X0055650Y0153600D03*
X0055950Y0153300D03*
X0056250Y0153000D03*
X0056850Y0152400D03*
X0057150Y0152100D03*
X0057750Y0151500D03*
X0058050Y0151200D03*
X0058950Y0150000D03*
X0059550Y0149100D03*
X0056550Y0148200D03*
X0056250Y0146700D03*
X0053250Y0147000D03*
X0053250Y0146100D03*
X0053250Y0141900D03*
X0050550Y0141000D03*
X0046950Y0141000D03*
X0040950Y0145200D03*
X0054750Y0131700D03*
X0055050Y0131400D03*
X0055350Y0131100D03*
X0055650Y0130800D03*
X0055950Y0130500D03*
X0049950Y0129000D03*
X0042150Y0129600D03*
X0055350Y0112800D03*
X0055350Y0110100D03*
X0055350Y0108600D03*
X0055350Y0107100D03*
X0053250Y0106500D03*
X0053550Y0104400D03*
X0052950Y0104100D03*
X0052650Y0103800D03*
X0052050Y0103500D03*
X0051750Y0103200D03*
X0048750Y0106200D03*
X0048450Y0105900D03*
X0047850Y0105600D03*
X0047550Y0105300D03*
X0049650Y0106800D03*
X0049950Y0107100D03*
X0050550Y0107400D03*
X0051450Y0108000D03*
X0052350Y0108600D03*
X0052650Y0108900D03*
X0058050Y0108000D03*
X0058350Y0107700D03*
X0061950Y0108900D03*
X0061650Y0112500D03*
X0060750Y0113100D03*
X0061650Y0105300D03*
X0067350Y0103200D03*
X0068550Y0102300D03*
X0069450Y0101700D03*
X0069750Y0101400D03*
X0070650Y0100500D03*
X0067050Y0099900D03*
X0065850Y0099000D03*
X0065250Y0098400D03*
X0067950Y0096900D03*
X0069450Y0095700D03*
X0070050Y0096300D03*
X0068850Y0095100D03*
X0068550Y0094800D03*
X0068250Y0091800D03*
X0067950Y0091500D03*
X0067650Y0091200D03*
X0067350Y0087900D03*
X0068250Y0087300D03*
X0068850Y0087000D03*
X0070650Y0086100D03*
X0071550Y0085800D03*
X0073050Y0086100D03*
X0073050Y0084900D03*
X0073650Y0084600D03*
X0074250Y0084300D03*
X0074850Y0084000D03*
X0075750Y0083400D03*
X0075750Y0084600D03*
X0076950Y0082800D03*
X0077850Y0082500D03*
X0078150Y0082200D03*
X0078750Y0081900D03*
X0079350Y0082800D03*
X0079950Y0082500D03*
X0080850Y0081900D03*
X0082650Y0084300D03*
X0083250Y0084000D03*
X0084150Y0083400D03*
X0084450Y0084600D03*
X0083850Y0084900D03*
X0085050Y0084300D03*
X0082650Y0085800D03*
X0087150Y0089400D03*
X0090150Y0084600D03*
X0090750Y0084900D03*
X0088650Y0084000D03*
X0087150Y0081900D03*
X0093750Y0086100D03*
X0094650Y0086400D03*
X0096150Y0087000D03*
X0097050Y0087300D03*
X0087150Y0094800D03*
X0086250Y0095400D03*
X0082650Y0093000D03*
X0080250Y0092100D03*
X0079650Y0091800D03*
X0074550Y0090000D03*
X0072150Y0089100D03*
X0067350Y0082200D03*
X0067650Y0081900D03*
X0067950Y0081600D03*
X0068850Y0081000D03*
X0069450Y0080700D03*
X0071550Y0079500D03*
X0071850Y0079200D03*
X0072450Y0078900D03*
X0073050Y0078600D03*
X0073350Y0078300D03*
X0073950Y0078000D03*
X0074850Y0077400D03*
X0075450Y0077100D03*
X0076050Y0076800D03*
X0078450Y0075300D03*
X0053250Y0080100D03*
X0052950Y0079800D03*
X0051450Y0078600D03*
X0046350Y0080700D03*
X0045750Y0078000D03*
X0045150Y0077700D03*
X0042450Y0079200D03*
X0040050Y0078000D03*
X0052350Y0090300D03*
X0052650Y0091800D03*
X0052950Y0092100D03*
X0047250Y0099000D03*
X0036450Y0096300D03*
X0025050Y0098100D03*
X0025350Y0091800D03*
X0058950Y0144000D03*
X0059250Y0144300D03*
X0053550Y0162000D03*
X0052950Y0162900D03*
X0052650Y0163200D03*
X0052350Y0163500D03*
X0052050Y0163800D03*
X0051750Y0164100D03*
X0050550Y0161700D03*
X0050550Y0161400D03*
X0046050Y0164700D03*
X0045750Y0164400D03*
X0083850Y0150000D03*
X0091050Y0152700D03*
X0125550Y0111600D03*
X0125250Y0111300D03*
X0122850Y0106500D03*
X0122850Y0105600D03*
X0125850Y0100800D03*
X0132450Y0100800D03*
X0133050Y0101100D03*
X0133350Y0101400D03*
X0136950Y0094800D03*
X0135450Y0094200D03*
X0133950Y0093600D03*
X0137250Y0090000D03*
X0137250Y0089700D03*
X0141450Y0089700D03*
X0142350Y0092400D03*
X0143250Y0095400D03*
X0142650Y0096000D03*
X0147450Y0095400D03*
X0143850Y0101400D03*
X0144750Y0102000D03*
X0145050Y0102300D03*
X0145350Y0102600D03*
X0145650Y0102900D03*
X0145950Y0103200D03*
X0146250Y0103500D03*
X0146850Y0103800D03*
X0149550Y0105300D03*
X0151650Y0106500D03*
X0150150Y0114300D03*
X0150750Y0114600D03*
X0155550Y0114600D03*
X0143850Y0112200D03*
X0133650Y0111000D03*
X0132750Y0111600D03*
X0125550Y0090600D03*
X0123450Y0089700D03*
X0121650Y0089100D03*
X0121050Y0088800D03*
X0119850Y0088200D03*
X0119850Y0087900D03*
X0119550Y0086700D03*
X0120150Y0086400D03*
X0121350Y0085800D03*
X0121950Y0085500D03*
X0122550Y0085200D03*
X0123750Y0085800D03*
X0124350Y0085500D03*
X0123750Y0084600D03*
X0124950Y0084000D03*
X0126450Y0084300D03*
X0127050Y0084000D03*
X0126450Y0083100D03*
X0127050Y0082800D03*
X0127650Y0082500D03*
X0128250Y0082200D03*
X0125550Y0077100D03*
X0126450Y0076500D03*
X0127050Y0076200D03*
X0127650Y0075900D03*
X0127950Y0075600D03*
X0130650Y0075300D03*
X0124050Y0078000D03*
X0123450Y0078300D03*
X0121950Y0079200D03*
X0121350Y0079500D03*
X0120450Y0080100D03*
X0119850Y0080400D03*
X0119250Y0080700D03*
X0118950Y0081000D03*
X0118050Y0081600D03*
X0117750Y0081900D03*
X0117450Y0082200D03*
X0117150Y0087900D03*
X0132750Y0085500D03*
X0132750Y0084300D03*
X0133950Y0083700D03*
X0134550Y0084600D03*
X0135150Y0084300D03*
X0135750Y0084000D03*
X0136950Y0083400D03*
X0139950Y0084600D03*
X0140550Y0084900D03*
X0142050Y0085500D03*
X0142650Y0085800D03*
X0144150Y0085200D03*
X0145050Y0079800D03*
X0144750Y0079500D03*
X0144450Y0079200D03*
X0143550Y0078300D03*
X0156750Y0091800D03*
X0157050Y0092700D03*
X0157350Y0093000D03*
X0155850Y0093900D03*
X0154950Y0093000D03*
X0157050Y0095700D03*
X0159450Y0092400D03*
X0159150Y0092100D03*
X0160050Y0091500D03*
X0160050Y0091200D03*
X0160050Y0090900D03*
X0159750Y0090600D03*
X0161250Y0093300D03*
X0162150Y0093900D03*
X0163950Y0095100D03*
X0164550Y0096000D03*
X0163950Y0100800D03*
X0163650Y0101100D03*
X0162150Y0102000D03*
X0170250Y0156000D03*
X0171750Y0159600D03*
D20*
X0166500Y0158700D03*
X0166200Y0158400D03*
X0166500Y0158100D03*
X0166500Y0157500D03*
X0166200Y0156600D03*
X0166500Y0156300D03*
X0166200Y0152400D03*
X0166500Y0152100D03*
X0166200Y0151800D03*
X0166500Y0151500D03*
X0166200Y0151200D03*
X0166500Y0150900D03*
X0166500Y0149100D03*
X0160200Y0149100D03*
X0160200Y0149400D03*
X0160200Y0149700D03*
X0160200Y0150000D03*
X0160200Y0150300D03*
X0160200Y0150600D03*
X0160200Y0150900D03*
X0160200Y0151200D03*
X0160200Y0151500D03*
X0160200Y0151800D03*
X0160200Y0152100D03*
X0160200Y0148800D03*
X0156000Y0148800D03*
X0155700Y0149700D03*
X0154800Y0152700D03*
X0154500Y0153600D03*
X0149700Y0153300D03*
X0149400Y0152700D03*
X0148500Y0149400D03*
X0143700Y0149400D03*
X0143700Y0149700D03*
X0143700Y0150000D03*
X0143700Y0150600D03*
X0143700Y0150900D03*
X0143700Y0151200D03*
X0143700Y0151500D03*
X0143700Y0151800D03*
X0143700Y0152400D03*
X0143700Y0152700D03*
X0143700Y0153000D03*
X0143700Y0153300D03*
X0143700Y0153600D03*
X0143700Y0154200D03*
X0143700Y0154500D03*
X0143700Y0154800D03*
X0143700Y0155100D03*
X0143700Y0155400D03*
X0143700Y0156000D03*
X0143700Y0156300D03*
X0143700Y0156600D03*
X0143700Y0156900D03*
X0143700Y0157200D03*
X0143700Y0157800D03*
X0143700Y0158100D03*
X0143700Y0158400D03*
X0143700Y0158700D03*
X0143700Y0159000D03*
X0143700Y0159300D03*
X0138600Y0159300D03*
X0138900Y0153600D03*
X0138600Y0151500D03*
X0138900Y0151200D03*
X0138600Y0150900D03*
X0138900Y0150000D03*
X0138600Y0149700D03*
X0138600Y0149100D03*
X0143700Y0149100D03*
X0143700Y0148800D03*
X0132000Y0148800D03*
X0132000Y0149100D03*
X0127500Y0149400D03*
X0127500Y0149700D03*
X0126600Y0152700D03*
X0121500Y0153600D03*
X0121200Y0153000D03*
X0120300Y0149700D03*
X0115800Y0149700D03*
X0114900Y0152700D03*
X0114900Y0153000D03*
X0114600Y0153900D03*
X0110400Y0155100D03*
X0109800Y0153300D03*
X0109800Y0153000D03*
X0109800Y0152700D03*
X0102300Y0152700D03*
X0102300Y0152400D03*
X0102300Y0151800D03*
X0102300Y0150600D03*
X0102300Y0150300D03*
X0102300Y0150000D03*
X0102300Y0149100D03*
X0102300Y0153000D03*
X0102300Y0153900D03*
X0102300Y0154800D03*
X0102300Y0155100D03*
X0102300Y0155400D03*
X0102300Y0155700D03*
X0095400Y0155700D03*
X0095400Y0156000D03*
X0095400Y0156300D03*
X0095400Y0152400D03*
X0095400Y0152100D03*
X0095400Y0151800D03*
X0087600Y0149400D03*
X0086400Y0152700D03*
X0086400Y0153300D03*
X0081600Y0153600D03*
X0081300Y0153000D03*
X0080400Y0149700D03*
X0080100Y0148800D03*
X0131700Y0155400D03*
X0131700Y0156600D03*
X0131700Y0156900D03*
X0131700Y0158400D03*
X0131700Y0159000D03*
X0160200Y0159000D03*
X0160200Y0159300D03*
X0160200Y0158700D03*
X0160200Y0158400D03*
X0160200Y0158100D03*
X0160200Y0157800D03*
X0160200Y0157500D03*
X0160200Y0157200D03*
X0160200Y0156900D03*
X0160200Y0156600D03*
X0160200Y0156300D03*
X0160200Y0156000D03*
X0175800Y0154200D03*
X0175800Y0153900D03*
X0175800Y0153600D03*
X0043200Y0077400D03*
D21*
X0150600Y0077400D03*
X0150600Y0077700D03*
D22*
X0150600Y0089100D03*
X0145200Y0089100D03*
X0144600Y0089400D03*
X0137700Y0087900D03*
X0134400Y0086700D03*
X0132900Y0087600D03*
X0130500Y0086700D03*
X0129900Y0086400D03*
X0125700Y0084900D03*
X0120600Y0089700D03*
X0119700Y0089400D03*
X0117600Y0087600D03*
X0127800Y0092400D03*
X0128700Y0092700D03*
X0129600Y0093000D03*
X0130500Y0093300D03*
X0132900Y0094200D03*
X0133800Y0094500D03*
X0131100Y0100200D03*
X0143700Y0097200D03*
X0144600Y0096900D03*
X0150300Y0107100D03*
X0150300Y0107400D03*
X0148200Y0111000D03*
X0151500Y0114900D03*
X0157800Y0104100D03*
X0160200Y0103200D03*
X0137100Y0082200D03*
X0096900Y0086100D03*
X0093300Y0084600D03*
X0092100Y0089700D03*
X0093600Y0090300D03*
X0086100Y0088800D03*
X0085500Y0087000D03*
X0084900Y0086700D03*
X0082500Y0087300D03*
X0078600Y0085800D03*
X0078000Y0085500D03*
X0075900Y0091500D03*
X0071100Y0089700D03*
X0070200Y0089400D03*
X0084900Y0094800D03*
X0062700Y0109200D03*
X0060600Y0106800D03*
X0054900Y0105300D03*
X0054300Y0104700D03*
X0054000Y0111000D03*
X0049800Y0097800D03*
X0051600Y0097200D03*
X0048000Y0079500D03*
X0043500Y0078900D03*
X0041100Y0077700D03*
X0055500Y0140400D03*
X0055500Y0140700D03*
X0048000Y0144000D03*
X0050700Y0147600D03*
X0053700Y0149100D03*
X0052800Y0160500D03*
X0053100Y0160800D03*
D23*
X0057300Y0077700D03*
D24*
X0044700Y0081000D03*
X0060300Y0107100D03*
X0053700Y0141300D03*
X0086100Y0154500D03*
X0085800Y0155400D03*
X0085800Y0155700D03*
X0110400Y0155400D03*
X0114300Y0155700D03*
X0114300Y0155100D03*
X0114300Y0154800D03*
X0114600Y0154200D03*
X0122100Y0155700D03*
X0125700Y0155700D03*
X0125700Y0155400D03*
X0126000Y0154500D03*
X0154200Y0155400D03*
X0129300Y0108900D03*
X0135900Y0095100D03*
X0147900Y0088200D03*
X0152400Y0106800D03*
D25*
X0151050Y0096900D03*
X0149250Y0096300D03*
X0156450Y0095400D03*
X0158250Y0090000D03*
X0136650Y0094500D03*
X0123150Y0090600D03*
X0129150Y0109200D03*
X0087150Y0082200D03*
X0080250Y0081300D03*
X0079950Y0081600D03*
X0075750Y0084900D03*
X0078450Y0092400D03*
X0064350Y0104400D03*
X0063150Y0104700D03*
X0062250Y0105000D03*
X0047550Y0140700D03*
X0047550Y0141900D03*
X0047850Y0144300D03*
X0046950Y0146700D03*
X0052350Y0148200D03*
X0056550Y0147000D03*
X0056850Y0142800D03*
X0051150Y0157800D03*
X0051150Y0158100D03*
X0049950Y0165000D03*
X0048150Y0165600D03*
D26*
X0080250Y0149400D03*
X0080250Y0149100D03*
X0081450Y0152700D03*
X0087450Y0150000D03*
X0087450Y0149700D03*
X0087750Y0149100D03*
X0087750Y0148800D03*
X0102150Y0149400D03*
X0102150Y0151200D03*
X0102150Y0152100D03*
X0102150Y0153600D03*
X0102150Y0154200D03*
X0108450Y0148800D03*
X0108750Y0149100D03*
X0108750Y0149400D03*
X0108750Y0149700D03*
X0109050Y0150000D03*
X0121350Y0152700D03*
X0127650Y0149100D03*
X0127650Y0148800D03*
X0132150Y0149700D03*
X0138750Y0152400D03*
X0143850Y0152100D03*
X0143850Y0150300D03*
X0143850Y0153900D03*
X0143850Y0155700D03*
X0143850Y0157500D03*
X0138750Y0159000D03*
X0138450Y0158700D03*
X0148650Y0150000D03*
X0148650Y0149700D03*
X0148350Y0148800D03*
X0155550Y0150000D03*
X0155850Y0149400D03*
X0155850Y0149100D03*
X0160350Y0152400D03*
X0166350Y0150600D03*
X0166350Y0149700D03*
X0166350Y0149400D03*
X0172050Y0148800D03*
X0175650Y0153000D03*
X0175650Y0153300D03*
X0175650Y0154500D03*
X0175650Y0154800D03*
X0175650Y0155100D03*
X0166350Y0156900D03*
X0166350Y0157800D03*
X0166350Y0159000D03*
X0153150Y0115200D03*
X0087150Y0082500D03*
X0058350Y0113700D03*
D27*
X0056850Y0104100D03*
X0049650Y0140100D03*
X0044850Y0142800D03*
X0050550Y0147900D03*
X0081450Y0153300D03*
X0081750Y0153900D03*
X0081750Y0154200D03*
X0081750Y0154500D03*
X0082050Y0154800D03*
X0082050Y0155100D03*
X0082050Y0155400D03*
X0082050Y0155700D03*
X0085950Y0155100D03*
X0085950Y0154800D03*
X0086250Y0154200D03*
X0086250Y0153900D03*
X0086250Y0153600D03*
X0086550Y0153000D03*
X0102150Y0153300D03*
X0102150Y0154500D03*
X0102150Y0151500D03*
X0102150Y0150900D03*
X0102150Y0149700D03*
X0102150Y0148800D03*
X0109950Y0153600D03*
X0109950Y0153900D03*
X0110250Y0154200D03*
X0110250Y0154500D03*
X0110250Y0154800D03*
X0110550Y0155700D03*
X0114150Y0155400D03*
X0114450Y0154500D03*
X0114750Y0153600D03*
X0114750Y0153300D03*
X0121350Y0153300D03*
X0121650Y0153900D03*
X0121650Y0154200D03*
X0121650Y0154500D03*
X0121950Y0154800D03*
X0121950Y0155100D03*
X0121950Y0155400D03*
X0125850Y0155100D03*
X0125850Y0154800D03*
X0126150Y0154200D03*
X0126150Y0153900D03*
X0126150Y0153600D03*
X0126450Y0153300D03*
X0126450Y0153000D03*
X0131850Y0154500D03*
X0131850Y0154800D03*
X0131850Y0155100D03*
X0131850Y0155700D03*
X0131850Y0156000D03*
X0131850Y0156300D03*
X0131850Y0157200D03*
X0131850Y0157500D03*
X0131850Y0157800D03*
X0131850Y0158100D03*
X0131850Y0158700D03*
X0131850Y0159300D03*
X0138750Y0153300D03*
X0138750Y0153000D03*
X0138750Y0152700D03*
X0138750Y0152100D03*
X0138750Y0151800D03*
X0138750Y0150600D03*
X0138750Y0150300D03*
X0138750Y0149400D03*
X0138750Y0148800D03*
X0149550Y0153000D03*
X0149850Y0153600D03*
X0149850Y0153900D03*
X0149850Y0154200D03*
X0149850Y0154500D03*
X0150150Y0154800D03*
X0150150Y0155100D03*
X0150450Y0155400D03*
X0154050Y0155100D03*
X0154350Y0154800D03*
X0154350Y0154500D03*
X0154350Y0154200D03*
X0154350Y0153900D03*
X0154650Y0153300D03*
X0154650Y0153000D03*
X0166350Y0150300D03*
X0166350Y0150000D03*
X0166350Y0148800D03*
X0166350Y0156000D03*
X0166350Y0157200D03*
X0166350Y0159300D03*
X0129150Y0112800D03*
X0158550Y0090300D03*
X0137250Y0082500D03*
D28*
X0147900Y0088500D03*
X0172200Y0149100D03*
X0152100Y0157500D03*
X0137700Y0156300D03*
X0137700Y0156000D03*
X0132900Y0152100D03*
X0132900Y0151800D03*
X0132600Y0151200D03*
X0123900Y0157200D03*
X0123900Y0157500D03*
X0123900Y0157800D03*
X0112200Y0157500D03*
X0084000Y0157500D03*
D29*
X0055350Y0141000D03*
X0046650Y0147000D03*
X0044550Y0143100D03*
X0048750Y0157200D03*
X0058350Y0114000D03*
X0056850Y0106500D03*
X0062550Y0089400D03*
X0065250Y0090000D03*
X0147450Y0096000D03*
X0149850Y0088800D03*
D30*
X0132300Y0150600D03*
X0132600Y0150900D03*
X0138000Y0157200D03*
X0138300Y0157500D03*
X0152100Y0158100D03*
X0152100Y0158400D03*
X0152100Y0158700D03*
X0174900Y0156000D03*
X0123900Y0158400D03*
X0112200Y0158400D03*
X0084000Y0158400D03*
X0063600Y0089700D03*
D31*
X0034200Y0092100D03*
X0034200Y0103500D03*
X0034200Y0103800D03*
D32*
X0034350Y0096600D03*
X0061950Y0097200D03*
X0049350Y0140400D03*
X0054450Y0148500D03*
X0083850Y0157800D03*
X0083850Y0158100D03*
X0094650Y0152700D03*
X0112350Y0157800D03*
X0112350Y0158100D03*
X0123750Y0158100D03*
X0126750Y0150000D03*
X0132750Y0151500D03*
X0137850Y0156600D03*
X0138150Y0156900D03*
X0152250Y0157800D03*
X0172350Y0159000D03*
X0129150Y0112500D03*
D33*
X0172650Y0149400D03*
X0172350Y0158700D03*
X0152250Y0157200D03*
X0151950Y0156900D03*
X0137550Y0155400D03*
X0112350Y0156900D03*
X0112350Y0157200D03*
X0083850Y0157200D03*
X0083850Y0156900D03*
X0061350Y0096900D03*
D34*
X0031200Y0097800D03*
X0084000Y0152400D03*
X0112200Y0152400D03*
X0123900Y0152400D03*
X0123900Y0152100D03*
X0152100Y0152400D03*
D35*
X0173400Y0151800D03*
X0173400Y0156300D03*
X0102300Y0156300D03*
X0102300Y0156600D03*
X0102300Y0156000D03*
X0102300Y0157200D03*
X0102300Y0157500D03*
X0102300Y0157800D03*
X0102300Y0158400D03*
X0102300Y0158700D03*
X0102300Y0159300D03*
X0040200Y0097800D03*
D36*
X0054300Y0148800D03*
X0048300Y0165300D03*
X0080700Y0150000D03*
X0084000Y0159000D03*
X0084000Y0159300D03*
X0095100Y0155400D03*
X0112200Y0159300D03*
X0115500Y0150000D03*
X0120600Y0150000D03*
X0123900Y0159000D03*
X0123900Y0159300D03*
X0132000Y0149400D03*
X0138300Y0158100D03*
X0138300Y0158400D03*
X0148500Y0149100D03*
X0152100Y0159000D03*
X0152100Y0159300D03*
X0175200Y0155700D03*
X0175500Y0155400D03*
X0175500Y0152700D03*
X0175500Y0152400D03*
X0129300Y0099900D03*
D37*
X0097200Y0121200D03*
D38*
X0049950Y0128400D03*
D39*
X0049800Y0128700D03*
D40*
X0093750Y0148800D03*
X0093750Y0149100D03*
X0093750Y0150000D03*
X0093750Y0150300D03*
X0093750Y0151200D03*
X0093750Y0151500D03*
X0093750Y0154200D03*
X0093750Y0156600D03*
X0093750Y0156900D03*
X0093750Y0157200D03*
X0093750Y0157800D03*
X0093750Y0158100D03*
X0093750Y0158400D03*
X0093750Y0158700D03*
X0093750Y0159300D03*
X0172950Y0150600D03*
D41*
X0173250Y0151200D03*
X0173250Y0151500D03*
X0173250Y0156900D03*
X0118050Y0148800D03*
D42*
X0118050Y0149100D03*
X0118050Y0149400D03*
X0102150Y0156900D03*
X0102150Y0158100D03*
X0102150Y0159000D03*
D43*
X0093600Y0159000D03*
X0093600Y0157500D03*
X0093600Y0150900D03*
X0093600Y0150600D03*
X0093600Y0149700D03*
X0093600Y0149400D03*
X0173100Y0150900D03*
X0173400Y0156600D03*
X0173100Y0157200D03*
X0173100Y0157500D03*
D44*
X0172950Y0158100D03*
X0172650Y0158400D03*
X0172650Y0149700D03*
X0152250Y0156000D03*
X0137550Y0154800D03*
X0137250Y0154500D03*
X0133350Y0153600D03*
X0133350Y0153300D03*
X0123750Y0156300D03*
X0112350Y0156300D03*
X0112350Y0156600D03*
X0112350Y0156000D03*
X0083850Y0156300D03*
D45*
X0083850Y0158700D03*
X0112350Y0158700D03*
X0112350Y0159000D03*
X0123750Y0158700D03*
X0132450Y0150300D03*
X0132150Y0150000D03*
X0138150Y0157800D03*
X0172050Y0159300D03*
X0175050Y0152100D03*
X0049950Y0157500D03*
D46*
X0084000Y0156000D03*
X0093900Y0155100D03*
X0093900Y0154800D03*
X0093900Y0154500D03*
X0093900Y0153900D03*
X0093900Y0153600D03*
X0093900Y0153300D03*
X0093900Y0153000D03*
X0123900Y0156000D03*
X0152100Y0156300D03*
X0152100Y0155700D03*
X0172800Y0157800D03*
X0173100Y0150300D03*
X0172800Y0150000D03*
D47*
X0152250Y0150300D03*
X0135150Y0154200D03*
X0123750Y0150300D03*
X0112350Y0150300D03*
X0083850Y0150300D03*
D48*
X0084000Y0150600D03*
X0084000Y0150900D03*
X0112200Y0150600D03*
X0123900Y0150600D03*
X0123900Y0150900D03*
X0135300Y0153900D03*
X0152100Y0150900D03*
X0152100Y0150600D03*
D49*
X0152250Y0151200D03*
X0163050Y0153600D03*
X0163350Y0153900D03*
X0163350Y0154200D03*
X0163350Y0154500D03*
X0163350Y0155400D03*
X0163350Y0155700D03*
X0163350Y0153300D03*
X0163350Y0153000D03*
X0163350Y0152700D03*
X0123750Y0151200D03*
X0112350Y0151200D03*
X0112350Y0151500D03*
X0112350Y0150900D03*
D50*
X0123900Y0151500D03*
X0152100Y0151500D03*
X0152100Y0151800D03*
X0163200Y0154800D03*
X0163200Y0155100D03*
X0084000Y0151800D03*
X0084000Y0151500D03*
X0084000Y0151200D03*
D51*
X0083850Y0152100D03*
X0112350Y0152100D03*
X0112350Y0151800D03*
X0123750Y0151800D03*
X0152250Y0152100D03*
D52*
X0152100Y0156600D03*
X0137700Y0155700D03*
X0137400Y0155100D03*
X0133200Y0153000D03*
X0132900Y0152700D03*
X0132900Y0152400D03*
X0123900Y0156600D03*
X0123900Y0156900D03*
X0084000Y0156600D03*
D53*
X0042750Y0102052D02*
X0041783Y0101085D01*
X0040815Y0102052D01*
X0040815Y0099150D01*
X0039803Y0099634D02*
X0039320Y0100117D01*
X0037869Y0100117D01*
X0037869Y0100601D02*
X0037869Y0099150D01*
X0039320Y0099150D01*
X0039803Y0099634D01*
X0039320Y0101085D02*
X0038352Y0101085D01*
X0037869Y0100601D01*
X0036857Y0100117D02*
X0035889Y0101085D01*
X0035406Y0101085D01*
X0034402Y0100601D02*
X0034402Y0099634D01*
X0033918Y0099150D01*
X0032467Y0099150D01*
X0031455Y0099150D02*
X0031455Y0102052D01*
X0030971Y0101085D02*
X0030004Y0101085D01*
X0029520Y0100601D01*
X0029520Y0099150D01*
X0028509Y0099634D02*
X0028025Y0099150D01*
X0026574Y0099150D01*
X0026574Y0101085D01*
X0025562Y0102052D02*
X0025562Y0099150D01*
X0025562Y0100117D02*
X0024111Y0101085D01*
X0025562Y0100117D02*
X0024111Y0099150D01*
X0028509Y0099634D02*
X0028509Y0101085D01*
X0030971Y0101085D02*
X0031455Y0100601D01*
X0032467Y0101085D02*
X0033918Y0101085D01*
X0034402Y0100601D01*
X0036857Y0101085D02*
X0036857Y0099150D01*
X0042750Y0099150D02*
X0042750Y0102052D01*
D54*
X0158631Y0039654D02*
X0158631Y0008946D01*
X0194064Y0008946D01*
X0194064Y0039654D01*
X0158631Y0039654D01*
X0172410Y0027253D02*
X0192095Y0029221D01*
X0192095Y0032174D02*
X0174379Y0030206D01*
X0172410Y0027253D02*
X0172410Y0021347D01*
X0192095Y0019379D01*
X0192095Y0016426D02*
X0176347Y0018394D01*
X0176347Y0010520D02*
X0192095Y0012489D01*
X0192095Y0016426D01*
X0192095Y0032174D02*
X0192095Y0036111D01*
X0174379Y0038080D01*
M02*
