%
M48
M72
T01C0.02362
T02C0.03150
T03C0.03200
T04C0.03937
T05C0.04000
T06C0.07480
%
T01
X36800Y51800
X51800Y101800
X61800Y126800
X96800Y131800
X101800Y121800
X136188Y97412
X166800Y101800
X176800Y76800
X176800Y66800
X181188Y57412
X181800Y51800
X186800Y46800
X166800Y61800
X121800Y23048
X101800Y16800
X91800Y21800
X21800Y126800
X56800Y174080
X77951Y176873
X121165Y161165
X126800Y176800
X172398Y154972
X176800Y166800
T02
X60176Y183050
X68050Y183050
X75924Y183050
X159221Y30599
X163946Y27450
X159221Y24300
X163946Y21150
X159221Y18001
T03
X81800Y36800
X81800Y46800
X81800Y56800
X81800Y66800
X81800Y76800
X81800Y86800
X81800Y96800
X81800Y106800
X81800Y116800
X81800Y126800
X81800Y136800
X81800Y146800
X81800Y156800
X81800Y166800
X63050Y165550
X63050Y155550
X46800Y156800
X36800Y136800
X6800Y156800
X11800Y181800
X11800Y191800
X26800Y191800
X26800Y181800
X41800Y181800
X41800Y191800
X111800Y184300
X116800Y191800
X121800Y184300
X139300Y184300
X159300Y184300
X166800Y164300
X166800Y151800
X181800Y146800
X181800Y156800
X181800Y181800
X181800Y191800
X126800Y164300
X126800Y151800
X111800Y146800
X111800Y136800
X111800Y126800
X111800Y116800
X111800Y106800
X111800Y96800
X111800Y86800
X111800Y76800
X111800Y66800
X111800Y56800
X111800Y46800
X111800Y36800
X151800Y86800
X151800Y106800
X111800Y156800
X111800Y166800
X36800Y96800
T04
X52302Y183050
X83798Y183050
T05
X6800Y136800
X6800Y126800
X6800Y116800
X6800Y106800
X6800Y96800
X6800Y86800
X6800Y76800
X6800Y66800
X6800Y56800
X6800Y46800
X6800Y36800
X6800Y26800
X6800Y16800
X34300Y14300
X34300Y34300
X61800Y34300
X61800Y14300
X61800Y71800
X61800Y81800
X61800Y91800
X193800Y86800
X193800Y76800
X193800Y66800
X193800Y96800
X193800Y106800
X193800Y116800
X193800Y126800
X193800Y136800
T06
X179300Y38670
X179300Y9930
M30
